<svg width="64" height="64" viewBox="0 0 64 64" fill="none" xmlns="http://www.w3.org/2000/svg">
<path d="M30.9584 31.1875H30.3454C30.0584 32.874 29.6479 34.666 29.2434 35.892C29.1934 36.0075 29.1319 36.114 29.0784 36.2265L30.9539 36.239C32.3654 36.239 33.5179 35.106 33.5179 33.7135C33.5179 32.321 32.3699 31.1875 30.9584 31.1875Z" fill="#0066CC"/>
<path d="M32 1C14.9065 1 1 14.9065 1 32C1 49.0935 14.9065 63 32 63C49.0935 63 63 49.0935 63 32C63 14.9065 49.0935 1 32 1ZM44.9385 17.0445L52.2045 17.0535L52.2025 19.527L44.9365 19.518L44.9385 17.0445ZM44.5185 21.227L52.615 21.237L56.1595 26.2655H40.911L44.5185 21.227ZM22.7245 23.8575C22.8595 23.294 23.2105 22.949 23.4665 22.697C23.6825 22.4845 23.767 22.3915 23.7955 22.2575C23.836 22.057 23.7345 21.7755 23.492 21.4275C23.221 21.039 23.32 20.5065 23.713 20.239C24.1065 19.971 24.6445 20.0685 24.915 20.4575C25.4335 21.201 25.6265 21.922 25.4885 22.6005C25.35 23.2555 24.9655 23.6335 24.685 23.9095C24.5255 24.0665 24.4265 24.167 24.407 24.2485C24.3635 24.4335 24.543 24.856 25.1795 25.4785C25.519 25.8105 25.5225 26.3515 25.187 26.687C25.018 26.856 24.795 26.941 24.5725 26.941C24.353 26.941 24.1335 26.859 23.965 26.6945C22.921 25.6735 22.5155 24.746 22.7245 23.8575ZM17.7325 23.8575C17.8675 23.294 18.2185 22.949 18.4745 22.697C18.6905 22.4845 18.775 22.3915 18.8035 22.2575C18.844 22.057 18.7425 21.7755 18.5 21.4275C18.229 21.039 18.328 20.5065 18.721 20.239C19.114 19.971 19.6525 20.0685 19.923 20.4575C20.4415 21.201 20.6345 21.922 20.4965 22.6005C20.358 23.2555 19.9735 23.6335 19.693 23.9095C19.5335 24.0665 19.4345 24.167 19.415 24.2485C19.3715 24.4335 19.551 24.856 20.1875 25.4785C20.527 25.8105 20.5305 26.3515 20.195 26.687C20.026 26.856 19.803 26.941 19.5805 26.941C19.361 26.941 19.1415 26.859 18.973 26.6945C17.929 25.6735 17.523 24.746 17.7325 23.8575ZM12.3565 23.857C12.4915 23.294 12.8425 22.949 13.0985 22.697C13.3145 22.4845 13.3985 22.3915 13.427 22.2575C13.468 22.0565 13.3665 21.775 13.124 21.4275C12.853 21.039 12.9515 20.507 13.3445 20.239C13.7375 19.971 14.276 20.0685 14.5465 20.457C15.0655 21.2005 15.2585 21.922 15.1205 22.601C14.9825 23.2555 14.598 23.6335 14.317 23.9095C14.1575 24.0665 14.0585 24.167 14.039 24.2485C13.995 24.434 14.1745 24.856 14.8115 25.4785C15.151 25.8105 15.1545 26.3515 14.819 26.687C14.65 26.856 14.427 26.941 14.2045 26.941C13.985 26.941 13.7655 26.859 13.597 26.6945C12.5525 25.6735 12.1465 24.7455 12.3565 23.857ZM18.5995 45.7C18.593 45.7 18.5865 45.7 18.58 45.7C13.2875 45.6965 8.662 44.3555 7.9515 43.5795C8.4505 43.068 10.674 42.408 11.9425 42.0475C13.6345 42.9625 15.5425 43.524 17.6195 43.7185C20.6485 44.0015 23.4675 43.4655 25.8 42.168C27.003 42.5465 28.783 43.1325 29.211 43.5785C28.5205 44.3555 23.903 45.7 18.5995 45.7ZM30.9505 37.948L28.429 37.9315C28.3185 37.931 28.2135 37.908 28.1165 37.87C27.728 38.406 27.294 38.903 26.808 39.3495C24.571 41.403 21.3635 42.3505 17.782 42.016C14.378 41.6985 11.535 40.289 9.5595 37.94C6.907 34.786 6.83 31.1835 6.99 29.4385L30.616 29.3335C30.6105 29.38 30.603 29.431 30.5975 29.478H30.9595C33.324 29.478 35.2475 31.3775 35.2475 33.713C35.2465 36.0485 33.319 37.948 30.9505 37.948ZM55.842 46.9555C55.8415 46.9555 55.841 46.9555 55.8405 46.9555L41.2745 46.9375C40.9545 46.937 40.654 46.814 40.4285 46.5915C40.204 46.3695 40.08 46.075 40.0805 45.762L40.1035 27.9755H57.061L57.038 45.7835C57.0365 46.4295 56.5005 46.9555 55.842 46.9555Z" fill="#0066CC"/>
</svg>
