<svg width="72" height="60" viewBox="0 0 72 60" fill="none" xmlns="http://www.w3.org/2000/svg">
<path fill-rule="evenodd" clip-rule="evenodd" d="M17.9795 20.5955H52.8926L44.1635 51.144H26.7052L17.9795 20.5955Z" fill="#FFFFFE"/>
<path fill-rule="evenodd" clip-rule="evenodd" d="M17.9795 20.5955H52.8926L44.1635 51.144H26.7052L17.9795 20.5955Z" stroke="#FFFFFE" stroke-width="0.0285714"/>
<path fill-rule="evenodd" clip-rule="evenodd" d="M2.99658 51.1406H68.4549L55.9269 55.5086H15.5212L2.99658 51.1406Z" fill="#FFFFFE"/>
<path fill-rule="evenodd" clip-rule="evenodd" d="M2.99658 51.1406H68.4549L55.9269 55.5086H15.5212L2.99658 51.1406Z" stroke="#FFFFFE" stroke-width="0.0285714"/>
<path fill-rule="evenodd" clip-rule="evenodd" d="M50.9725 25.2343L51.8468 24.8812L52.8274 24.5726L53.8731 24.3429L54.4079 24.264L54.9462 24.2126L55.4811 24.192L56.0091 24.2092L56.5199 24.264L57.0136 24.3634L57.4868 24.504L57.9291 24.696L58.3405 24.936L58.7108 25.2343L58.9919 25.5223L59.2216 25.8206L59.4068 26.1257L59.5474 26.4377L59.6468 26.7532L59.7051 27.072L59.7291 27.3977L59.7188 27.72L59.6742 28.0457L59.6022 28.368L59.5062 28.6869L59.3828 29.0023L59.2422 29.3109L59.0811 29.6126L58.7108 30.192L57.7851 31.4229L56.8456 32.5577L55.7725 33.8263L54.4422 35.4789L54.1131 35.8389L53.6125 36.2914L52.2205 37.4057L50.4891 38.6709L48.6376 39.9292L46.8856 41.0332L45.4559 41.8286L44.9314 42.0617L44.7291 42.1303L44.5714 42.1612H44.5096L44.4616 42.1543L44.4239 42.1337L44.4136 42.12L44.4034 42.1063L44.3931 42.0652L44.3965 42.0137L44.4171 41.952L44.4514 41.8766L46.4502 38.04L48.4456 36.7577L49.9439 35.7772L50.6948 35.2492L51.4456 34.6766L52.1931 34.0457L52.9439 33.336L53.6914 32.5372L54.4422 31.6354L55.5531 30.3566L56.1394 29.664L56.4102 29.3177L56.6502 28.968L56.8525 28.6252L57.0102 28.2857L57.0685 28.1212L57.1096 27.9566L57.1371 27.7954L57.1439 27.6377L57.1336 27.4834L57.1028 27.3326L57.0514 27.1852L56.9794 27.0412L56.8834 26.9006L56.7599 26.7669L56.6159 26.64L56.4411 26.5166L56.3005 26.4412L56.1428 26.3829L55.9679 26.3417L55.7794 26.3143L55.3645 26.3006L54.9119 26.3383L54.4285 26.4172L53.9245 26.5269L52.9165 26.8217L51.9702 27.1577L51.1851 27.4732L50.6434 27.7063L50.4959 27.7749L50.4582 27.792L50.4479 27.7989H50.4445L50.7908 25.7623L50.9725 25.2343Z" fill="#FFFFFE"/>
<path fill-rule="evenodd" clip-rule="evenodd" d="M50.9725 25.2343L51.8468 24.8812L52.8274 24.5726L53.8731 24.3429L54.4079 24.264L54.9462 24.2126L55.4811 24.192L56.0091 24.2092L56.5199 24.264L57.0136 24.3634L57.4868 24.504L57.9291 24.696L58.3405 24.936L58.7108 25.2343L58.9919 25.5223L59.2216 25.8206L59.4068 26.1257L59.5474 26.4377L59.6468 26.7532L59.7051 27.072L59.7291 27.3977L59.7188 27.72L59.6742 28.0457L59.6022 28.368L59.5062 28.6869L59.3828 29.0023L59.2422 29.3109L59.0811 29.6126L58.7108 30.192L57.7851 31.4229L56.8456 32.5577L55.7725 33.8263L54.4422 35.4789L54.1131 35.8389L53.6125 36.2914L52.2205 37.4057L50.4891 38.6709L48.6376 39.9292L46.8856 41.0332L45.4559 41.8286L44.9314 42.0617L44.7291 42.1303L44.5714 42.1612H44.5096L44.4616 42.1543L44.4239 42.1337L44.4136 42.12L44.4034 42.1063L44.3931 42.0652L44.3965 42.0137L44.4171 41.952L44.4514 41.8766L46.4502 38.04L48.4456 36.7577L49.9439 35.7772L50.6948 35.2492L51.4456 34.6766L52.1931 34.0457L52.9439 33.336L53.6914 32.5372L54.4422 31.6354L55.5531 30.3566L56.1394 29.664L56.4102 29.3177L56.6502 28.968L56.8525 28.6252L57.0102 28.2857L57.0685 28.1212L57.1096 27.9566L57.1371 27.7954L57.1439 27.6377L57.1336 27.4834L57.1028 27.3326L57.0514 27.1852L56.9794 27.0412L56.8834 26.9006L56.7599 26.7669L56.6159 26.64L56.4411 26.5166L56.3005 26.4412L56.1428 26.3829L55.9679 26.3417L55.7794 26.3143L55.3645 26.3006L54.9119 26.3383L54.4285 26.4172L53.9245 26.5269L52.9165 26.8217L51.9702 27.1577L51.1851 27.4732L50.6434 27.7063L50.4959 27.7749L50.4582 27.792L50.4479 27.7989H50.4445L50.7908 25.7623L50.9725 25.2343Z" stroke="#FFFFFE" stroke-width="0.0285714"/>
<path fill-rule="evenodd" clip-rule="evenodd" d="M28.4949 7.08002L29.2492 7.58402L28.9646 8.01259L28.6801 8.44116L27.9258 7.93716L28.2104 7.50859L28.4949 7.08002Z" fill="#FFFFFE"/>
<path fill-rule="evenodd" clip-rule="evenodd" d="M28.9646 8.01262L29.2492 7.58405L29.2766 7.60462L28.9646 8.01262Z" fill="#FFFFFE"/>
<path fill-rule="evenodd" clip-rule="evenodd" d="M29.2766 7.60461L29.9143 8.08804L29.6023 8.49604L29.2869 8.90747L28.6526 8.42061L28.9646 8.01261L29.2766 7.60461Z" fill="#FFFFFE"/>
<path fill-rule="evenodd" clip-rule="evenodd" d="M29.6023 8.49601L29.9143 8.08801L29.9452 8.11544L29.6023 8.49601Z" fill="#FFFFFE"/>
<path fill-rule="evenodd" clip-rule="evenodd" d="M29.9452 8.11542L30.4664 8.5817L30.1235 8.9657L29.7807 9.3497L29.2595 8.87999L29.6024 8.49599L29.9452 8.11542Z" fill="#FFFFFE"/>
<path fill-rule="evenodd" clip-rule="evenodd" d="M30.1235 8.96573L30.4664 8.58173L30.5007 8.61258L30.1235 8.96573Z" fill="#FFFFFE"/>
<path fill-rule="evenodd" clip-rule="evenodd" d="M30.5006 8.61261L30.9189 9.06175L30.5452 9.4149L30.168 9.76461L29.7498 9.31547L30.1235 8.96575L30.5006 8.61261Z" fill="#FFFFFE"/>
<path fill-rule="evenodd" clip-rule="evenodd" d="M30.5452 9.41485L30.9189 9.06171L30.9532 9.10285L30.5452 9.41485Z" fill="#FFFFFE"/>
<path fill-rule="evenodd" clip-rule="evenodd" d="M30.9532 9.10291L31.2789 9.53491L30.8675 9.84348L30.4561 10.152L30.1338 9.72348L30.5452 9.41491L30.9532 9.10291Z" fill="#FFFFFE"/>
<path fill-rule="evenodd" clip-rule="evenodd" d="M30.8674 9.84342L31.2789 9.53485L31.3132 9.58628L30.8674 9.84342Z" fill="#FFFFFE"/>
<path fill-rule="evenodd" clip-rule="evenodd" d="M31.3133 9.5863L31.5499 9.9943L31.1042 10.2514L30.6584 10.5086L30.4219 10.1006L30.8676 9.84345L31.3133 9.5863Z" fill="#FFFFFE"/>
<path fill-rule="evenodd" clip-rule="evenodd" d="M31.104 10.2515L31.5497 9.99432L31.5806 10.0595L31.104 10.2515Z" fill="#FFFFFE"/>
<path fill-rule="evenodd" clip-rule="evenodd" d="M31.5806 10.0594L31.7383 10.4434L31.2617 10.6389L30.7852 10.8309L30.6274 10.4434L31.104 10.2514L31.5806 10.0594Z" fill="#FFFFFE"/>
<path fill-rule="evenodd" clip-rule="evenodd" d="M31.2617 10.6389L31.7383 10.4434L31.7554 10.5017L31.2617 10.6389Z" fill="#FFFFFE"/>
<path fill-rule="evenodd" clip-rule="evenodd" d="M31.7555 10.5017L31.8069 10.6869L31.3098 10.824L30.8161 10.9577L30.7646 10.7726L31.2618 10.6389L31.7555 10.5017Z" fill="#FFFFFE"/>
<path fill-rule="evenodd" clip-rule="evenodd" d="M31.3098 10.824L31.807 10.6869L31.8172 10.728L31.3098 10.824Z" fill="#FFFFFE"/>
<path fill-rule="evenodd" clip-rule="evenodd" d="M31.8171 10.728L31.8514 10.9063L31.344 11.0023L30.8399 11.0949L30.8057 10.9166L31.3097 10.824L31.8171 10.728Z" fill="#FFFFFE"/>
<path fill-rule="evenodd" clip-rule="evenodd" d="M31.344 11.0023L31.8514 10.9063L31.8549 10.9475L31.344 11.0023Z" fill="#FFFFFE"/>
<path fill-rule="evenodd" clip-rule="evenodd" d="M31.855 10.9474L31.8755 11.1223L31.3613 11.1737L30.8504 11.2252L30.8333 11.0537L31.3441 11.0023L31.855 10.9474Z" fill="#FFFFFE"/>
<path fill-rule="evenodd" clip-rule="evenodd" d="M31.3611 11.1737L31.8754 11.1223V11.1669L31.3611 11.1737Z" fill="#FFFFFE"/>
<path fill-rule="evenodd" clip-rule="evenodd" d="M31.8755 11.1669L31.8789 11.3314L31.3646 11.3417L30.8504 11.3486L30.8469 11.1806L31.3612 11.1737L31.8755 11.1669Z" fill="#FFFFFE"/>
<path fill-rule="evenodd" clip-rule="evenodd" d="M31.3645 11.3417L31.8788 11.3314V11.376L31.3645 11.3417Z" fill="#FFFFFE"/>
<path fill-rule="evenodd" clip-rule="evenodd" d="M31.879 11.376L31.8687 11.5372L31.3544 11.4994L30.8401 11.4652L30.8538 11.304L31.3647 11.3417L31.879 11.376Z" fill="#FFFFFE"/>
<path fill-rule="evenodd" clip-rule="evenodd" d="M31.3542 11.4995L31.8685 11.5372L31.8617 11.5817L31.3542 11.4995Z" fill="#FFFFFE"/>
<path fill-rule="evenodd" clip-rule="evenodd" d="M31.8619 11.5817L31.8379 11.736L31.3304 11.6537L30.823 11.5749L30.847 11.4206L31.3544 11.4995L31.8619 11.5817Z" fill="#FFFFFE"/>
<path fill-rule="evenodd" clip-rule="evenodd" d="M31.3303 11.6537L31.8377 11.736L31.8309 11.7772L31.3303 11.6537Z" fill="#FFFFFE"/>
<path fill-rule="evenodd" clip-rule="evenodd" d="M31.8308 11.7772L31.7931 11.9246L31.2926 11.8012L30.7954 11.6812L30.8297 11.5338L31.3303 11.6538L31.8308 11.7772Z" fill="#FFFFFE"/>
<path fill-rule="evenodd" clip-rule="evenodd" d="M31.2925 11.8011L31.793 11.9246L31.7828 11.9657L31.2925 11.8011Z" fill="#FFFFFE"/>
<path fill-rule="evenodd" clip-rule="evenodd" d="M31.783 11.9657L31.735 12.1063L31.2481 11.9417L30.7578 11.7806L30.8058 11.64L31.2927 11.8012L31.783 11.9657Z" fill="#FFFFFE"/>
<path fill-rule="evenodd" clip-rule="evenodd" d="M31.248 11.9417L31.7349 12.1063L31.7109 12.1611L31.248 11.9417Z" fill="#FFFFFE"/>
<path fill-rule="evenodd" clip-rule="evenodd" d="M31.7108 12.1611L31.5874 12.4251L31.1245 12.2057L30.6582 11.9863L30.7816 11.7257L31.2479 11.9417L31.7108 12.1611Z" fill="#FFFFFE"/>
<path fill-rule="evenodd" clip-rule="evenodd" d="M31.1245 12.2057L31.5874 12.4252L31.5531 12.4903L31.1245 12.2057Z" fill="#FFFFFE"/>
<path fill-rule="evenodd" clip-rule="evenodd" d="M31.5532 12.4903L31.3955 12.7234L30.9669 12.4389L30.5383 12.1543L30.696 11.9211L31.1246 12.2057L31.5532 12.4903Z" fill="#FFFFFE"/>
<path fill-rule="evenodd" clip-rule="evenodd" d="M30.967 12.4388L31.3956 12.7234L31.3545 12.7783L30.967 12.4388Z" fill="#FFFFFE"/>
<path fill-rule="evenodd" clip-rule="evenodd" d="M31.3543 12.7783L31.176 12.984L30.7886 12.6446L30.4011 12.3051L30.5794 12.0994L30.9668 12.4389L31.3543 12.7783Z" fill="#FFFFFE"/>
<path fill-rule="evenodd" clip-rule="evenodd" d="M30.7886 12.6446L31.176 12.984L31.1314 13.0252L30.7886 12.6446Z" fill="#FFFFFE"/>
<path fill-rule="evenodd" clip-rule="evenodd" d="M31.1314 13.0251L30.936 13.2034L30.5931 12.8194L30.2502 12.4354L30.4457 12.2606L30.7885 12.6446L31.1314 13.0251Z" fill="#FFFFFE"/>
<path fill-rule="evenodd" clip-rule="evenodd" d="M30.5933 12.8195L30.9361 13.2035L30.8915 13.2377L30.5933 12.8195Z" fill="#FFFFFE"/>
<path fill-rule="evenodd" clip-rule="evenodd" d="M30.8914 13.2378L30.6891 13.3818L30.3908 12.9635L30.0925 12.5452L30.2948 12.4012L30.5931 12.8195L30.8914 13.2378Z" fill="#FFFFFE"/>
<path fill-rule="evenodd" clip-rule="evenodd" d="M30.3909 12.9634L30.6892 13.3817L30.672 13.3954L30.3909 12.9634Z" fill="#FFFFFE"/>
<path fill-rule="evenodd" clip-rule="evenodd" d="M30.6719 13.3954L29.8696 13.9166L29.5885 13.4846L29.3108 13.0526L30.1096 12.5314L30.3908 12.9634L30.6719 13.3954Z" fill="#FFFFFE"/>
<path fill-rule="evenodd" clip-rule="evenodd" d="M29.5886 13.4846L29.28 13.0732L29.3109 13.0526L29.5886 13.4846Z" fill="#FFFFFE"/>
<path fill-rule="evenodd" clip-rule="evenodd" d="M29.9005 13.8926L29.5337 14.1738L29.2217 13.7658L28.9097 13.3543L29.28 13.0732L29.5885 13.4846L29.9005 13.8926Z" fill="#FFFFFE"/>
<path fill-rule="evenodd" clip-rule="evenodd" d="M29.2218 13.7657L28.8823 13.3783L28.9098 13.3543L29.2218 13.7657Z" fill="#FFFFFE"/>
<path fill-rule="evenodd" clip-rule="evenodd" d="M29.5612 14.1532L29.3898 14.3006L29.0504 13.9132L28.7144 13.5257L28.8824 13.3783L29.2218 13.7657L29.5612 14.1532Z" fill="#FFFFFE"/>
<path fill-rule="evenodd" clip-rule="evenodd" d="M29.0504 13.9132L28.6904 13.5463L28.7144 13.5258L29.0504 13.9132Z" fill="#FFFFFE"/>
<path fill-rule="evenodd" clip-rule="evenodd" d="M29.4104 14.28L29.2527 14.4378L28.8927 14.0709L28.5327 13.7006L28.6904 13.5463L29.0504 13.9132L29.4104 14.28Z" fill="#FFFFFE"/>
<path fill-rule="evenodd" clip-rule="evenodd" d="M28.8925 14.0708L28.5085 13.7246L28.5325 13.7006L28.8925 14.0708Z" fill="#FFFFFE"/>
<path fill-rule="evenodd" clip-rule="evenodd" d="M29.2768 14.4138L29.1293 14.5749L28.7453 14.232L28.3613 13.8892L28.5088 13.7246L28.8928 14.0709L29.2768 14.4138Z" fill="#FFFFFE"/>
<path fill-rule="evenodd" clip-rule="evenodd" d="M28.7452 14.232L28.3372 13.92L28.3612 13.8892L28.7452 14.232Z" fill="#FFFFFE"/>
<path fill-rule="evenodd" clip-rule="evenodd" d="M29.1531 14.544L29.0228 14.7189L28.6114 14.4069L28.2034 14.0949L28.3371 13.92L28.7451 14.232L29.1531 14.544Z" fill="#FFFFFE"/>
<path fill-rule="evenodd" clip-rule="evenodd" d="M28.6114 14.4068L28.1794 14.1291L28.2034 14.0948L28.6114 14.4068Z" fill="#FFFFFE"/>
<path fill-rule="evenodd" clip-rule="evenodd" d="M29.047 14.6812L28.9304 14.8663L28.495 14.5886L28.063 14.3143L28.1796 14.1292L28.6116 14.4069L29.047 14.6812Z" fill="#FFFFFE"/>
<path fill-rule="evenodd" clip-rule="evenodd" d="M28.4948 14.5886L28.0388 14.3555L28.0628 14.3143L28.4948 14.5886Z" fill="#FFFFFE"/>
<path fill-rule="evenodd" clip-rule="evenodd" d="M28.9543 14.8218L28.8549 15.0172L28.3989 14.784L27.9395 14.5509L28.0389 14.3555L28.4949 14.5886L28.9543 14.8218Z" fill="#FFFFFE"/>
<path fill-rule="evenodd" clip-rule="evenodd" d="M28.3989 14.784L27.9189 14.5989L27.9395 14.5509L28.3989 14.784Z" fill="#FFFFFE"/>
<path fill-rule="evenodd" clip-rule="evenodd" d="M28.8789 14.9692L28.7967 15.1749L28.3167 14.9897L27.8401 14.8046L27.9189 14.5989L28.3989 14.784L28.8789 14.9692Z" fill="#FFFFFE"/>
<path fill-rule="evenodd" clip-rule="evenodd" d="M28.3165 14.9897L27.8228 14.856L27.8399 14.8046L28.3165 14.9897Z" fill="#FFFFFE"/>
<path fill-rule="evenodd" clip-rule="evenodd" d="M28.8138 15.1234L28.7555 15.3429L28.2584 15.2092L27.7612 15.0754L27.8229 14.856L28.3167 14.9897L28.8138 15.1234Z" fill="#FFFFFE"/>
<path fill-rule="evenodd" clip-rule="evenodd" d="M28.2584 15.2092L27.751 15.1303L27.7613 15.0754L28.2584 15.2092Z" fill="#FFFFFE"/>
<path fill-rule="evenodd" clip-rule="evenodd" d="M28.7657 15.288L28.7314 15.5212L28.224 15.4423L27.7131 15.36L27.7508 15.1303L28.2583 15.2092L28.7657 15.288Z" fill="#FFFFFE"/>
<path fill-rule="evenodd" clip-rule="evenodd" d="M28.224 15.4423L27.7097 15.4149L27.7131 15.36L28.224 15.4423Z" fill="#FFFFFE"/>
<path fill-rule="evenodd" clip-rule="evenodd" d="M28.7349 15.4663L28.7246 15.7166L28.2103 15.6891L27.696 15.6617L27.7098 15.4149L28.224 15.4423L28.7349 15.4663Z" fill="#FFFFFE"/>
<path fill-rule="evenodd" clip-rule="evenodd" d="M28.2103 15.6892L27.696 15.7132V15.6617L28.2103 15.6892Z" fill="#FFFFFE"/>
<path fill-rule="evenodd" clip-rule="evenodd" d="M28.7246 15.6652L28.7315 15.792L28.2172 15.816L27.7029 15.8434L27.696 15.7132L28.2103 15.6892L28.7246 15.6652Z" fill="#FFFFFE"/>
<path fill-rule="evenodd" clip-rule="evenodd" d="M28.2172 15.816L27.7063 15.888L27.7029 15.8435L28.2172 15.816Z" fill="#FFFFFE"/>
<path fill-rule="evenodd" clip-rule="evenodd" d="M28.7246 15.744L28.7452 15.8709L28.2343 15.9429L27.7269 16.0183L27.7063 15.888L28.2172 15.816L28.7246 15.744Z" fill="#FFFFFE"/>
<path fill-rule="evenodd" clip-rule="evenodd" d="M28.2342 15.9429L27.7371 16.08L27.7268 16.0183L28.2342 15.9429Z" fill="#FFFFFE"/>
<path fill-rule="evenodd" clip-rule="evenodd" d="M28.7316 15.8091L28.8002 16.0629L28.303 16.1966L27.8093 16.3337L27.7373 16.08L28.2344 15.9429L28.7316 15.8091Z" fill="#FFFFFE"/>
<path fill-rule="evenodd" clip-rule="evenodd" d="M28.3028 16.1966L27.8331 16.4023L27.8091 16.3337L28.3028 16.1966Z" fill="#FFFFFE"/>
<path fill-rule="evenodd" clip-rule="evenodd" d="M28.7761 15.9943L28.8824 16.2412L28.4127 16.4469L27.9395 16.6492L27.8333 16.4023L28.303 16.1966L28.7761 15.9943Z" fill="#FFFFFE"/>
<path fill-rule="evenodd" clip-rule="evenodd" d="M28.4126 16.4469L27.9669 16.7006L27.9395 16.6492L28.4126 16.4469Z" fill="#FFFFFE"/>
<path fill-rule="evenodd" clip-rule="evenodd" d="M28.8582 16.1898L28.9988 16.4332L28.5497 16.6903L28.1039 16.944L27.9668 16.7006L28.4125 16.4469L28.8582 16.1898Z" fill="#FFFFFE"/>
<path fill-rule="evenodd" clip-rule="evenodd" d="M28.5497 16.6903L28.1314 16.9852L28.104 16.944L28.5497 16.6903Z" fill="#FFFFFE"/>
<path fill-rule="evenodd" clip-rule="evenodd" d="M28.9716 16.3954L29.1362 16.6286L28.7179 16.9269L28.2962 17.2217L28.1316 16.9852L28.5499 16.6903L28.9716 16.3954Z" fill="#FFFFFE"/>
<path fill-rule="evenodd" clip-rule="evenodd" d="M28.7176 16.9269L28.3165 17.2492L28.2959 17.2217L28.7176 16.9269Z" fill="#FFFFFE"/>
<path fill-rule="evenodd" clip-rule="evenodd" d="M29.1155 16.6011L29.2972 16.824L28.8995 17.1497L28.5018 17.4754L28.3167 17.2491L28.7178 16.9269L29.1155 16.6011Z" fill="#FFFFFE"/>
<path fill-rule="evenodd" clip-rule="evenodd" d="M28.8994 17.1497L28.5291 17.5097L28.5017 17.4754L28.8994 17.1497Z" fill="#FFFFFE"/>
<path fill-rule="evenodd" clip-rule="evenodd" d="M29.2699 16.7932L29.671 17.208L29.3007 17.5646L28.9304 17.9212L28.5293 17.5097L28.8996 17.1497L29.2699 16.7932Z" fill="#FFFFFE"/>
<path fill-rule="evenodd" clip-rule="evenodd" d="M29.3007 17.5646L28.9613 17.952L28.9304 17.9211L29.3007 17.5646Z" fill="#FFFFFE"/>
<path fill-rule="evenodd" clip-rule="evenodd" d="M29.64 17.1772L30.0378 17.5269L29.7018 17.9143L29.3623 18.3018L28.9612 17.952L29.3006 17.5646L29.64 17.1772Z" fill="#FFFFFE"/>
<path fill-rule="evenodd" clip-rule="evenodd" d="M29.7017 17.9143L29.3863 18.3223L29.3623 18.3017L29.7017 17.9143Z" fill="#FFFFFE"/>
<path fill-rule="evenodd" clip-rule="evenodd" d="M30.0137 17.5063L30.3634 17.7771L30.0514 18.1817L29.7359 18.5897L29.3862 18.3223L29.7017 17.9143L30.0137 17.5063Z" fill="#FFFFFE"/>
<path fill-rule="evenodd" clip-rule="evenodd" d="M30.0515 18.1818L29.7532 18.6035L29.7361 18.5898L30.0515 18.1818Z" fill="#FFFFFE"/>
<path fill-rule="evenodd" clip-rule="evenodd" d="M30.3463 17.7634L30.5932 17.9349L30.2983 18.3566L30 18.7783L29.7532 18.6034L30.0515 18.1817L30.3463 17.7634Z" fill="#FFFFFE"/>
<path fill-rule="evenodd" clip-rule="evenodd" d="M30.2983 18.3566L30.0137 18.7851L30 18.7783L30.2983 18.3566Z" fill="#FFFFFE"/>
<path fill-rule="evenodd" clip-rule="evenodd" d="M30.5794 17.928L30.6514 17.9726L30.3668 18.4012L30.0822 18.8332L30.0137 18.7852L30.2982 18.3566L30.5794 17.928Z" fill="#FFFFFE"/>
<path fill-rule="evenodd" clip-rule="evenodd" d="M30.3669 18.4012L30.0891 18.8366L30.0823 18.8332L30.3669 18.4012Z" fill="#FFFFFE"/>
<path fill-rule="evenodd" clip-rule="evenodd" d="M30.6445 17.9692L30.6617 17.9829L30.384 18.4149L30.1063 18.8469L30.0891 18.8366L30.3668 18.4012L30.6445 17.9692Z" fill="#FFFFFE"/>
<path fill-rule="evenodd" clip-rule="evenodd" d="M30.3839 18.4149L30.1096 18.8469H30.1062L30.3839 18.4149Z" fill="#FFFFFE"/>
<path fill-rule="evenodd" clip-rule="evenodd" d="M30.6619 17.9794L30.6653 17.9829L30.391 18.4183L30.1133 18.8503L30.1099 18.8469L30.3841 18.4149L30.6619 17.9794Z" fill="#FFFFFE"/>
<path fill-rule="evenodd" clip-rule="evenodd" d="M30.391 18.4183L30.1133 18.8537V18.8503L30.391 18.4183Z" fill="#FFFFFE"/>
<path fill-rule="evenodd" clip-rule="evenodd" d="M30.6653 17.9828L30.391 18.4183L30.1167 18.8537H30.1133L30.391 18.4183L30.6653 17.9828Z" fill="#FFFFFE"/>
<path fill-rule="evenodd" clip-rule="evenodd" d="M30.391 18.4183L30.1167 18.8537L30.391 18.4183Z" fill="#FFFFFE"/>
<path fill-rule="evenodd" clip-rule="evenodd" d="M30.6653 17.9828L30.391 18.4183L30.1167 18.8537L30.391 18.4183L30.6653 17.9828Z" fill="#FFFFFE"/>
<path fill-rule="evenodd" clip-rule="evenodd" d="M30.391 18.4183L30.1167 18.8537L30.391 18.4183Z" fill="#FFFFFE"/>
<path fill-rule="evenodd" clip-rule="evenodd" d="M30.6653 17.9828L30.391 18.4183L30.1167 18.8537L30.391 18.4183L30.6653 17.9828Z" fill="#FFFFFE"/>
<path fill-rule="evenodd" clip-rule="evenodd" d="M30.391 18.4183L30.1167 18.8537L30.391 18.4183Z" fill="#FFFFFE"/>
<path fill-rule="evenodd" clip-rule="evenodd" d="M30.6653 17.9828L30.391 18.4183L30.1167 18.8537L30.391 18.4183L30.6653 17.9828Z" fill="#FFFFFE"/>
<path fill-rule="evenodd" clip-rule="evenodd" d="M35.0401 7.08002L35.7944 7.58402L35.5098 8.01259L35.2252 8.44116L34.4709 7.93716L34.7555 7.50859L35.0401 7.08002Z" fill="#FFFFFE"/>
<path fill-rule="evenodd" clip-rule="evenodd" d="M35.5098 8.01262L35.7943 7.58405L35.8218 7.60462L35.5098 8.01262Z" fill="#FFFFFE"/>
<path fill-rule="evenodd" clip-rule="evenodd" d="M35.8218 7.60461L36.4595 8.08804L36.1475 8.49604L35.832 8.90747L35.1978 8.42061L35.5098 8.01261L35.8218 7.60461Z" fill="#FFFFFE"/>
<path fill-rule="evenodd" clip-rule="evenodd" d="M36.1475 8.49601L36.4595 8.08801L36.4903 8.11544L36.1475 8.49601Z" fill="#FFFFFE"/>
<path fill-rule="evenodd" clip-rule="evenodd" d="M36.4904 8.11542L37.0115 8.5817L36.6687 8.9657L36.3258 9.3497L35.8047 8.87999L36.1475 8.49599L36.4904 8.11542Z" fill="#FFFFFE"/>
<path fill-rule="evenodd" clip-rule="evenodd" d="M36.6687 8.96573L37.0116 8.58173L37.0459 8.61258L36.6687 8.96573Z" fill="#FFFFFE"/>
<path fill-rule="evenodd" clip-rule="evenodd" d="M37.0458 8.61261L37.4641 9.06175L37.0904 9.4149L36.7132 9.76461L36.2949 9.31547L36.6686 8.96575L37.0458 8.61261Z" fill="#FFFFFE"/>
<path fill-rule="evenodd" clip-rule="evenodd" d="M37.0903 9.41485L37.464 9.06171L37.4983 9.10285L37.0903 9.41485Z" fill="#FFFFFE"/>
<path fill-rule="evenodd" clip-rule="evenodd" d="M37.4984 9.10291L37.8241 9.53491L37.4127 9.84348L37.0012 10.152L36.679 9.72348L37.0904 9.41491L37.4984 9.10291Z" fill="#FFFFFE"/>
<path fill-rule="evenodd" clip-rule="evenodd" d="M37.4126 9.84342L37.824 9.53485L37.8583 9.58628L37.4126 9.84342Z" fill="#FFFFFE"/>
<path fill-rule="evenodd" clip-rule="evenodd" d="M37.8585 9.5863L38.095 9.9943L37.6493 10.2514L37.2036 10.5086L36.967 10.1006L37.4128 9.84345L37.8585 9.5863Z" fill="#FFFFFE"/>
<path fill-rule="evenodd" clip-rule="evenodd" d="M37.6492 10.2515L38.0949 9.99432L38.1257 10.0595L37.6492 10.2515Z" fill="#FFFFFE"/>
<path fill-rule="evenodd" clip-rule="evenodd" d="M38.1258 10.0594L38.2835 10.4434L37.8069 10.6389L37.3303 10.8309L37.1726 10.4434L37.6492 10.2514L38.1258 10.0594Z" fill="#FFFFFE"/>
<path fill-rule="evenodd" clip-rule="evenodd" d="M37.8069 10.6389L38.2835 10.4434L38.3006 10.5017L37.8069 10.6389Z" fill="#FFFFFE"/>
<path fill-rule="evenodd" clip-rule="evenodd" d="M38.3007 10.5017L38.3521 10.6869L37.855 10.824L37.3612 10.9577L37.3098 10.7726L37.807 10.6389L38.3007 10.5017Z" fill="#FFFFFE"/>
<path fill-rule="evenodd" clip-rule="evenodd" d="M37.855 10.824L38.3521 10.6869L38.3624 10.728L37.855 10.824Z" fill="#FFFFFE"/>
<path fill-rule="evenodd" clip-rule="evenodd" d="M38.3623 10.728L38.3965 10.9063L37.8891 11.0023L37.3851 11.0949L37.3508 10.9166L37.8548 10.824L38.3623 10.728Z" fill="#FFFFFE"/>
<path fill-rule="evenodd" clip-rule="evenodd" d="M37.8892 11.0023L38.3966 10.9063L38.4 10.9475L37.8892 11.0023Z" fill="#FFFFFE"/>
<path fill-rule="evenodd" clip-rule="evenodd" d="M38.4001 10.9474L38.4207 11.1223L37.9064 11.1737L37.3956 11.2252L37.3784 11.0537L37.8893 11.0023L38.4001 10.9474Z" fill="#FFFFFE"/>
<path fill-rule="evenodd" clip-rule="evenodd" d="M37.9062 11.1737L38.4205 11.1223V11.1669L37.9062 11.1737Z" fill="#FFFFFE"/>
<path fill-rule="evenodd" clip-rule="evenodd" d="M38.4207 11.1669L38.4241 11.3314L37.9098 11.3417L37.3955 11.3486L37.3921 11.1806L37.9064 11.1737L38.4207 11.1669Z" fill="#FFFFFE"/>
<path fill-rule="evenodd" clip-rule="evenodd" d="M37.9099 11.3417L38.4242 11.3314V11.376L37.9099 11.3417Z" fill="#FFFFFE"/>
<path fill-rule="evenodd" clip-rule="evenodd" d="M38.4241 11.376L38.4138 11.5372L37.8995 11.4994L37.3853 11.4652L37.399 11.304L37.9098 11.3417L38.4241 11.376Z" fill="#FFFFFE"/>
<path fill-rule="evenodd" clip-rule="evenodd" d="M37.8994 11.4995L38.4137 11.5372L38.4069 11.5817L37.8994 11.4995Z" fill="#FFFFFE"/>
<path fill-rule="evenodd" clip-rule="evenodd" d="M38.407 11.5817L38.383 11.736L37.8756 11.6537L37.3682 11.5749L37.3922 11.4206L37.8996 11.4995L38.407 11.5817Z" fill="#FFFFFE"/>
<path fill-rule="evenodd" clip-rule="evenodd" d="M37.8755 11.6537L38.3829 11.736L38.3761 11.7772L37.8755 11.6537Z" fill="#FFFFFE"/>
<path fill-rule="evenodd" clip-rule="evenodd" d="M38.376 11.7772L38.3383 11.9246L37.8377 11.8012L37.3406 11.6812L37.3749 11.5338L37.8754 11.6538L38.376 11.7772Z" fill="#FFFFFE"/>
<path fill-rule="evenodd" clip-rule="evenodd" d="M37.8379 11.8011L38.3385 11.9246L38.3282 11.9657L37.8379 11.8011Z" fill="#FFFFFE"/>
<path fill-rule="evenodd" clip-rule="evenodd" d="M38.3281 11.9657L38.2801 12.1063L37.7933 11.9417L37.303 11.7806L37.351 11.64L37.8378 11.8012L38.3281 11.9657Z" fill="#FFFFFE"/>
<path fill-rule="evenodd" clip-rule="evenodd" d="M37.7932 11.9417L38.2801 12.1063L38.2561 12.1611L37.7932 11.9417Z" fill="#FFFFFE"/>
<path fill-rule="evenodd" clip-rule="evenodd" d="M38.2562 12.1611L38.1328 12.4251L37.6699 12.2057L37.2036 11.9863L37.327 11.7257L37.7933 11.9417L38.2562 12.1611Z" fill="#FFFFFE"/>
<path fill-rule="evenodd" clip-rule="evenodd" d="M37.6697 12.2057L38.1325 12.4252L38.0983 12.4903L37.6697 12.2057Z" fill="#FFFFFE"/>
<path fill-rule="evenodd" clip-rule="evenodd" d="M38.0984 12.4903L37.9406 12.7234L37.5121 12.4389L37.0835 12.1543L37.2412 11.9211L37.6698 12.2057L38.0984 12.4903Z" fill="#FFFFFE"/>
<path fill-rule="evenodd" clip-rule="evenodd" d="M37.512 12.4388L37.9405 12.7234L37.8994 12.7783L37.512 12.4388Z" fill="#FFFFFE"/>
<path fill-rule="evenodd" clip-rule="evenodd" d="M37.8994 12.7783L37.7211 12.984L37.3337 12.6446L36.9463 12.3051L37.1246 12.0994L37.512 12.4389L37.8994 12.7783Z" fill="#FFFFFE"/>
<path fill-rule="evenodd" clip-rule="evenodd" d="M37.3337 12.6446L37.7212 12.984L37.6766 13.0252L37.3337 12.6446Z" fill="#FFFFFE"/>
<path fill-rule="evenodd" clip-rule="evenodd" d="M37.6766 13.0251L37.4811 13.2034L37.1383 12.8194L36.7954 12.4354L36.9908 12.2606L37.3337 12.6446L37.6766 13.0251Z" fill="#FFFFFE"/>
<path fill-rule="evenodd" clip-rule="evenodd" d="M37.1384 12.8195L37.4813 13.2035L37.4367 13.2377L37.1384 12.8195Z" fill="#FFFFFE"/>
<path fill-rule="evenodd" clip-rule="evenodd" d="M37.4365 13.2378L37.2343 13.3818L36.936 12.9635L36.6377 12.5452L36.84 12.4012L37.1383 12.8195L37.4365 13.2378Z" fill="#FFFFFE"/>
<path fill-rule="evenodd" clip-rule="evenodd" d="M36.936 12.9634L37.2343 13.3817L37.2172 13.3954L36.936 12.9634Z" fill="#FFFFFE"/>
<path fill-rule="evenodd" clip-rule="evenodd" d="M37.2171 13.3954L36.4148 13.9166L36.1337 13.4846L35.856 13.0526L36.6548 12.5314L36.936 12.9634L37.2171 13.3954Z" fill="#FFFFFE"/>
<path fill-rule="evenodd" clip-rule="evenodd" d="M36.1338 13.4846L35.8252 13.0732L35.8561 13.0526L36.1338 13.4846Z" fill="#FFFFFE"/>
<path fill-rule="evenodd" clip-rule="evenodd" d="M36.4457 13.8926L36.0788 14.1738L35.7668 13.7658L35.4548 13.3543L35.8251 13.0732L36.1337 13.4846L36.4457 13.8926Z" fill="#FFFFFE"/>
<path fill-rule="evenodd" clip-rule="evenodd" d="M35.7669 13.7657L35.4275 13.3783L35.4549 13.3543L35.7669 13.7657Z" fill="#FFFFFE"/>
<path fill-rule="evenodd" clip-rule="evenodd" d="M36.1064 14.1532L35.935 14.3006L35.5955 13.9132L35.2595 13.5257L35.4275 13.3783L35.767 13.7657L36.1064 14.1532Z" fill="#FFFFFE"/>
<path fill-rule="evenodd" clip-rule="evenodd" d="M35.5956 13.9132L35.2356 13.5463L35.2596 13.5258L35.5956 13.9132Z" fill="#FFFFFE"/>
<path fill-rule="evenodd" clip-rule="evenodd" d="M35.9556 14.28L35.7979 14.4378L35.4379 14.0709L35.0779 13.7006L35.2356 13.5463L35.5956 13.9132L35.9556 14.28Z" fill="#FFFFFE"/>
<path fill-rule="evenodd" clip-rule="evenodd" d="M35.4377 14.0708L35.0537 13.7246L35.0777 13.7006L35.4377 14.0708Z" fill="#FFFFFE"/>
<path fill-rule="evenodd" clip-rule="evenodd" d="M35.8219 14.4138L35.6745 14.5749L35.2905 14.232L34.9065 13.8892L35.0539 13.7246L35.4379 14.0709L35.8219 14.4138Z" fill="#FFFFFE"/>
<path fill-rule="evenodd" clip-rule="evenodd" d="M35.2903 14.232L34.8823 13.92L34.9063 13.8892L35.2903 14.232Z" fill="#FFFFFE"/>
<path fill-rule="evenodd" clip-rule="evenodd" d="M35.6983 14.544L35.568 14.7189L35.1565 14.4069L34.7485 14.0949L34.8823 13.92L35.2903 14.232L35.6983 14.544Z" fill="#FFFFFE"/>
<path fill-rule="evenodd" clip-rule="evenodd" d="M35.1566 14.4068L34.7246 14.1291L34.7486 14.0948L35.1566 14.4068Z" fill="#FFFFFE"/>
<path fill-rule="evenodd" clip-rule="evenodd" d="M35.5922 14.6812L35.4756 14.8663L35.0402 14.5886L34.6082 14.3143L34.7247 14.1292L35.1567 14.4069L35.5922 14.6812Z" fill="#FFFFFE"/>
<path fill-rule="evenodd" clip-rule="evenodd" d="M35.04 14.5886L34.584 14.3555L34.608 14.3143L35.04 14.5886Z" fill="#FFFFFE"/>
<path fill-rule="evenodd" clip-rule="evenodd" d="M35.4995 14.8218L35.4 15.0172L34.944 14.784L34.4846 14.5509L34.584 14.3555L35.04 14.5886L35.4995 14.8218Z" fill="#FFFFFE"/>
<path fill-rule="evenodd" clip-rule="evenodd" d="M34.9441 14.784L34.4641 14.5989L34.4847 14.5509L34.9441 14.784Z" fill="#FFFFFE"/>
<path fill-rule="evenodd" clip-rule="evenodd" d="M35.4241 14.9692L35.3418 15.1749L34.8618 14.9897L34.3853 14.8046L34.4641 14.5989L34.9441 14.784L35.4241 14.9692Z" fill="#FFFFFE"/>
<path fill-rule="evenodd" clip-rule="evenodd" d="M34.8619 14.9897L34.3682 14.856L34.3853 14.8046L34.8619 14.9897Z" fill="#FFFFFE"/>
<path fill-rule="evenodd" clip-rule="evenodd" d="M35.359 15.1234L35.3007 15.3429L34.8035 15.2092L34.3064 15.0754L34.3681 14.856L34.8618 14.9897L35.359 15.1234Z" fill="#FFFFFE"/>
<path fill-rule="evenodd" clip-rule="evenodd" d="M34.8036 15.2092L34.2961 15.1303L34.3064 15.0754L34.8036 15.2092Z" fill="#FFFFFE"/>
<path fill-rule="evenodd" clip-rule="evenodd" d="M35.3109 15.288L35.2766 15.5212L34.7692 15.4423L34.2583 15.36L34.296 15.1303L34.8034 15.2092L35.3109 15.288Z" fill="#FFFFFE"/>
<path fill-rule="evenodd" clip-rule="evenodd" d="M34.7692 15.4423L34.2549 15.4149L34.2583 15.36L34.7692 15.4423Z" fill="#FFFFFE"/>
<path fill-rule="evenodd" clip-rule="evenodd" d="M35.2801 15.4663L35.2698 15.7166L34.7555 15.6891L34.2412 15.6617L34.2549 15.4149L34.7692 15.4423L35.2801 15.4663Z" fill="#FFFFFE"/>
<path fill-rule="evenodd" clip-rule="evenodd" d="M34.7555 15.6892L34.2412 15.7132V15.6617L34.7555 15.6892Z" fill="#FFFFFE"/>
<path fill-rule="evenodd" clip-rule="evenodd" d="M35.2698 15.6652L35.2766 15.792L34.7624 15.816L34.2481 15.8434L34.2412 15.7132L34.7555 15.6892L35.2698 15.6652Z" fill="#FFFFFE"/>
<path fill-rule="evenodd" clip-rule="evenodd" d="M34.7623 15.816L34.2515 15.888L34.248 15.8435L34.7623 15.816Z" fill="#FFFFFE"/>
<path fill-rule="evenodd" clip-rule="evenodd" d="M35.2698 15.744L35.2903 15.8709L34.7795 15.9429L34.272 16.0183L34.2515 15.888L34.7623 15.816L35.2698 15.744Z" fill="#FFFFFE"/>
<path fill-rule="evenodd" clip-rule="evenodd" d="M34.7794 15.9429L34.2823 16.08L34.272 16.0183L34.7794 15.9429Z" fill="#FFFFFE"/>
<path fill-rule="evenodd" clip-rule="evenodd" d="M35.2768 15.8091L35.3453 16.0629L34.8482 16.1966L34.3545 16.3337L34.2825 16.08L34.7796 15.9429L35.2768 15.8091Z" fill="#FFFFFE"/>
<path fill-rule="evenodd" clip-rule="evenodd" d="M34.848 16.1966L34.3782 16.4023L34.3542 16.3337L34.848 16.1966Z" fill="#FFFFFE"/>
<path fill-rule="evenodd" clip-rule="evenodd" d="M35.3213 15.9943L35.4276 16.2412L34.9578 16.4469L34.4847 16.6492L34.3784 16.4023L34.8481 16.1966L35.3213 15.9943Z" fill="#FFFFFE"/>
<path fill-rule="evenodd" clip-rule="evenodd" d="M34.9578 16.4469L34.512 16.7006L34.4846 16.6492L34.9578 16.4469Z" fill="#FFFFFE"/>
<path fill-rule="evenodd" clip-rule="evenodd" d="M35.4034 16.1898L35.544 16.4332L35.0948 16.6903L34.6491 16.944L34.512 16.7006L34.9577 16.4469L35.4034 16.1898Z" fill="#FFFFFE"/>
<path fill-rule="evenodd" clip-rule="evenodd" d="M35.0949 16.6903L34.6766 16.9852L34.6492 16.944L35.0949 16.6903Z" fill="#FFFFFE"/>
<path fill-rule="evenodd" clip-rule="evenodd" d="M35.5165 16.3954L35.6811 16.6286L35.2628 16.9269L34.8411 17.2217L34.6765 16.9852L35.0948 16.6903L35.5165 16.3954Z" fill="#FFFFFE"/>
<path fill-rule="evenodd" clip-rule="evenodd" d="M35.263 16.9269L34.8619 17.2492L34.8413 17.2217L35.263 16.9269Z" fill="#FFFFFE"/>
<path fill-rule="evenodd" clip-rule="evenodd" d="M35.6607 16.6011L35.8424 16.824L35.4447 17.1497L35.047 17.4754L34.8618 17.2491L35.263 16.9269L35.6607 16.6011Z" fill="#FFFFFE"/>
<path fill-rule="evenodd" clip-rule="evenodd" d="M35.4446 17.1497L35.0743 17.5097L35.0469 17.4754L35.4446 17.1497Z" fill="#FFFFFE"/>
<path fill-rule="evenodd" clip-rule="evenodd" d="M35.815 16.7932L36.2162 17.208L35.8459 17.5646L35.4756 17.9212L35.0745 17.5097L35.4447 17.1497L35.815 16.7932Z" fill="#FFFFFE"/>
<path fill-rule="evenodd" clip-rule="evenodd" d="M35.8459 17.5646L35.5064 17.952L35.4756 17.9211L35.8459 17.5646Z" fill="#FFFFFE"/>
<path fill-rule="evenodd" clip-rule="evenodd" d="M36.1852 17.1772L36.5829 17.5269L36.2469 17.9143L35.9075 18.3018L35.5063 17.952L35.8458 17.5646L36.1852 17.1772Z" fill="#FFFFFE"/>
<path fill-rule="evenodd" clip-rule="evenodd" d="M36.2469 17.9143L35.9315 18.3223L35.9075 18.3017L36.2469 17.9143Z" fill="#FFFFFE"/>
<path fill-rule="evenodd" clip-rule="evenodd" d="M36.5588 17.5063L36.9085 17.7771L36.5965 18.1817L36.2811 18.5897L35.9314 18.3223L36.2468 17.9143L36.5588 17.5063Z" fill="#FFFFFE"/>
<path fill-rule="evenodd" clip-rule="evenodd" d="M36.5967 18.1818L36.2984 18.6035L36.2812 18.5898L36.5967 18.1818Z" fill="#FFFFFE"/>
<path fill-rule="evenodd" clip-rule="evenodd" d="M36.8915 17.7634L37.1383 17.9349L36.8435 18.3566L36.5452 18.7783L36.2983 18.6034L36.5966 18.1817L36.8915 17.7634Z" fill="#FFFFFE"/>
<path fill-rule="evenodd" clip-rule="evenodd" d="M36.8434 18.3566L36.5589 18.7851L36.5452 18.7783L36.8434 18.3566Z" fill="#FFFFFE"/>
<path fill-rule="evenodd" clip-rule="evenodd" d="M37.1245 17.928L37.1965 17.9726L36.912 18.4012L36.6274 18.8332L36.5588 18.7852L36.8434 18.3566L37.1245 17.928Z" fill="#FFFFFE"/>
<path fill-rule="evenodd" clip-rule="evenodd" d="M36.912 18.4012L36.6343 18.8366L36.6274 18.8332L36.912 18.4012Z" fill="#FFFFFE"/>
<path fill-rule="evenodd" clip-rule="evenodd" d="M37.1897 17.9692L37.2068 17.9829L36.9291 18.4149L36.6514 18.8469L36.6343 18.8366L36.912 18.4012L37.1897 17.9692Z" fill="#FFFFFE"/>
<path fill-rule="evenodd" clip-rule="evenodd" d="M36.9293 18.4149L36.655 18.8469H36.6516L36.9293 18.4149Z" fill="#FFFFFE"/>
<path fill-rule="evenodd" clip-rule="evenodd" d="M37.207 17.9794L37.2105 17.9829L36.9362 18.4183L36.6585 18.8503L36.655 18.8469L36.9293 18.4149L37.207 17.9794Z" fill="#FFFFFE"/>
<path fill-rule="evenodd" clip-rule="evenodd" d="M36.9362 18.4183L36.6584 18.8537V18.8503L36.9362 18.4183Z" fill="#FFFFFE"/>
<path fill-rule="evenodd" clip-rule="evenodd" d="M37.2104 17.9828L36.9362 18.4183L36.6619 18.8537H36.6584L36.9362 18.4183L37.2104 17.9828Z" fill="#FFFFFE"/>
<path fill-rule="evenodd" clip-rule="evenodd" d="M36.9362 18.4183L36.6619 18.8537L36.9362 18.4183Z" fill="#FFFFFE"/>
<path fill-rule="evenodd" clip-rule="evenodd" d="M37.2104 17.9828L36.9362 18.4183L36.6619 18.8537L36.9362 18.4183L37.2104 17.9828Z" fill="#FFFFFE"/>
<path fill-rule="evenodd" clip-rule="evenodd" d="M36.9362 18.4183L36.6619 18.8537L36.9362 18.4183Z" fill="#FFFFFE"/>
<path fill-rule="evenodd" clip-rule="evenodd" d="M37.2104 17.9828L36.9362 18.4183L36.6619 18.8537L36.9362 18.4183L37.2104 17.9828Z" fill="#FFFFFE"/>
<path fill-rule="evenodd" clip-rule="evenodd" d="M36.9362 18.4183L36.6619 18.8537L36.9362 18.4183Z" fill="#FFFFFE"/>
<path fill-rule="evenodd" clip-rule="evenodd" d="M37.2104 17.9828L36.9362 18.4183L36.6619 18.8537L36.9362 18.4183L37.2104 17.9828Z" fill="#FFFFFE"/>
<path fill-rule="evenodd" clip-rule="evenodd" d="M41.5853 7.08002L42.3395 7.58402L42.055 8.01259L41.7704 8.44116L41.0161 7.93716L41.3007 7.50859L41.5853 7.08002Z" fill="#FFFFFE"/>
<path fill-rule="evenodd" clip-rule="evenodd" d="M42.0549 8.01262L42.3395 7.58405L42.3669 7.60462L42.0549 8.01262Z" fill="#FFFFFE"/>
<path fill-rule="evenodd" clip-rule="evenodd" d="M42.3669 7.60461L43.0046 8.08804L42.6926 8.49604L42.3772 8.90747L41.7429 8.42061L42.0549 8.01261L42.3669 7.60461Z" fill="#FFFFFE"/>
<path fill-rule="evenodd" clip-rule="evenodd" d="M42.6926 8.49601L43.0046 8.08801L43.0355 8.11544L42.6926 8.49601Z" fill="#FFFFFE"/>
<path fill-rule="evenodd" clip-rule="evenodd" d="M43.0356 8.11542L43.5567 8.5817L43.2139 8.9657L42.871 9.3497L42.3499 8.87999L42.6927 8.49599L43.0356 8.11542Z" fill="#FFFFFE"/>
<path fill-rule="evenodd" clip-rule="evenodd" d="M43.2139 8.96573L43.5567 8.58173L43.591 8.61258L43.2139 8.96573Z" fill="#FFFFFE"/>
<path fill-rule="evenodd" clip-rule="evenodd" d="M43.591 8.61261L44.0092 9.06175L43.6355 9.4149L43.2584 9.76461L42.8401 9.31547L43.2138 8.96575L43.591 8.61261Z" fill="#FFFFFE"/>
<path fill-rule="evenodd" clip-rule="evenodd" d="M43.6355 9.41485L44.0092 9.06171L44.0435 9.10285L43.6355 9.41485Z" fill="#FFFFFE"/>
<path fill-rule="evenodd" clip-rule="evenodd" d="M44.0435 9.10291L44.3693 9.53491L43.9578 9.84348L43.5464 10.152L43.2241 9.72348L43.6355 9.41491L44.0435 9.10291Z" fill="#FFFFFE"/>
<path fill-rule="evenodd" clip-rule="evenodd" d="M43.9578 9.84342L44.3692 9.53485L44.4035 9.58628L43.9578 9.84342Z" fill="#FFFFFE"/>
<path fill-rule="evenodd" clip-rule="evenodd" d="M44.4034 9.5863L44.64 9.9943L44.1942 10.2514L43.7485 10.5086L43.512 10.1006L43.9577 9.84345L44.4034 9.5863Z" fill="#FFFFFE"/>
<path fill-rule="evenodd" clip-rule="evenodd" d="M44.1943 10.2515L44.6401 9.99432L44.6709 10.0595L44.1943 10.2515Z" fill="#FFFFFE"/>
<path fill-rule="evenodd" clip-rule="evenodd" d="M44.6709 10.0594L44.8286 10.4434L44.3521 10.6389L43.8755 10.8309L43.7178 10.4434L44.1943 10.2514L44.6709 10.0594Z" fill="#FFFFFE"/>
<path fill-rule="evenodd" clip-rule="evenodd" d="M44.3521 10.6389L44.8286 10.4434L44.8458 10.5017L44.3521 10.6389Z" fill="#FFFFFE"/>
<path fill-rule="evenodd" clip-rule="evenodd" d="M44.8458 10.5017L44.8973 10.6869L44.4001 10.824L43.9064 10.9577L43.855 10.7726L44.3521 10.6389L44.8458 10.5017Z" fill="#FFFFFE"/>
<path fill-rule="evenodd" clip-rule="evenodd" d="M44.4001 10.824L44.8973 10.6869L44.9076 10.728L44.4001 10.824Z" fill="#FFFFFE"/>
<path fill-rule="evenodd" clip-rule="evenodd" d="M44.9074 10.728L44.9417 10.9063L44.4343 11.0023L43.9303 11.0949L43.896 10.9166L44.4 10.824L44.9074 10.728Z" fill="#FFFFFE"/>
<path fill-rule="evenodd" clip-rule="evenodd" d="M44.4343 11.0023L44.9417 10.9063L44.9452 10.9475L44.4343 11.0023Z" fill="#FFFFFE"/>
<path fill-rule="evenodd" clip-rule="evenodd" d="M44.9453 10.9474L44.9659 11.1223L44.4516 11.1737L43.9407 11.2252L43.9236 11.0537L44.4344 11.0023L44.9453 10.9474Z" fill="#FFFFFE"/>
<path fill-rule="evenodd" clip-rule="evenodd" d="M44.4514 11.1737L44.9657 11.1223V11.1669L44.4514 11.1737Z" fill="#FFFFFE"/>
<path fill-rule="evenodd" clip-rule="evenodd" d="M44.9658 11.1669L44.9692 11.3314L44.455 11.3417L43.9407 11.3486L43.9373 11.1806L44.4515 11.1737L44.9658 11.1669Z" fill="#FFFFFE"/>
<path fill-rule="evenodd" clip-rule="evenodd" d="M44.4548 11.3417L44.9691 11.3314V11.376L44.4548 11.3417Z" fill="#FFFFFE"/>
<path fill-rule="evenodd" clip-rule="evenodd" d="M44.9693 11.376L44.959 11.5372L44.4447 11.4994L43.9304 11.4652L43.9441 11.304L44.455 11.3417L44.9693 11.376Z" fill="#FFFFFE"/>
<path fill-rule="evenodd" clip-rule="evenodd" d="M44.4446 11.4995L44.9589 11.5372L44.952 11.5817L44.4446 11.4995Z" fill="#FFFFFE"/>
<path fill-rule="evenodd" clip-rule="evenodd" d="M44.9522 11.5817L44.9282 11.736L44.4208 11.6537L43.9133 11.5749L43.9373 11.4206L44.4448 11.4995L44.9522 11.5817Z" fill="#FFFFFE"/>
<path fill-rule="evenodd" clip-rule="evenodd" d="M44.4207 11.6537L44.9281 11.736L44.9212 11.7772L44.4207 11.6537Z" fill="#FFFFFE"/>
<path fill-rule="evenodd" clip-rule="evenodd" d="M44.9212 11.7772L44.8835 11.9246L44.3829 11.8012L43.8857 11.6812L43.92 11.5338L44.4206 11.6538L44.9212 11.7772Z" fill="#FFFFFE"/>
<path fill-rule="evenodd" clip-rule="evenodd" d="M44.3831 11.8011L44.8836 11.9246L44.8733 11.9657L44.3831 11.8011Z" fill="#FFFFFE"/>
<path fill-rule="evenodd" clip-rule="evenodd" d="M44.8733 11.9657L44.8253 12.1063L44.3384 11.9417L43.8481 11.7806L43.8961 11.64L44.383 11.8012L44.8733 11.9657Z" fill="#FFFFFE"/>
<path fill-rule="evenodd" clip-rule="evenodd" d="M44.3384 11.9417L44.8252 12.1063L44.8012 12.1611L44.3384 11.9417Z" fill="#FFFFFE"/>
<path fill-rule="evenodd" clip-rule="evenodd" d="M44.8011 12.1611L44.6777 12.4251L44.2148 12.2057L43.7485 11.9863L43.872 11.7257L44.3383 11.9417L44.8011 12.1611Z" fill="#FFFFFE"/>
<path fill-rule="evenodd" clip-rule="evenodd" d="M44.2151 12.2057L44.6779 12.4252L44.6437 12.4903L44.2151 12.2057Z" fill="#FFFFFE"/>
<path fill-rule="evenodd" clip-rule="evenodd" d="M44.6435 12.4903L44.4858 12.7234L44.0572 12.4389L43.6287 12.1543L43.7864 11.9211L44.2149 12.2057L44.6435 12.4903Z" fill="#FFFFFE"/>
<path fill-rule="evenodd" clip-rule="evenodd" d="M44.0571 12.4388L44.4857 12.7234L44.4446 12.7783L44.0571 12.4388Z" fill="#FFFFFE"/>
<path fill-rule="evenodd" clip-rule="evenodd" d="M44.4446 12.7783L44.2663 12.984L43.8789 12.6446L43.4915 12.3051L43.6697 12.0994L44.0572 12.4389L44.4446 12.7783Z" fill="#FFFFFE"/>
<path fill-rule="evenodd" clip-rule="evenodd" d="M43.8789 12.6446L44.2663 12.984L44.2218 13.0252L43.8789 12.6446Z" fill="#FFFFFE"/>
<path fill-rule="evenodd" clip-rule="evenodd" d="M44.2217 13.0251L44.0263 13.2034L43.6834 12.8194L43.3406 12.4354L43.536 12.2606L43.8789 12.6446L44.2217 13.0251Z" fill="#FFFFFE"/>
<path fill-rule="evenodd" clip-rule="evenodd" d="M43.6836 12.8195L44.0264 13.2035L43.9819 13.2377L43.6836 12.8195Z" fill="#FFFFFE"/>
<path fill-rule="evenodd" clip-rule="evenodd" d="M43.9817 13.2378L43.7794 13.3818L43.4811 12.9635L43.1829 12.5452L43.3851 12.4012L43.6834 12.8195L43.9817 13.2378Z" fill="#FFFFFE"/>
<path fill-rule="evenodd" clip-rule="evenodd" d="M43.4812 12.9634L43.7795 13.3817L43.7623 13.3954L43.4812 12.9634Z" fill="#FFFFFE"/>
<path fill-rule="evenodd" clip-rule="evenodd" d="M43.7623 13.3954L42.96 13.9166L42.6788 13.4846L42.4011 13.0526L43.2 12.5314L43.4811 12.9634L43.7623 13.3954Z" fill="#FFFFFE"/>
<path fill-rule="evenodd" clip-rule="evenodd" d="M42.6789 13.4846L42.3704 13.0732L42.4012 13.0526L42.6789 13.4846Z" fill="#FFFFFE"/>
<path fill-rule="evenodd" clip-rule="evenodd" d="M42.9909 13.8926L42.624 14.1738L42.312 13.7658L42 13.3543L42.3703 13.0732L42.6789 13.4846L42.9909 13.8926Z" fill="#FFFFFE"/>
<path fill-rule="evenodd" clip-rule="evenodd" d="M42.3121 13.7657L41.9727 13.3783L42.0001 13.3543L42.3121 13.7657Z" fill="#FFFFFE"/>
<path fill-rule="evenodd" clip-rule="evenodd" d="M42.6516 14.1532L42.4801 14.3006L42.1407 13.9132L41.8047 13.5257L41.9727 13.3783L42.3121 13.7657L42.6516 14.1532Z" fill="#FFFFFE"/>
<path fill-rule="evenodd" clip-rule="evenodd" d="M42.1405 13.9132L41.7805 13.5463L41.8045 13.5258L42.1405 13.9132Z" fill="#FFFFFE"/>
<path fill-rule="evenodd" clip-rule="evenodd" d="M42.5007 14.28L42.343 14.4378L41.983 14.0709L41.623 13.7006L41.7808 13.5463L42.1408 13.9132L42.5007 14.28Z" fill="#FFFFFE"/>
<path fill-rule="evenodd" clip-rule="evenodd" d="M41.9829 14.0708L41.5989 13.7246L41.6229 13.7006L41.9829 14.0708Z" fill="#FFFFFE"/>
<path fill-rule="evenodd" clip-rule="evenodd" d="M42.3668 14.4138L42.2194 14.5749L41.8354 14.232L41.4514 13.8892L41.5988 13.7246L41.9828 14.0709L42.3668 14.4138Z" fill="#FFFFFE"/>
<path fill-rule="evenodd" clip-rule="evenodd" d="M41.8355 14.232L41.4275 13.92L41.4515 13.8892L41.8355 14.232Z" fill="#FFFFFE"/>
<path fill-rule="evenodd" clip-rule="evenodd" d="M42.2437 14.544L42.1134 14.7189L41.7019 14.4069L41.2939 14.0949L41.4277 13.92L41.8357 14.232L42.2437 14.544Z" fill="#FFFFFE"/>
<path fill-rule="evenodd" clip-rule="evenodd" d="M41.7018 14.4068L41.2698 14.1291L41.2938 14.0948L41.7018 14.4068Z" fill="#FFFFFE"/>
<path fill-rule="evenodd" clip-rule="evenodd" d="M42.1373 14.6812L42.0207 14.8663L41.5853 14.5886L41.1533 14.3143L41.2699 14.1292L41.7019 14.4069L42.1373 14.6812Z" fill="#FFFFFE"/>
<path fill-rule="evenodd" clip-rule="evenodd" d="M41.5852 14.5886L41.1292 14.3555L41.1532 14.3143L41.5852 14.5886Z" fill="#FFFFFE"/>
<path fill-rule="evenodd" clip-rule="evenodd" d="M42.0446 14.8218L41.9452 15.0172L41.4892 14.784L41.0298 14.5509L41.1292 14.3555L41.5852 14.5886L42.0446 14.8218Z" fill="#FFFFFE"/>
<path fill-rule="evenodd" clip-rule="evenodd" d="M41.4893 14.784L41.0093 14.5989L41.0298 14.5509L41.4893 14.784Z" fill="#FFFFFE"/>
<path fill-rule="evenodd" clip-rule="evenodd" d="M41.9693 14.9692L41.887 15.1749L41.407 14.9897L40.9304 14.8046L41.0093 14.5989L41.4893 14.784L41.9693 14.9692Z" fill="#FFFFFE"/>
<path fill-rule="evenodd" clip-rule="evenodd" d="M41.407 14.9897L40.9133 14.856L40.9305 14.8046L41.407 14.9897Z" fill="#FFFFFE"/>
<path fill-rule="evenodd" clip-rule="evenodd" d="M41.9041 15.1234L41.8459 15.3429L41.3487 15.2092L40.8516 15.0754L40.9133 14.856L41.407 14.9897L41.9041 15.1234Z" fill="#FFFFFE"/>
<path fill-rule="evenodd" clip-rule="evenodd" d="M41.3487 15.2092L40.8413 15.1303L40.8516 15.0754L41.3487 15.2092Z" fill="#FFFFFE"/>
<path fill-rule="evenodd" clip-rule="evenodd" d="M41.856 15.288L41.8218 15.5212L41.3143 15.4423L40.8035 15.36L40.8412 15.1303L41.3486 15.2092L41.856 15.288Z" fill="#FFFFFE"/>
<path fill-rule="evenodd" clip-rule="evenodd" d="M41.3143 15.4423L40.8 15.4149L40.8035 15.36L41.3143 15.4423Z" fill="#FFFFFE"/>
<path fill-rule="evenodd" clip-rule="evenodd" d="M41.8252 15.4663L41.815 15.7166L41.3007 15.6891L40.7864 15.6617L40.8001 15.4149L41.3144 15.4423L41.8252 15.4663Z" fill="#FFFFFE"/>
<path fill-rule="evenodd" clip-rule="evenodd" d="M41.3007 15.6892L40.7864 15.7132V15.6617L41.3007 15.6892Z" fill="#FFFFFE"/>
<path fill-rule="evenodd" clip-rule="evenodd" d="M41.8149 15.6652L41.8218 15.792L41.3075 15.816L40.7932 15.8434L40.7864 15.7132L41.3007 15.6892L41.8149 15.6652Z" fill="#FFFFFE"/>
<path fill-rule="evenodd" clip-rule="evenodd" d="M41.3075 15.816L40.7966 15.888L40.7932 15.8435L41.3075 15.816Z" fill="#FFFFFE"/>
<path fill-rule="evenodd" clip-rule="evenodd" d="M41.8149 15.744L41.8355 15.8709L41.3246 15.9429L40.8172 16.0183L40.7966 15.888L41.3075 15.816L41.8149 15.744Z" fill="#FFFFFE"/>
<path fill-rule="evenodd" clip-rule="evenodd" d="M41.3246 15.9429L40.8274 16.08L40.8171 16.0183L41.3246 15.9429Z" fill="#FFFFFE"/>
<path fill-rule="evenodd" clip-rule="evenodd" d="M41.8219 15.8091L41.8905 16.0629L41.3934 16.1966L40.8996 16.3337L40.8276 16.08L41.3248 15.9429L41.8219 15.8091Z" fill="#FFFFFE"/>
<path fill-rule="evenodd" clip-rule="evenodd" d="M41.3934 16.1966L40.9237 16.4023L40.8997 16.3337L41.3934 16.1966Z" fill="#FFFFFE"/>
<path fill-rule="evenodd" clip-rule="evenodd" d="M41.8664 15.9943L41.9727 16.2412L41.503 16.4469L41.0299 16.6492L40.9236 16.4023L41.3933 16.1966L41.8664 15.9943Z" fill="#FFFFFE"/>
<path fill-rule="evenodd" clip-rule="evenodd" d="M41.5029 16.4469L41.0572 16.7006L41.0298 16.6492L41.5029 16.4469Z" fill="#FFFFFE"/>
<path fill-rule="evenodd" clip-rule="evenodd" d="M41.9488 16.1898L42.0894 16.4332L41.6402 16.6903L41.1945 16.944L41.0574 16.7006L41.5031 16.4469L41.9488 16.1898Z" fill="#FFFFFE"/>
<path fill-rule="evenodd" clip-rule="evenodd" d="M41.64 16.6903L41.2218 16.9852L41.1943 16.944L41.64 16.6903Z" fill="#FFFFFE"/>
<path fill-rule="evenodd" clip-rule="evenodd" d="M42.0619 16.3954L42.2265 16.6286L41.8082 16.9269L41.3865 17.2217L41.2219 16.9852L41.6402 16.6903L42.0619 16.3954Z" fill="#FFFFFE"/>
<path fill-rule="evenodd" clip-rule="evenodd" d="M41.8082 16.9269L41.407 17.2492L41.3865 17.2217L41.8082 16.9269Z" fill="#FFFFFE"/>
<path fill-rule="evenodd" clip-rule="evenodd" d="M42.2058 16.6011L42.3876 16.824L41.9898 17.1497L41.5921 17.4754L41.407 17.2491L41.8081 16.9269L42.2058 16.6011Z" fill="#FFFFFE"/>
<path fill-rule="evenodd" clip-rule="evenodd" d="M41.9897 17.1497L41.6195 17.5097L41.592 17.4754L41.9897 17.1497Z" fill="#FFFFFE"/>
<path fill-rule="evenodd" clip-rule="evenodd" d="M42.3602 16.7932L42.7613 17.208L42.3911 17.5646L42.0208 17.9212L41.6196 17.5097L41.9899 17.1497L42.3602 16.7932Z" fill="#FFFFFE"/>
<path fill-rule="evenodd" clip-rule="evenodd" d="M42.391 17.5646L42.0516 17.952L42.0208 17.9211L42.391 17.5646Z" fill="#FFFFFE"/>
<path fill-rule="evenodd" clip-rule="evenodd" d="M42.7304 17.1772L43.1281 17.5269L42.7921 17.9143L42.4527 18.3018L42.0515 17.952L42.3909 17.5646L42.7304 17.1772Z" fill="#FFFFFE"/>
<path fill-rule="evenodd" clip-rule="evenodd" d="M42.7921 17.9143L42.4766 18.3223L42.4526 18.3017L42.7921 17.9143Z" fill="#FFFFFE"/>
<path fill-rule="evenodd" clip-rule="evenodd" d="M43.104 17.5063L43.4537 17.7771L43.1417 18.1817L42.8263 18.5897L42.4766 18.3223L42.792 17.9143L43.104 17.5063Z" fill="#FFFFFE"/>
<path fill-rule="evenodd" clip-rule="evenodd" d="M43.1418 18.1818L42.8436 18.6035L42.8264 18.5898L43.1418 18.1818Z" fill="#FFFFFE"/>
<path fill-rule="evenodd" clip-rule="evenodd" d="M43.4366 17.7634L43.6835 17.9349L43.3886 18.3566L43.0904 18.7783L42.8435 18.6034L43.1418 18.1817L43.4366 17.7634Z" fill="#FFFFFE"/>
<path fill-rule="evenodd" clip-rule="evenodd" d="M43.3886 18.3566L43.104 18.7851L43.0903 18.7783L43.3886 18.3566Z" fill="#FFFFFE"/>
<path fill-rule="evenodd" clip-rule="evenodd" d="M43.6697 17.928L43.7417 17.9726L43.4571 18.4012L43.1726 18.8332L43.104 18.7852L43.3886 18.3566L43.6697 17.928Z" fill="#FFFFFE"/>
<path fill-rule="evenodd" clip-rule="evenodd" d="M43.4572 18.4012L43.1795 18.8366L43.1726 18.8332L43.4572 18.4012Z" fill="#FFFFFE"/>
<path fill-rule="evenodd" clip-rule="evenodd" d="M43.7349 17.9692L43.752 17.9829L43.4743 18.4149L43.1966 18.8469L43.1794 18.8366L43.4572 18.4012L43.7349 17.9692Z" fill="#FFFFFE"/>
<path fill-rule="evenodd" clip-rule="evenodd" d="M43.4745 18.4149L43.2002 18.8469H43.1968L43.4745 18.4149Z" fill="#FFFFFE"/>
<path fill-rule="evenodd" clip-rule="evenodd" d="M43.7522 17.9794L43.7556 17.9829L43.4813 18.4183L43.2036 18.8503L43.2002 18.8469L43.4745 18.4149L43.7522 17.9794Z" fill="#FFFFFE"/>
<path fill-rule="evenodd" clip-rule="evenodd" d="M43.4813 18.4183L43.2036 18.8537V18.8503L43.4813 18.4183Z" fill="#FFFFFE"/>
<path fill-rule="evenodd" clip-rule="evenodd" d="M43.7556 17.9828L43.4813 18.4183L43.207 18.8537H43.2036L43.4813 18.4183L43.7556 17.9828Z" fill="#FFFFFE"/>
<path fill-rule="evenodd" clip-rule="evenodd" d="M43.4813 18.4183L43.207 18.8537L43.4813 18.4183Z" fill="#FFFFFE"/>
<path fill-rule="evenodd" clip-rule="evenodd" d="M43.7556 17.9828L43.4813 18.4183L43.207 18.8537L43.4813 18.4183L43.7556 17.9828Z" fill="#FFFFFE"/>
<path fill-rule="evenodd" clip-rule="evenodd" d="M43.4813 18.4183L43.207 18.8537L43.4813 18.4183Z" fill="#FFFFFE"/>
<path fill-rule="evenodd" clip-rule="evenodd" d="M43.7556 17.9828L43.4813 18.4183L43.207 18.8537L43.4813 18.4183L43.7556 17.9828Z" fill="#FFFFFE"/>
<path fill-rule="evenodd" clip-rule="evenodd" d="M43.4813 18.4183L43.207 18.8537L43.4813 18.4183Z" fill="#FFFFFE"/>
<path fill-rule="evenodd" clip-rule="evenodd" d="M43.7556 17.9828L43.4813 18.4183L43.207 18.8537L43.4813 18.4183L43.7556 17.9828Z" fill="#FFFFFE"/>
</svg>
