<svg width="36" height="36" viewBox="0 0 36 36" fill="none" xmlns="http://www.w3.org/2000/svg">
<path fill-rule="evenodd" clip-rule="evenodd" d="M4.5 18.0001C4.5 16.2272 4.84919 14.4717 5.52763 12.8338C6.20606 11.1959 7.20047 9.70771 8.45406 8.45412C9.70765 7.20053 11.1959 6.20613 12.8338 5.52769C14.4717 4.84925 16.2272 4.50006 18 4.50006C19.7728 4.50006 21.5283 4.84925 23.1662 5.52769C24.8041 6.20613 26.2923 7.20053 27.5459 8.45412C28.7995 9.70771 29.7939 11.1959 30.4724 12.8338C31.1508 14.4717 31.5 16.2272 31.5 18.0001C31.5 21.5805 30.0777 25.0143 27.5459 27.546C25.0142 30.0777 21.5804 31.5001 18 31.5001C14.4196 31.5001 10.9858 30.0777 8.45406 27.546C5.92232 25.0143 4.5 21.5805 4.5 18.0001ZM18 1.50006C8.8875 1.50006 1.5 8.88756 1.5 18.0001C1.5 27.1126 8.8875 34.5001 18 34.5001C27.1125 34.5001 34.5 27.1126 34.5 18.0001C34.5 8.88756 27.1125 1.50006 18 1.50006ZM25.2 12.9001C25.3182 12.7425 25.4042 12.5632 25.4531 12.3723C25.502 12.1815 25.5128 11.9829 25.4849 11.7879C25.4571 11.5929 25.3911 11.4053 25.2907 11.2358C25.1903 11.0663 25.0576 10.9183 24.9 10.8001C24.7424 10.6819 24.5631 10.5959 24.3723 10.547C24.1814 10.4981 23.9829 10.4873 23.7879 10.5151C23.5929 10.543 23.4053 10.609 23.2358 10.7093C23.0663 10.8097 22.9182 10.9425 22.8 11.1001L14.838 21.7171L11.5605 18.4396C11.2776 18.1663 10.8987 18.0151 10.5054 18.0185C10.1121 18.022 9.73588 18.1797 9.45777 18.4578C9.17966 18.7359 9.02191 19.1122 9.01849 19.5055C9.01507 19.8988 9.16626 20.2777 9.4395 20.5606L13.9395 25.0606C14.0915 25.2125 14.2743 25.33 14.4756 25.4052C14.6769 25.4803 14.892 25.5113 15.1064 25.4961C15.3207 25.4809 15.5293 25.4198 15.718 25.317C15.9067 25.2141 16.071 25.0719 16.2 24.9001L25.2 12.9001Z" fill="#EEEEEE"/>
</svg>
