<svg width="53" height="53" viewBox="0 0 53 53" fill="none" xmlns="http://www.w3.org/2000/svg">
<g clip-path="url(#clip0)">
<path d="M26.5 13.9253L7.59786 29.5082C7.59786 29.5302 7.59233 29.5625 7.58128 29.6066C7.57045 29.6504 7.5647 29.6822 7.5647 29.7047V45.4841C7.5647 46.0538 7.77299 46.5475 8.18946 46.9633C8.60582 47.3793 9.09886 47.5886 9.6687 47.5886H22.2918V34.9648H30.7084V47.5891H43.3314C43.9011 47.5891 44.3949 47.3802 44.8106 46.9633C45.2271 46.548 45.4361 46.0539 45.4361 45.4841V29.7047C45.4361 29.6172 45.4241 29.5511 45.4029 29.5082L26.5 13.9253Z" fill="white"/>
<path d="M52.6344 25.9576L45.4354 19.9745V6.56187C45.4354 6.25524 45.3369 6.00308 45.139 5.80572C44.9428 5.6086 44.6907 5.51003 44.3834 5.51003H38.0717C37.7647 5.51003 37.5127 5.6086 37.3152 5.80572C37.1182 6.00308 37.0197 6.25535 37.0197 6.56187V12.9722L28.9987 6.26572C28.2981 5.69587 27.4652 5.41101 26.5008 5.41101C25.5364 5.41101 24.7036 5.69587 24.0024 6.26572L0.365297 25.9576C0.14618 26.1326 0.0260865 26.3682 0.00374876 26.6641C-0.0184738 26.9598 0.0580962 27.2181 0.233689 27.4371L2.27183 29.8698C2.44742 30.0669 2.67725 30.1875 2.96223 30.2316C3.22533 30.2537 3.48843 30.1768 3.75153 30.0015L26.5001 11.0326L49.2488 30.0014C49.4245 30.1543 49.6542 30.2307 49.9392 30.2307H50.038C50.3225 30.1874 50.5519 30.066 50.7284 29.8694L52.7668 27.437C52.942 27.2175 53.0188 26.9597 52.996 26.6637C52.9736 26.3686 52.853 26.133 52.6344 25.9576Z" fill="white"/>
</g>
<defs>
<clipPath id="clip0">
<rect width="53" height="53" fill="white"/>
</clipPath>
</defs>
</svg>
