<svg width="68" height="33" viewBox="0 0 68 33" fill="none" xmlns="http://www.w3.org/2000/svg">
<path d="M61.9395 22.888C61.1008 22.45 60.9703 21.2123 60.9889 18.202L61.0076 13.5887L59.4045 13.5868L59.7773 12.7331H61.0076V10.5485L63.9526 9.45624V12.6604L65.3133 12.6623L64.9592 13.6092L63.9526 13.6073V21.5907C64.0085 22.2337 64.2322 22.6121 64.5305 22.888H61.9395Z" fill="#C6003D"/>
<path d="M18.3229 30.2059C18.2297 29.9469 18.0433 29.781 17.7637 29.781C17.3723 29.781 17.2232 29.9823 17.2232 30.26C17.2232 30.9217 18.7144 30.8005 18.7144 31.9227C18.7144 32.5489 18.1738 33 17.4096 33C17.1486 33 16.8504 32.9367 16.6267 32.7894C16.6826 32.5825 16.7385 32.3775 16.7758 32.1668H16.869C16.9249 32.5042 17.2045 32.7055 17.5401 32.7055C17.8383 32.7055 18.1179 32.534 18.1179 32.1967C18.1179 31.4119 16.6453 31.6971 16.6453 30.5154C16.6453 29.9524 17.0368 29.4865 17.7824 29.4865C18.1365 29.4865 18.4534 29.6188 18.5466 29.7213C18.4907 29.8779 18.4534 30.04 18.3975 30.2059H18.3229Z" fill="#C6003D"/>
<path d="M32.9175 3.1616C33.1412 3.77857 33.6631 4.41605 33.2903 5.13182C33.1226 5.85877 32.4329 6.44778 31.7059 6.56521C30.9417 6.63417 30.2334 6.50556 29.6556 6.04516C29.2641 3.94633 30.1216 2.00408 31.7805 0.846558L32.9175 3.1616Z" fill="#C6003D"/>
<path d="M35.844 9.55695C35.4712 10.8263 31.7246 9.99311 30.5503 7.9092C32.0974 8.08068 33.8309 6.71252 33.8682 5.15238L35.844 9.55695Z" fill="#C6003D"/>
<path d="M37.3912 9.39288C37.559 9.31646 37.8945 9.14499 37.9877 8.77778L33.9615 0.0208502C33.6819 -0.012701 33.4955 -0.0369349 33.1414 0.207245L37.3912 9.39288Z" fill="#C6003D"/>
<path d="M39.1992 7.49162C40.9141 4.89138 39.4788 0.62476 35.7695 0.0264282L39.1992 7.49162Z" fill="#C6003D"/>
<path d="M0 27.19H64.7543V26.6942H0V27.19Z" fill="#C6003D"/>
<path d="M20.9509 31.1901C20.9509 31 20.7831 30.8471 20.5967 30.8471C20.4103 30.8471 20.2612 31 20.2612 31.1901C20.2612 31.3802 20.4103 31.5331 20.5967 31.5331C20.7831 31.5331 20.9509 31.3802 20.9509 31.1901Z" fill="#C6003D"/>
<path d="M38.8264 13.0891C39.3669 12.6343 40.3176 12.6249 40.9327 12.9157C41.1936 13.0462 41.4359 13.2195 41.6037 13.4469L40.4108 15.296C40.2616 15.1767 40.1498 15.1227 39.9634 15.0257C39.3669 14.7704 38.7518 14.9195 38.3977 15.242V20.6381C38.379 21.572 38.5468 22.4238 39.0314 22.8656H36.3287C35.7508 22.4331 35.6204 21.7416 35.5644 21.1358L35.5458 13.9595C35.5644 13.378 35.4153 13.1226 35.1917 12.7964L37.9876 12.8076C38.2113 12.9698 38.2299 13.2512 38.3418 13.4675L38.8264 13.0891Z" fill="#C6003D"/>
<path d="M42.2375 14.8636C42.2189 14.1814 42.368 13.365 41.9207 12.7759H44.5116C44.698 12.9064 44.7912 13.1226 44.8471 13.3277C44.9962 13.5103 44.9776 13.7713 45.0335 13.9875L45.0708 21.6335C45.164 22.0883 45.3503 22.5469 45.6859 22.9047L42.9086 22.9103C41.9952 22.0305 42.2934 20.5841 42.2189 19.0911L42.2375 14.8636Z" fill="#C6003D"/>
<path d="M46.357 14.9382C46.6366 14.1609 47.5127 13.7713 48.1464 13.3482C49.1157 12.9922 50.1968 12.1049 51.2779 12.83C52.1912 13.4246 52.9927 14.0956 53.5706 15.0146C53.701 15.3706 53.7756 15.7714 53.8688 16.1497C53.8688 16.6586 53.9806 17.037 53.962 17.5459C53.9993 18.0976 53.9993 18.5953 53.962 19.1358C53.9247 20.0548 53.496 20.8768 52.7691 21.5142C51.6879 22.4779 50.3273 23.5702 48.8547 22.8227C47.5313 22.2058 45.9842 20.9849 46.0774 19.3073C46.0215 18.1181 45.9656 17.091 46.1333 15.9335C46.1892 15.598 46.1706 15.2308 46.357 14.9382ZM49.0598 20.3455C49.1902 20.8227 49.4326 21.4061 50.0104 21.4714C50.3459 21.4826 50.5882 21.2011 50.7932 20.9625C51.3897 19.7733 51.2965 18.476 51.2965 17.1227C51.1101 16.1181 51.3524 14.7443 50.2713 14.1273C49.8799 13.9875 49.6003 14.2466 49.358 14.4852C48.9293 15.1227 48.892 15.8534 48.8547 16.6642C48.7242 17.9615 48.8734 19.037 49.0598 20.3455Z" fill="#C6003D"/>
<path d="M55.8818 22.888C55.043 22.45 54.9126 21.2123 54.9312 18.202L54.9498 13.5887L53.3655 13.5868L53.7196 12.7331H54.9498V10.5485L57.9136 9.45624V12.6604L59.2556 12.6623L58.9015 13.6092L57.9136 13.6073V21.5907C57.9695 22.2337 58.1931 22.6121 58.4914 22.888H55.8818Z" fill="#C6003D"/>
<path d="M28.8915 13.9595C28.8729 13.378 28.761 13.1226 28.5374 12.7964L31.3333 12.8076C31.557 12.9698 31.5756 13.2512 31.6875 13.4675L32.1721 13.0891C32.7126 12.6343 33.6633 12.6249 34.2784 12.9157C34.5393 13.0462 34.7816 13.2195 34.9494 13.4469L33.7565 15.296C33.6073 15.1767 33.4955 15.1227 33.3091 15.0257C32.7126 14.7704 32.0975 14.9195 31.7434 15.242V20.6381C31.7247 21.572 31.8925 22.4238 32.3771 22.8656H29.6744C29.1152 22.4331 28.9474 21.7901 28.9101 21.1358L28.8915 13.9595Z" fill="#C6003D"/>
<path d="M7.69818 16.7984L6.69163 18.8935C5.98333 20.1293 5.01406 21.6447 3.52289 22.0212C2.94506 22.2225 2.42315 22.0399 1.86396 22.0007L0.0559082 24.9551C0.205025 25.1005 0.391427 25.2216 0.577821 25.2925C3.74657 26.5041 5.03271 25.2012 8.14553 18.1348L11.1092 24.4295H15.0422L13.1782 20.1815L14.2407 17.9857L17.1485 24.3325L20.9137 24.3568L14.3153 9.87747L11.277 11.3854L13.6629 16.7891L12.6191 18.9121L8.25737 9.50281L5.06998 11.1319L7.69818 16.7984Z" fill="#C6003D"/>
<path d="M19.7952 19.352C19.8698 18.3026 20.4476 17.3184 21.4169 16.789C22.3862 16.1926 23.5045 15.9558 24.5111 15.4358C24.6788 15.296 24.8839 15.1227 24.9025 14.8953C24.9212 14.6138 24.772 14.3976 24.5297 14.3006C23.0013 13.9763 21.7524 14.9269 20.6527 15.8682C20.7831 15.1767 20.895 14.4199 21.2305 13.7713C21.3796 13.5979 21.4915 13.3593 21.6965 13.2307C22.7776 12.6995 24.1196 12.5485 25.3126 12.6343C26.3005 12.6995 27.2138 13.4022 27.5493 14.3006C27.7171 14.7219 27.6985 15.1991 27.7357 15.6315L27.7544 21.4937C27.7544 22.0007 27.9967 22.4779 28.2949 22.8879H25.499C25.1635 22.586 24.9957 22.2057 24.9025 21.7304C24.1196 22.4238 22.4794 23.4509 21.5101 22.7687C20.5035 22.3157 19.5716 20.7891 19.7952 19.352ZM24.7534 17.3128C24.7348 16.9065 24.4552 16.8636 24.2501 16.8636C23.5791 16.9605 23.0013 17.5216 22.6658 18.0975C22.3862 18.6101 22.3116 19.0426 22.293 19.4918C22.293 19.9764 22.2557 20.3362 22.4607 20.7034C22.5726 20.942 22.7962 21.0501 23.0385 21.1135C23.4673 21.2011 23.8587 21.0818 24.1942 20.8544C24.9957 20.4107 24.8466 19.5235 24.8652 18.735L24.7534 17.3128Z" fill="#C6003D"/>
<path d="M46.4499 31.1901C46.4499 31 46.2822 30.8471 46.0958 30.8471C45.9094 30.8471 45.7603 31 45.7603 31.1901C45.7603 31.3802 45.9094 31.5331 46.0958 31.5331C46.2822 31.5331 46.4499 31.3802 46.4499 31.1901Z" fill="#C6003D"/>
<path d="M22.9827 29.5741H24.0265C24.2502 29.5741 24.623 29.5647 24.828 29.6728C25.1076 29.8201 25.2381 30.04 25.2381 30.3737C25.2381 30.8546 24.9398 31.1584 24.4738 31.2554C24.7534 31.7251 25.0517 32.1762 25.3499 32.6328L25.5363 32.9367C25.3872 32.9255 25.2381 32.9124 25.089 32.9124C24.9398 32.9124 24.8094 32.9255 24.6602 32.9367L24.0638 31.9077C23.9892 31.7754 23.8587 31.5499 23.7469 31.3635H23.7096V32.9367C23.5978 32.9255 23.4673 32.9124 23.3555 32.9124C23.225 32.9124 23.1131 32.9255 22.9827 32.9367V29.5741ZM23.7096 31.1528C24.2315 31.2013 24.4925 30.9571 24.4925 30.452C24.4925 30.383 24.4738 30.3103 24.4552 30.2059C24.3806 29.7996 24.0079 29.8387 23.7096 29.8387V31.1528Z" fill="#C6003D"/>
<path d="M28.146 29.574C28.1274 29.643 28.1088 29.7176 28.1088 29.7847C28.1088 29.8536 28.1274 29.9282 28.146 29.9953C27.8292 29.9562 27.5123 29.917 27.009 29.9282V30.9813H27.5123C27.736 30.9813 27.941 30.9608 28.1274 30.9366C28.1088 31.0056 28.0901 31.0783 28.0901 31.1472C28.0901 31.2162 28.1088 31.2908 28.1274 31.3579C27.941 31.3336 27.736 31.315 27.5123 31.315H27.009V32.5583C27.5123 32.5545 27.8292 32.5303 28.146 32.4911C28.1274 32.5583 28.1088 32.6328 28.1088 32.7018C28.1088 32.7689 28.1274 32.8434 28.146 32.9124H26.2634V29.574H28.146Z" fill="#C6003D"/>
<path d="M30.5317 30.2059C30.4198 29.9469 30.2334 29.781 29.9538 29.781C29.581 29.781 29.4133 29.9823 29.4133 30.26C29.4133 30.9217 30.9044 30.8005 30.9044 31.9227C30.9044 32.5489 30.3825 33 29.6183 33C29.3387 33 29.0591 32.9367 28.8354 32.7894C28.8914 32.5825 28.9473 32.3775 28.9659 32.1668H29.0591C29.1337 32.5042 29.3946 32.7055 29.7301 32.7055C30.047 32.7055 30.308 32.534 30.308 32.1967C30.308 31.4119 28.8541 31.6971 28.8541 30.5154C28.8541 29.9524 29.2269 29.4865 29.9911 29.4865C30.3266 29.4865 30.6435 29.6188 30.7553 29.7213C30.6994 29.8779 30.6435 30.04 30.6062 30.2059H30.5317Z" fill="#C6003D"/>
<path d="M33.3276 33C32.2465 33 31.5195 32.3626 31.5195 31.2498C31.5195 30.2749 32.2278 29.4865 33.4581 29.4865C34.856 29.4865 35.2661 30.4706 35.2661 31.2311C35.2661 32.1873 34.5392 33 33.3276 33ZM32.3397 31.3933C32.3397 32.0289 32.6193 32.7055 33.3649 32.7055C34.1105 32.7055 34.446 31.9506 34.446 31.1379C34.446 30.506 34.1477 29.781 33.4208 29.781C32.7497 29.781 32.3397 30.2954 32.3397 31.3933Z" fill="#C6003D"/>
<path d="M36.0864 29.5741H37.1302C37.3539 29.5741 37.7081 29.5647 37.9131 29.6728C38.1927 29.8201 38.3418 30.04 38.3418 30.3737C38.3418 30.8546 38.025 31.1584 37.5776 31.2554C37.8572 31.7251 38.1554 32.1762 38.4537 32.6328L38.6401 32.9367C38.4909 32.9255 38.3418 32.9124 38.1927 32.9124C38.0436 32.9124 37.8945 32.9255 37.7454 32.9367L37.1675 31.9077C37.093 31.7754 36.9625 31.5499 36.8507 31.3635H36.8134V32.9367C36.6829 32.9255 36.5711 32.9124 36.4406 32.9124C36.3287 32.9124 36.1983 32.9255 36.0864 32.9367V29.5741ZM36.8134 31.1528C37.3353 31.2013 37.5776 30.9571 37.5776 30.452C37.5776 30.383 37.5776 30.3103 37.559 30.2059C37.4844 29.7996 37.1116 29.8387 36.8134 29.8387V31.1528Z" fill="#C6003D"/>
<path d="M40.7277 32.9366C40.6159 32.9255 40.4854 32.9124 40.3549 32.9124C40.2431 32.9124 40.1126 32.9255 40.0007 32.9366V29.9226C39.6466 29.9226 39.3484 29.9562 39.0874 29.9916C39.0874 29.9226 39.106 29.8536 39.106 29.7809C39.106 29.712 39.0874 29.643 39.0874 29.574H41.6038C41.6038 29.643 41.5851 29.712 41.5851 29.7809C41.5851 29.8536 41.6038 29.9226 41.6038 29.9916C41.3242 29.9562 41.0259 29.9226 40.7277 29.9226V32.9366Z" fill="#C6003D"/>
<path d="M43.8964 30.2059C43.8032 29.9469 43.6168 29.781 43.3372 29.781C42.9458 29.781 42.7967 29.9823 42.7967 30.26C42.7967 30.9217 44.2878 30.8005 44.2878 31.9227C44.2878 32.5489 43.7473 33 42.9831 33C42.7221 33 42.4239 32.9367 42.2002 32.7894C42.2561 32.5825 42.312 32.3775 42.3493 32.1668H42.4425C42.4984 32.5042 42.778 32.7055 43.1135 32.7055C43.4118 32.7055 43.6727 32.534 43.6727 32.1967C43.6727 31.4119 42.2188 31.6971 42.2188 30.5154C42.2188 29.9524 42.6103 29.4865 43.3559 29.4865C43.71 29.4865 44.0269 29.6188 44.1201 29.7213C44.0642 29.8779 44.0269 30.04 43.971 30.2059H43.8964Z" fill="#C6003D"/>
<path d="M49.9169 30.2059C49.8051 29.9469 49.6187 29.781 49.3391 29.781C48.9663 29.781 48.7985 29.9823 48.7985 30.26C48.7985 30.9217 50.2897 30.8005 50.2897 31.9227C50.2897 32.5489 49.7678 33 49.0036 33C48.724 33 48.4444 32.9367 48.2207 32.7894C48.2766 32.5825 48.3139 32.3775 48.3512 32.1668H48.4444C48.5189 32.5042 48.7799 32.7055 49.1154 32.7055C49.4323 32.7055 49.6932 32.534 49.6932 32.1967C49.6932 31.4119 48.2394 31.6971 48.2394 30.5154C48.2394 29.9524 48.6308 29.4865 49.3577 29.4865C49.7119 29.4865 50.0288 29.6188 50.1406 29.7213C50.0847 29.8779 50.0288 30.04 49.9915 30.2059H49.9169Z" fill="#C6003D"/>
<path d="M51.166 29.574C51.2965 29.5852 51.4083 29.6001 51.5388 29.6001C51.6693 29.6001 51.7811 29.5852 51.9116 29.574V30.9664C51.9116 31.2367 51.893 31.6375 51.9489 31.8928C51.9862 32.1333 52.0234 32.2842 52.1912 32.4557C52.3589 32.603 52.5454 32.6664 52.769 32.6664C53.2164 32.6664 53.4587 32.5005 53.6264 32.0736C53.7197 31.8574 53.7197 31.3001 53.7197 31.0596V29.574C53.7756 29.5852 53.8501 29.5889 53.906 29.5889C53.9806 29.5889 54.0552 29.5852 54.1111 29.574V31.3187C54.0924 31.8779 54.1111 32.3868 53.5892 32.7409C53.3282 32.931 52.9927 33 52.6572 33C52.0794 33 51.427 32.8136 51.2592 32.1761C51.2033 31.986 51.166 31.7698 51.166 31.5741V29.574Z" fill="#C6003D"/>
<path d="M55.2666 29.574C55.3971 29.5852 55.5276 29.6001 55.6394 29.6001C55.7699 29.6001 55.8817 29.5852 56.0122 29.574V32.9366C55.8817 32.9255 55.7699 32.9124 55.6394 32.9124C55.5276 32.9124 55.3971 32.9255 55.2666 32.9366V29.574Z" fill="#C6003D"/>
<path d="M58.4914 32.9366C58.361 32.9255 58.2305 32.9124 58.1187 32.9124C57.9882 32.9124 57.8763 32.9255 57.7459 32.9366V29.9226C57.4103 29.9226 57.0935 29.9562 56.8325 29.9916C56.8512 29.9226 56.8698 29.8536 56.8698 29.7809C56.8698 29.712 56.8512 29.643 56.8325 29.574H59.3675C59.3489 29.643 59.3302 29.712 59.3302 29.7809C59.3302 29.8536 59.3489 29.9226 59.3675 29.9916C59.0693 29.9562 58.7897 29.9226 58.4914 29.9226V32.9366Z" fill="#C6003D"/>
<path d="M61.9956 29.574C61.9769 29.643 61.9769 29.7176 61.9769 29.7847C61.9769 29.8536 61.9769 29.9282 61.9956 29.9953C61.6973 29.9562 61.3618 29.917 60.8585 29.9282V30.9813H61.3618C61.5855 30.9813 61.7905 30.9608 61.9769 30.9366C61.9583 31.0056 61.9583 31.0783 61.9583 31.1472C61.9583 31.2162 61.9583 31.2908 61.9769 31.3579C61.7905 31.3336 61.5855 31.315 61.3618 31.315H60.8585V32.5583C61.3618 32.5545 61.6973 32.5303 61.9956 32.4911C61.9769 32.5583 61.9769 32.6328 61.9769 32.7018C61.9769 32.7689 61.9769 32.8434 61.9956 32.9124H60.1316V29.574H61.9956Z" fill="#C6003D"/>
<path d="M64.3815 30.2059C64.2883 29.9469 64.1019 29.781 63.8223 29.781C63.4309 29.781 63.2818 29.9823 63.2818 30.26C63.2818 30.9217 64.773 30.8005 64.773 31.9227C64.773 32.5489 64.2324 33 63.4682 33C63.2072 33 62.909 32.9367 62.6853 32.7894C62.7412 32.5825 62.7971 32.3775 62.8158 32.1668H62.909C62.9835 32.5042 63.2445 32.7055 63.5986 32.7055C63.8969 32.7055 64.1578 32.534 64.1578 32.1967C64.1578 31.4119 62.7039 31.6971 62.7039 30.5154C62.7039 29.9524 63.0954 29.4865 63.841 29.4865C64.1951 29.4865 64.512 29.6188 64.6052 29.7213C64.5493 29.8779 64.512 30.04 64.4561 30.2059H64.3815Z" fill="#C6003D"/>
<path d="M0.0932617 29.574C0.223736 29.5852 0.335575 29.6001 0.466049 29.6001C0.577889 29.6001 0.708371 29.5852 0.838845 29.574V30.903C1.08116 30.9124 1.34212 30.9273 1.58443 30.9273C1.82675 30.9273 2.08771 30.9124 2.33002 30.903V29.574C2.4605 29.5852 2.57234 29.6001 2.70281 29.6001C2.81465 29.6001 2.94513 29.5852 3.07561 29.574V32.9366C2.94513 32.9255 2.81465 32.9124 2.70281 32.9124C2.57234 32.9124 2.4605 32.9255 2.33002 32.9366V31.2945C2.08771 31.2852 1.82675 31.2703 1.58443 31.2703C1.34212 31.2703 1.08116 31.2852 0.838845 31.2945V32.9366C0.708371 32.9255 0.577889 32.9124 0.466049 32.9124C0.335575 32.9124 0.223736 32.9255 0.0932617 32.9366V29.574Z" fill="#C6003D"/>
<path d="M5.75956 33C4.67845 33 3.93286 32.3626 3.93286 31.2498C3.93286 30.2749 4.65981 29.4865 5.87139 29.4865C7.26937 29.4865 7.67944 30.4706 7.67944 31.2311C7.67944 32.1873 6.95249 33 5.75956 33ZM4.75301 31.3933C4.75301 32.0289 5.05124 32.7055 5.77819 32.7055C6.52378 32.7055 6.87794 31.9506 6.87794 31.1379C6.87794 30.506 6.5797 29.781 5.83411 29.781C5.16308 29.781 4.75301 30.2954 4.75301 31.3933Z" fill="#C6003D"/>
<path d="M9.50626 32.9366C9.39442 32.9255 9.26395 32.9124 9.15211 32.9124C9.02163 32.9124 8.90979 32.9255 8.77931 32.9366V29.9226C8.42516 29.9226 8.12692 29.9562 7.86597 29.9916C7.88461 29.9226 7.88461 29.8536 7.88461 29.7809C7.88461 29.712 7.88461 29.643 7.86597 29.574H10.3823C10.3823 29.643 10.3637 29.712 10.3637 29.7809C10.3637 29.8536 10.3823 29.9226 10.3823 29.9916C10.1027 29.9562 9.80449 29.9226 9.50626 29.9226V32.9366Z" fill="#C6003D"/>
<path d="M12.9919 29.574C12.9919 29.643 12.9733 29.7176 12.9733 29.7847C12.9733 29.8536 12.9919 29.9282 12.9919 29.9953C12.6937 29.9562 12.3581 29.917 11.8549 29.9282V30.9813H12.3768C12.6005 30.9813 12.7869 30.9608 12.9733 30.9366C12.9546 31.0056 12.9546 31.0783 12.9546 31.1472C12.9546 31.2162 12.9546 31.2908 12.9733 31.3579C12.7869 31.3336 12.6005 31.315 12.3768 31.315H11.8549V32.5583C12.3581 32.5545 12.6937 32.5303 12.9919 32.4911C12.9919 32.5583 12.9733 32.6328 12.9733 32.7018C12.9733 32.7689 12.9919 32.8434 12.9919 32.9124H11.1279V29.574H12.9919Z" fill="#C6003D"/>
<path d="M14.6694 32.5583C15.0981 32.5583 15.4523 32.5247 15.7878 32.4911C15.7692 32.5583 15.7505 32.6328 15.7505 32.7018C15.7505 32.7689 15.7692 32.8434 15.7878 32.9124H13.9238V29.574C14.0543 29.5852 14.1661 29.6001 14.2966 29.6001C14.4271 29.6001 14.5389 29.5852 14.6694 29.574V32.5583Z" fill="#C6003D"/>
<path d="M64.8848 22.01C64.8848 21.4098 65.3694 20.9681 65.9472 20.9681C66.5251 20.9681 67.0097 21.4098 67.0097 22.01C67.0097 22.614 66.5251 23.0557 65.9472 23.0557C65.3694 23.0557 64.8848 22.614 64.8848 22.01ZM65.9472 22.8824C66.4319 22.8824 66.8047 22.5133 66.8047 22.01C66.8047 21.5161 66.4319 21.1414 65.9472 21.1414C65.4812 21.1414 65.0898 21.5161 65.0898 22.01C65.0898 22.5133 65.4812 22.8824 65.9472 22.8824ZM65.7236 22.614H65.5558V21.4098H66.0031C66.2827 21.4098 66.4319 21.5161 66.4319 21.7528C66.4319 21.969 66.3014 22.0622 66.115 22.0846L66.4691 22.614H66.2641L65.9472 22.0921H65.7236V22.614ZM65.9472 21.9373C66.0963 21.9373 66.2455 21.9262 66.2455 21.7416C66.2455 21.5925 66.115 21.5645 65.9845 21.5645H65.7236V21.9373H65.9472Z" fill="#C6003D"/>
</svg>
