<svg width="64" height="64" viewBox="0 0 64 64" fill="none" xmlns="http://www.w3.org/2000/svg">
<path d="M32.2446 1.05194C31.4937 1.05194 30.0285 1.13045 29.9688 1.13407C30.2527 1.20981 8.0539 12.5986 8.0539 12.4791C8.04707 12.5178 8.03662 12.5498 8.01636 12.5749C3.61572 17.9582 1.00366 24.7968 1.00366 32.2925C1.00366 38.4702 2.80356 44.2242 5.89838 49.0724C5.91929 49.0611 13.7785 56.6735 13.6823 57.4187C18.8733 61.2587 25.2917 63.5315 32.2436 63.5315C34.6717 63.5315 37.0305 63.2448 39.3006 62.7219C39.2592 62.4757 39.2217 62.2293 39.188 61.9866L38.7777 59.1066C38.6542 58.3187 38.0089 52.9641 38.0089 52.9641L38.0068 52.9483L38.6935 52.6846C38.6935 52.6846 39.5963 52.7219 39.5739 52.7247C39.5739 52.7247 40.4893 58.1101 40.6485 59.0443L40.8206 60.0331C40.8872 60.4314 40.9433 60.8262 41.0254 61.2354C41.083 61.5757 41.1342 61.9019 41.1846 62.2268C41.925 62.0043 42.6546 61.7572 43.3704 61.4837C43.2616 60.8717 43.1432 60.2408 43.1331 60.1476L42.7643 57.9567C42.277 55.6964 41.9664 54.0198 41.7388 52.9045C41.7064 52.7443 41.6458 52.4595 41.6458 52.4595L42.3509 52.1775L43.281 52.25C43.281 52.25 44.4675 57.4426 44.7639 59.0125L45.1022 60.7603C45.7386 60.4725 46.3688 60.1683 46.9806 59.8391L46.785 58.9423C46.7641 58.8555 46.7415 58.7511 46.7148 58.6351C46.3163 56.8811 45.2584 51.9951 45.2584 51.9951L46.1068 51.6619L46.9356 51.7786H46.9397C46.9397 51.7786 48.0044 56.2829 48.6954 58.8465C49.8819 58.1101 51.0188 57.3013 52.0906 56.4173C52.0906 56.4173 61.9835 41.6085 62.0543 41.6574C62.9817 38.7012 63.4839 35.5552 63.4839 32.2923C63.4837 15.0391 49.4971 1.05194 32.2446 1.05194Z" fill="#A3080C"/>
<path d="M40.0712 16.6044C40.0712 16.6044 36.1694 9.24653 34.5777 8.1421C32.9879 7.03767 30.3676 6.34818 28.551 6.57773C26.2511 6.86807 20.9907 9.65186 20.6411 9.74381C20.6436 9.77069 18.6812 12.1914 18.1687 14.6844C18.0548 15.2384 16.0354 24.0711 16.0354 24.0711L19.8754 35.1644L33.5599 41.6932L38.5777 36.2311C38.5777 36.2311 39.2179 30.8267 40.5689 26.7733C41.92 22.72 41.4933 20.5156 41.4933 20.5156L40.0712 16.6044Z" fill="#FFF1E2"/>
<path d="M24.4377 44.8806C24.3961 44.8964 24.3581 44.9132 24.3225 44.9292C24.3581 44.9132 24.3961 44.8964 24.4377 44.8806Z" fill="white"/>
<path d="M23.3111 23.7528C23.0939 23.8765 22.9333 23.9055 22.833 23.9588C22.7326 24.0137 22.5741 24.1314 22.6133 24.342C22.6547 24.5536 22.7127 24.6223 22.733 24.7855C22.7522 24.947 22.6745 25.2397 22.4868 25.5721C22.3021 25.9053 22.0064 26.1459 21.8385 26.2434C21.6734 26.3422 21.572 26.3689 21.4782 26.4184C21.4568 26.4282 21.4376 26.4792 21.4184 26.5816C21.4176 26.5824 21.4176 26.5824 21.4165 26.5835C21.4285 26.5741 21.4417 26.5653 21.46 26.5583C21.4961 26.5429 21.5703 26.541 21.6371 26.5286C21.7017 26.5167 21.7493 26.5016 21.773 26.4984C21.7982 26.4954 21.9479 26.4742 21.9731 26.4687C21.9983 26.4638 22.452 26.3689 22.7332 26.2394C23.0129 26.1092 23.504 25.8724 23.7854 25.5324C23.9921 25.2834 24.241 24.8301 24.2654 24.3802C24.2711 24.2872 24.2701 24.2293 24.2701 24.2293C24.2701 24.2293 24.2711 24.2293 24.2711 24.2283C24.2743 24.2283 24.2771 24.2274 24.2801 24.2274C24.2336 24.2255 24.193 24.2101 24.16 24.1831C24.0847 24.1242 24.0239 24.0807 23.793 23.834C23.6446 23.6749 23.6548 23.5582 23.735 23.4249C23.7331 23.4279 23.7297 23.4308 23.7275 23.4338C23.6591 23.4978 23.5255 23.6292 23.3111 23.7528Z" fill="white"/>
<path d="M34.7838 22.2822C34.7838 22.2822 34.6571 22.2931 34.6136 22.3123C34.579 22.3266 34.5137 22.3509 34.4691 22.4107C34.4248 22.4715 34.4145 22.5777 34.5077 22.6918C34.6027 22.8055 34.7332 23.018 34.7224 23.2C34.7155 23.28 34.7273 23.5415 34.6424 23.7299C34.5474 23.9435 34.4378 24.154 34.3625 24.249C34.319 24.3049 34.118 24.5271 34.0885 24.6846C34.0807 24.7177 34.0886 24.7543 34.1041 24.7889C34.1041 24.7889 34.1065 24.787 34.1065 24.7898C34.1054 24.7908 34.1065 24.7927 34.1054 24.7947C34.1095 24.7823 34.1144 24.7703 34.1242 24.759C34.1743 24.7027 34.2765 24.6458 34.4544 24.5909C34.6904 24.5163 34.8578 24.4273 34.9884 24.3279C34.9726 24.3462 34.9685 24.3676 34.9585 24.3887C34.9722 24.3561 34.9873 24.3238 35.0165 24.2982C35.0867 24.2379 36.0126 23.6164 36.0363 22.6131C36.0452 22.2364 35.5565 22.1867 35.353 22.1798C35.2017 22.1734 34.9167 22.3121 34.7962 22.2829C34.7943 22.282 34.7906 22.2788 34.7864 22.278C34.7883 22.278 34.7883 22.2788 34.7883 22.2788C34.7885 22.2812 34.7847 22.2812 34.7838 22.2822Z" fill="white"/>
<path d="M24.9243 29.2087C24.9243 29.2087 28.6043 30.3466 30.3643 28.302C32.1243 26.2577 35.1643 29.3866 35.3598 30.311C35.5556 31.2354 30.791 33.7954 29.351 33.8487C27.911 33.902 22.2043 33.1377 22.2043 32.551C22.2043 31.9643 24.9243 29.2087 24.9243 29.2087Z" fill="white"/>
<path d="M40.0266 14.5867C39.4415 8.38036 36.5858 5.26974 34.5333 3.75998C32.3763 2.33876 27.245 1.08692 24.8267 1.19998C21.9733 1.33332 15.3839 4.44564 15.1289 4.67561C14.886 4.89726 10.4668 12.2867 11.0133 13.6068C11.5599 14.9269 12.3343 21.1616 12.5867 21.6623C12.6635 21.8123 13.924 25.8741 14.7556 25.7246C15.5938 25.5737 16.3752 21.8692 16.3379 21.5823C16.2312 20.7646 14.7471 17.0797 14.8623 16.56C14.979 16.0418 18.9429 9.83572 19.2267 9.61769C19.4268 9.46537 26.2263 8.61972 26.2658 8.68542C26.2649 8.6835 26.2649 8.68137 26.2622 8.67945L26.2613 8.67838C26.7366 8.26409 27.8389 7.17204 28.8239 7.21129C29.808 7.25182 32.6216 7.6034 34.2114 8.7091C35.8031 9.81353 36.2946 10.8947 36.4296 11.1972C36.4286 11.1972 36.4266 11.1987 36.4256 11.1987C36.4789 11.2066 38.6931 16.24 39.3421 16.2579C39.7749 16.2696 40.0979 15.3327 40.0266 14.5867Z" fill="white"/>
<path d="M37.2722 18.7131C37.036 18.7407 36.3903 18.7995 36.319 18.8085C36.1923 18.8249 36.1955 18.8966 36.2034 18.9504C36.21 19.0058 36.2301 19.2183 36.2377 19.3098C36.2456 19.4007 36.3406 19.454 36.4378 19.4462C36.5358 19.4393 37.1534 19.3834 37.2455 19.3691C37.3356 19.3544 37.4245 19.2783 37.4234 19.2055C37.4215 19.1323 37.4226 18.9391 37.4215 18.861C37.4194 18.7823 37.3612 18.7031 37.2722 18.7131Z" fill="white"/>
<path d="M11.5785 48.3915C11.7012 48.4181 11.832 48.448 11.9583 48.4774C11.676 48.412 11.369 48.345 11.193 48.3014C11.106 48.2795 10.969 48.2669 10.8105 48.2701C10.546 48.2758 10.2194 48.3277 9.9557 48.4602C9.62226 48.6259 7.50386 49.7001 6.61597 50.1485C7.63229 51.6047 8.76637 52.9705 10.0097 54.2319C10.0873 53.9117 11.4759 52.4546 11.6713 51.6006C11.9388 50.4305 11.273 48.8858 11.5785 48.3915Z" fill="white"/>
<path d="M46.9365 51.7796L45.2625 51.9955C45.2625 51.9955 46.4667 57.5556 46.7891 58.9425L46.9834 59.8393C47.5658 59.5257 48.1352 59.1947 48.6948 58.8467C48.0027 56.2831 46.938 51.7796 46.938 51.7796H46.9365Z" fill="white"/>
<path d="M56.6373 29.5334C55.7919 30.1721 55.3236 31.0349 55.3262 31.8982C55.3302 33.178 56.3653 34.4104 58.7636 34.4025C59.3588 34.3985 59.8838 34.3383 60.3611 34.2573C60.5004 34.2346 60.6369 34.2095 60.7664 34.1828L61.0452 32.9916C60.5806 33.1469 59.9933 33.2753 59.5227 33.2774C58.2454 33.2815 57.3891 32.5241 57.3872 31.5311C57.3851 31.0018 57.6027 30.5369 57.996 30.1969C58.4174 29.8325 59.0384 29.6121 59.8151 29.6121C60.4302 29.6121 60.7899 29.7822 61.0352 30.0249C61.0845 30.0725 61.1299 30.1224 61.1696 30.1747H61.3697L61.7612 28.7688C61.3578 28.6357 60.7598 28.5237 60.129 28.5167C58.6602 28.497 57.4668 28.9066 56.6373 29.5334Z" fill="white"/>
<path d="M54.6371 29.7288C54.8095 29.7288 54.9527 29.7915 55.0487 29.8737C55.1308 29.9434 55.1801 30.0264 55.1801 30.0981H55.377L55.7586 28.5715H50.5757L50.5 28.8701L50.4821 28.9427C50.4821 28.9427 51.0495 29.0065 50.8757 29.5735L49.5818 34.2741L51.7823 34.2783H52.1682L52.2662 33.8747C52.2662 33.8747 51.7823 33.758 51.9088 33.3111C51.9148 33.2831 52.097 32.6148 52.2058 32.2135C52.2544 32.0403 52.289 31.9157 52.289 31.9157L53.4734 31.9148C53.6671 31.9148 53.8156 31.9505 53.9304 31.9948C54.1676 32.0857 54.2587 32.2235 54.2587 32.2235L54.6024 30.8266H52.6056L52.8213 30.0287L52.9023 29.7312L54.6371 29.7288Z" fill="white"/>
<path d="M48.3395 33.4351C48.1861 33.2708 46.8545 31.1966 46.8545 31.1966L49.2095 29.3118L49.2875 29.249C49.3929 29.1609 49.4921 29.0986 49.579 29.0534C49.8292 28.9248 49.9905 28.9431 49.9905 28.9431L50.085 28.5674L47.058 28.5719L46.9827 28.8695L46.9648 28.9431C47.1704 28.9574 47.4576 29.1413 47.2229 29.3604C47.1922 29.3866 44.79 31.2222 44.79 31.2222L44.8088 31.1573L45.3082 29.348C45.4138 28.9866 45.8021 28.9431 45.8021 28.9431L45.897 28.5709L43.0072 28.5717L42.933 28.8693L42.914 28.9429C43.0522 28.9785 43.4469 29.0551 43.3102 29.5737C42.3457 33.0592 42.456 32.7142 42.3907 32.9041C42.1748 33.7303 41.851 33.844 41.6562 33.8651C41.6137 33.8692 41.577 33.8692 41.5504 33.8707L41.5107 34.0269L41.4495 34.2739H44.0871H44.472L44.5729 33.8647C44.5729 33.8647 44.0933 33.7698 44.1846 33.4238C44.2311 33.2499 44.3523 32.8087 44.4592 32.4194C44.5628 32.0416 44.6548 31.7105 44.6548 31.7105C45.179 32.5508 45.2995 32.6547 45.9322 33.5228C46.5144 34.3257 47.1367 34.2882 48.639 34.2779C48.7615 34.2771 48.8882 34.276 49.0247 34.276L49.1246 33.8745C48.7438 33.8769 48.4916 33.5989 48.3395 33.4351Z" fill="white"/>
<path d="M62.5921 28.6701C62.517 28.5964 62.428 28.5598 62.3211 28.5598C62.2164 28.5598 62.1274 28.5964 62.0521 28.6701C61.9787 28.7437 61.9412 28.8341 61.9412 28.9395C61.9412 29.0457 61.9787 29.1358 62.0521 29.2109C62.1255 29.2847 62.2164 29.3231 62.3211 29.3231C62.428 29.3231 62.517 29.2845 62.5921 29.2109C62.6665 29.1358 62.7038 29.0457 62.7038 28.9395C62.7049 28.8341 62.6663 28.7437 62.5921 28.6701ZM62.5547 29.1733C62.4914 29.2379 62.4124 29.2708 62.3213 29.2708C62.2304 29.2708 62.1532 29.2382 62.0901 29.1733C62.0267 29.1095 61.9941 29.0314 61.9941 28.9395C61.9941 28.8495 62.0267 28.7714 62.0901 28.7076C62.1543 28.643 62.2304 28.6103 62.3213 28.6103C62.4124 28.6103 62.4894 28.643 62.5547 28.7076C62.6181 28.7714 62.6497 28.8495 62.6497 28.9395C62.6497 29.0312 62.6181 29.1095 62.5547 29.1733Z" fill="white"/>
<path d="M62.4942 28.8492C62.4942 28.7968 62.4716 28.7613 62.4298 28.743C62.4021 28.734 62.3665 28.7291 62.3153 28.7291H62.1687V29.1479H62.241V28.9824H62.299C62.3394 28.9824 62.366 28.9873 62.3833 28.9962C62.4081 29.0124 62.4219 29.0442 62.4209 29.0926V29.1249L62.4241 29.1392C62.4241 29.1411 62.4241 29.1421 62.4241 29.1441C62.4241 29.1441 62.4241 29.146 62.4262 29.1481H62.4942L62.4932 29.1421C62.4891 29.1392 62.4891 29.1323 62.4874 29.1208V29.0905V29.0589C62.4874 29.0376 62.4795 29.0144 62.464 28.993C62.4501 28.9717 62.4241 28.9574 62.3927 28.9525C62.4183 28.9484 62.4381 28.9427 62.4529 28.9322C62.4793 28.9141 62.4942 28.887 62.4942 28.8492ZM62.3778 28.9226C62.363 28.9286 62.34 28.9305 62.3097 28.9305H62.2417V28.7797H62.304C62.3453 28.7788 62.3761 28.7846 62.3948 28.795C62.4128 28.8049 62.4226 28.8262 62.4226 28.8569C62.4221 28.8881 62.4072 28.9102 62.3778 28.9226Z" fill="white"/>
<path d="M58.3468 40.4269C54.3645 39.2179 46.1868 39.5025 46.1868 39.5025L52.8711 55.2535C52.8711 55.2535 53.4902 54.9431 53.5675 55.1125C57.1939 51.7222 60.0097 47.4829 61.6982 42.708C61.5651 42.6056 62.3291 41.6358 58.3468 40.4269Z" fill="white"/>
<path d="M44.7662 59.0127C44.4678 57.443 43.2801 52.2502 43.2801 52.2502C43.2801 52.2502 44.8569 51.8359 45.2266 50.9333C45.5963 50.0311 44.7596 48.6411 44.7199 48.0932C44.549 46.4578 43.9065 39.7598 42.8532 38.3731C42.2399 37.5657 39.4194 35.9725 39.1999 35.9821C38.1866 36.0265 36.1599 40.4399 34.4665 40.8399C33.3377 41.1066 32.5405 40.0085 32.7231 40.0915C32.7199 40.0892 32.7161 40.0873 32.7142 40.0853C32.7142 40.0853 32.7161 39.959 32.5273 39.3658C32.3385 38.7703 31.943 38.1457 31.8698 38.0045C31.7987 37.8628 31.5841 37.5546 31.5767 37.5191C31.5707 37.4844 31.4926 37.2858 31.4374 36.9239C31.3322 36.2259 31.3804 35.7583 31.3845 35.7158C31.3866 35.6732 31.406 35.5467 31.4118 35.5211C31.4162 35.4942 31.4058 35.4487 31.3736 35.4409C31.3399 35.4351 31.2498 35.4131 31.1558 35.51C30.9595 35.7079 30.9505 35.7455 30.9469 35.779C30.9401 35.8104 30.9603 35.8701 30.9544 35.9392C30.933 36.1587 30.8946 36.3266 30.7963 36.4868C30.6984 36.649 30.6346 36.7046 30.4959 36.6914C30.3549 36.6786 30.2376 36.5668 30.2205 36.2773C30.2022 35.9881 30.1452 35.8889 30.0872 35.8206C30.0294 35.7493 29.8975 35.7167 29.8525 35.7195C29.8081 35.7195 29.771 35.7591 29.4659 35.834C29.1634 35.911 28.6826 35.9369 28.6118 35.9398C28.5394 35.9441 28.2755 35.9708 28.2736 35.9714C28.3289 36.1779 27.1647 35.8605 26.9689 36.0175C26.5689 36.3375 26.382 38.4154 26.1866 39.4929C26.1864 39.4938 26.1864 39.4948 26.1862 39.4961L19.6266 40.16L17.3333 45.4933C17.3333 45.4933 18.0266 56.0533 18.0266 56.2133C18.0266 56.3733 32.5332 53.0667 32.5332 53.0667L38.0063 52.9483C38.0063 52.9483 38.0076 52.9523 38.0087 52.9628C38.0473 53.2783 38.654 58.3183 38.7775 59.1074L39.1878 61.9853C39.2215 62.2298 39.259 62.477 39.3004 62.7209C39.9353 62.5743 40.564 62.4115 41.1839 62.2257C41.1336 61.9012 41.0817 61.574 41.0248 61.2358C40.9435 60.8256 40.8872 60.4312 40.821 60.0326L40.6474 59.0438C40.4891 58.1105 39.5718 52.7264 39.5718 52.7264L40.5332 52.1193L41.646 52.4593C41.6756 52.5958 41.7053 52.7439 41.739 52.9043C41.9673 54.0213 42.2787 55.6962 42.7645 57.9544L43.1334 60.1472C43.1434 60.2402 43.2622 60.871 43.3716 61.4839C43.9568 61.2593 44.5332 61.0172 45.1018 60.7601L44.7662 59.0127Z" fill="white"/>
<path d="M33.8933 19.0044C32.6843 19.1821 30.9243 20.1688 31.0043 20.8888C31.0536 21.3351 33.575 21.4033 34.711 21.4844C35.847 21.5655 36.0345 20.4734 35.9735 19.8799C35.9125 19.2864 35.1656 18.8175 33.8933 19.0044Z" fill="#F5D4B7"/>
<path d="M42.1433 38.3868C41.5432 38.3243 41.822 39.2971 41.815 39.3956V39.3976C42.1186 40.5425 42.3705 41.6847 42.5655 42.7185C42.5678 42.8205 42.5755 42.9099 42.5881 42.9824C42.6741 43.433 42.852 44.8892 43.1942 48.1786C43.2733 49.274 43.3425 50.4169 43.3881 51.3779C43.4193 51.3758 45.4399 51.4929 45.4399 51.4929C45.4399 51.4929 45.3599 48.6663 44.7332 45.1196C44.1064 41.5731 43.1667 38.4935 42.1433 38.3868Z" fill="#F5D4B7"/>
<path d="M36.6948 29.4801C36.7857 28.9798 36.6816 28.7326 36.5178 28.4401C36.3567 28.1485 36.0452 27.8756 35.6427 27.6111C35.2533 27.3521 34.3733 26.5756 34.288 26.5022C34.2048 26.4305 33.7939 26.042 33.6988 25.9648C33.5998 25.8886 33.408 25.7291 32.9869 25.5155C31.9665 25.001 31.146 25.386 31.1142 25.4037C31.0831 25.4212 30.9316 25.5437 30.7866 25.6815C30.6436 25.817 30.7509 26.0789 30.8058 26.1745C30.8058 26.1745 36.221 30.144 36.2319 30.2366L36.2359 30.2396C36.2359 30.2396 36.6195 29.8889 36.6948 29.4801Z" fill="#F5D4B7"/>
<path d="M34.4545 24.5912C34.2766 24.646 34.1744 24.7027 34.1243 24.7593C34.1145 24.7706 34.1106 24.783 34.1066 24.7949C34.1023 24.8043 34.1023 24.8141 34.1023 24.8235C34.1023 24.8314 34.1023 24.8382 34.1023 24.8452C34.1042 24.8546 34.1081 24.8625 34.1102 24.8711C34.1149 24.8809 34.12 24.8913 34.126 24.9011C34.13 24.9075 34.1339 24.9146 34.1394 24.9214C34.1473 24.9338 34.1584 24.9455 34.1693 24.9579C34.174 24.9639 34.1793 24.9688 34.1851 24.9743C34.1987 24.988 34.2139 25.0025 34.2307 25.0168C34.2348 25.0208 34.2386 25.0247 34.2435 25.0276C34.2625 25.0441 34.2823 25.0592 34.3018 25.0756C34.3058 25.0776 34.3075 25.0797 34.3118 25.0827C34.3355 25.1 34.3594 25.1158 34.383 25.132C34.3839 25.133 34.385 25.133 34.386 25.1339C34.4127 25.1512 34.4383 25.1676 34.463 25.1838C34.4897 25.1996 34.5273 25.2079 34.5729 25.209C34.6162 25.2109 34.6698 25.2049 34.7274 25.1947C34.9172 25.1571 35.1602 25.0614 35.3659 24.9628C35.3659 24.9639 35.3637 24.9628 35.3618 24.9639C35.3499 24.9679 34.9733 24.3465 34.988 24.3281C34.8579 24.4275 34.6917 24.5165 34.4545 24.5912Z" fill="#F5D4B7"/>
<path d="M27.1831 28.3046C27.198 28.3106 27.2113 28.3194 27.2266 28.3253C27.2247 28.3234 27.2234 28.3224 27.2224 28.3204C27.1454 28.2404 27.1394 28.2225 27.1125 28.1137C27.0833 28.0004 27.0092 27.8616 26.9781 27.783C26.9446 27.7039 26.7957 27.4355 26.7383 27.2617C26.6811 27.0876 26.6553 26.9813 26.6438 26.8068C26.5994 26.6752 26.5657 26.4132 26.586 26.1764C26.6033 25.9669 26.6498 25.7257 26.7827 25.0475C26.8727 24.602 26.7317 24.089 26.7268 23.6139C26.7225 23.2476 26.6863 22.3473 26.6963 21.4413V21.4383C26.6336 21.4596 18.5689 19.7295 18.6257 19.721C18.6267 19.721 18.6289 19.7199 18.6306 19.7199C18.6944 19.0522 18.6558 18.1538 18.6197 17.4726C18.8283 15.4266 19.143 13.0581 19.866 11.4793C20.4247 10.2652 20.35 10.6652 20.6261 10.093C20.6415 10.0623 20.6617 10.0262 20.6649 9.98379C20.6679 9.9552 20.6444 9.79456 20.6398 9.74358C20.6398 9.74272 20.6398 9.74272 20.6398 9.74166C20.6233 9.74656 18.6579 9.19616 16.2124 14.8088C15.1889 17.1601 16.551 23.04 16.551 23.04L18.6799 23.7468L20.0665 22.9935L23.3465 22.3202L24.6865 22.9737C24.6865 22.9737 24.2739 24.2283 24.2705 24.2283C24.2705 24.2291 24.2694 24.2291 24.2694 24.2291C24.2694 24.2291 24.2705 24.288 24.2636 24.38C24.2406 24.8307 23.9914 25.2841 23.7836 25.5332C23.5035 25.8724 23.0127 26.1092 22.7332 26.24C22.4516 26.3686 21.9983 26.4644 21.9716 26.4689C21.9475 26.4747 21.7967 26.4952 21.7721 26.499C21.7478 26.5009 21.7013 26.5163 21.6367 26.5291C21.5695 26.5406 21.4959 26.5425 21.4592 26.5579C21.4408 26.5647 21.427 26.5737 21.4156 26.5841C21.3954 26.6005 21.3845 26.6197 21.3792 26.6411C21.3781 26.643 21.3772 26.647 21.3772 26.65C21.373 26.6703 21.373 26.6906 21.3762 26.7089C21.3896 26.7757 21.4619 26.8687 21.4705 26.8849C21.5008 26.9427 21.6746 27.1078 21.9594 27.0441C22.334 26.96 22.5762 26.8849 22.8262 26.8043C23.0784 26.7221 23.4127 26.5775 23.4636 26.5329C23.5155 26.4898 23.6542 26.384 23.6763 26.3718C23.6763 26.3708 23.6772 26.3708 23.6772 26.3708C23.706 26.3445 23.7333 26.3198 23.7604 26.2965C23.7719 26.2867 23.7834 26.2744 23.7952 26.2654C23.7979 26.263 23.7999 26.2611 23.8028 26.2588C23.847 26.7872 23.2132 28.3738 23.2132 28.3738C23.2132 28.3738 21.7365 28.8992 21.8302 28.8297C21.8302 28.8297 21.8284 28.8297 21.8284 28.8305C21.7083 28.8894 21.5317 28.9532 21.3529 28.8132C21.3529 28.8132 21.1791 28.6101 20.9662 28.3407C20.8386 28.1796 20.6978 27.9957 20.5704 27.8163C20.4804 27.6898 20.4162 27.5866 20.3688 27.5014C20.2769 27.3449 20.2402 27.2444 20.224 27.1817C20.222 27.1768 20.2199 27.1712 20.2199 27.1674C20.1802 27.063 20.1472 26.8941 20.1472 26.8941C19.8807 26.861 19.6004 26.8002 19.3416 26.7057C19.3435 26.7066 19.3435 26.7091 19.3457 26.711C19.3672 26.7302 17.5168 27.1339 17.5168 27.1339L19.4314 34.934C19.4314 34.934 23.0048 40.5517 25.2448 39.4673C25.5786 39.3056 26.16 38.167 25.9204 37.7784C25.6742 37.3801 21.8848 31.094 21.8848 31.094C21.8848 31.094 27.1321 28.282 27.1831 28.3046Z" fill="#F5D4B7"/>
<path d="M34.4466 49.5059C35.1466 49.9705 35.39 50.0793 36.1552 50.3993C36.3986 50.5141 37.041 50.3836 37.3157 49.9722C37.3108 49.9744 37.3059 49.9801 37.3021 49.9833C37.2999 49.9842 37.2999 49.9842 37.298 49.9842C37.2801 49.9951 33.4877 47.0193 32.9934 46.8433C32.8174 46.781 31.8488 47.1364 31.9734 47.3154C32.085 47.4765 32.5533 47.9644 32.5644 47.9831C33.2255 48.4973 34.0571 49.1833 34.4466 49.5059Z" fill="#F5D4B7"/>
<path d="M26.3825 44.0177L20.0403 40.3865C20.0403 40.3865 20.2252 42.1856 20.2242 42.2137C20.2252 42.2148 20.2252 42.2148 20.2261 42.2161C20.6888 42.6299 21.4135 43.1257 21.5281 43.2036C21.5703 43.2315 21.8651 43.4261 21.9281 43.4965C22.0059 43.5812 22.7884 44.1378 22.8482 44.1794C22.9053 44.2182 23.7504 44.6846 24.2624 44.9572C24.2807 44.9472 23.9061 45.254 23.9119 45.2441C23.7318 45.2561 23.6012 45.3389 23.4026 45.4022C22.5137 45.9016 23.0412 46.9406 23.1251 47.6644C23.2951 48.2743 23.5099 49.3333 24.3008 49.4321C24.9028 49.5044 26.2809 49.1277 27.0095 48.9783C27.1127 48.7957 28.1689 48.7302 28.1559 48.7449C28.3424 48.6893 28.5924 48.6014 28.6681 48.6154C28.7136 48.6233 28.503 48.8469 28.381 49.0752C28.2583 49.3056 27.5001 51.5439 26.7942 52.7362C26.5574 53.2245 26.6696 53.0229 26.5254 53.3779V53.379L27.9558 53.7064L30.2668 47.8396L26.3825 44.0177Z" fill="#F5D4B7"/>
<path d="M19.1879 48.5783C19.434 49.0351 20.1434 49.9931 20.1781 50.0475C20.2127 50.1009 20.3655 50.2654 20.5455 50.4667C20.726 50.6673 20.8807 50.8426 20.9242 50.8938C20.9677 50.9433 21.3058 51.2943 21.3931 51.3747C21.4801 51.4547 21.581 51.6179 21.6542 51.6859C21.9044 51.9106 22.8258 52.7114 22.9148 52.7776C23.0037 52.8454 23.4432 53.14 23.5224 53.1509C24.3138 53.2512 24.7023 52.8177 24.7825 52.6892C24.8636 52.5638 24.8789 52.5096 24.829 52.3215C24.828 52.3349 21.7737 50.0401 19.747 45.6266C19.6685 45.4558 18.9656 44.6046 18.3202 45.12C17.7903 45.5432 18.1735 46.5574 18.1735 46.5574V46.5632C18.3746 46.9787 18.9773 48.1888 19.1879 48.5783Z" fill="#F5D4B7"/>
<path d="M13.1911 49.0133C13.3955 48.2488 11.7006 48.4192 11.5783 48.3915C11.0499 49.2467 10.489 52.1515 10.2034 53.5119C10.1539 53.6651 10.0873 53.9113 10.009 54.2295C10.3982 54.6251 10.7958 55.0116 11.2046 55.3854C11.4996 54.2374 13.1369 49.2166 13.1911 49.0133Z" fill="#F5D4B7"/>
<path d="M62.4238 29.139C62.4238 29.1409 62.4249 29.1431 62.4249 29.144C62.4249 29.144 62.4249 29.1459 62.426 29.1481C62.4249 29.1461 62.4249 29.144 62.4249 29.144C62.4247 29.1431 62.4238 29.1412 62.4238 29.139Z" fill="#A3080C"/>
<path d="M58.5721 40.0877C57.6268 39.8784 55.3885 39.4291 52.3714 39.152C49.3557 38.8774 46.8872 38.6419 46.548 38.6052C46.2374 38.5743 46.125 38.2897 45.8429 38.1481C44.8207 37.6354 42.8887 37.1597 41.678 36.7334C41.3785 36.6298 41.1816 36.3646 40.7682 35.8605C40.5169 35.5531 40.3468 35.4144 40.1318 35.2196C40.0029 35.1019 39.7224 34.8646 39.6473 34.8073C39.5741 34.748 39.5227 34.5779 39.5861 34.2477C39.6494 33.9162 39.8474 32.6234 39.8312 31.1181C39.8269 30.714 40.0049 30.4553 40.1941 30.3608C40.2958 30.3093 40.9582 30.0147 40.9137 29.3636C40.8669 28.7046 40.6634 27.7854 41.1936 26.4915C41.7066 25.238 42.3473 23.0005 42.4247 21.5245C42.5068 19.9565 42.113 18.9451 41.4944 18.3974C41.2531 18.1858 40.9683 17.866 41.2008 17.1834C41.4489 16.4489 41.8995 14.4429 41.4568 13.116C41.3576 12.8213 41.2452 12.8194 41.1776 12.7838C41.1097 12.7492 40.7882 12.503 40.6675 11.9616C40.5051 11.2478 39.9833 8.71084 38.0157 6.13185C36.9734 4.76268 35.8602 3.94838 35.4156 3.62028C35.111 3.42209 34.5762 3.0494 33.9364 2.70913C33.021 2.22508 32.2944 1.8558 30.8328 1.38284C30.6946 1.33932 30.3816 1.24353 29.9682 1.13324C29.9671 1.13324 29.9635 1.13324 29.9635 1.13324C29.9635 1.13324 28.7182 0.800009 27.3717 0.642783C27.1417 0.621449 26.827 0.592436 26.4699 0.568116C25.0837 0.487049 24.5777 0.572169 23.8568 0.644703C23.7798 0.652169 23.7013 0.663903 23.6238 0.674356C23.4801 0.693556 23.3314 0.715743 23.1758 0.740063C21.034 1.10678 18.855 2.11137 17.7952 2.61676C17.1968 2.90092 16.6675 3.1966 16.1806 3.47393C16.1672 3.48246 16.1499 3.49228 16.141 3.49761C16.0155 3.5742 15.819 3.68364 15.6275 3.78881C15.328 3.95777 15.0417 4.11606 14.7643 4.25153C13.9065 4.66881 13.152 4.88236 12.6003 5.07372C12.5 5.11126 12.4162 5.14305 12.3511 5.16524C11.9534 5.32012 11.7 5.48012 11.6535 5.74401C11.5686 6.21761 12.126 6.65707 11.927 7.41249C11.437 9.2702 9.34011 11.0532 9.0039 11.2589C8.03003 11.8532 8.09083 12.2669 8.05329 12.4785C8.05329 12.6752 8.09361 12.8937 8.20561 13.1296C8.53009 13.8172 9.13041 14.4064 9.42417 15.0278C9.71878 15.6497 9.88667 16.7396 9.6663 18.0137C9.45595 19.2457 9.39003 19.5189 9.28059 19.7449C9.17179 19.9716 8.95227 20.4122 9.25499 20.9361C9.55899 21.4616 10.1996 21.9974 10.6016 22.3059C10.8153 22.471 10.926 22.6208 10.7675 22.9184C10.5064 23.4054 10.5732 24.5538 10.8204 25.1964C11.1938 26.1766 11.6322 27.111 12.039 27.7116C12.4462 28.3117 13.1729 29.3331 13.6002 29.7026C14.0258 30.0745 14.0842 30.7189 14.0759 31.1189C14.0669 31.5168 14.011 32.6449 15.1703 33.3508C15.7416 33.702 15.7928 33.6137 16.0023 33.7858C16.2118 33.955 16.3104 34.0429 16.4552 34.4996C16.6001 34.9547 17.259 36.5502 18.1664 37.6734C18.4311 37.9996 18.5781 38.2308 18.6097 38.2844C18.6417 38.3377 18.6909 38.397 18.5762 38.6658C18.462 38.9348 18.004 40.4661 17.6386 42.0491C17.5718 42.3394 17.4737 42.7211 17.1095 42.9003C16.7447 43.0761 15.93 43.5262 15.6334 43.69C15.335 43.8541 15.1878 43.9433 14.8445 44.3701C14.6918 44.56 14.5806 44.6714 14.4842 44.7872C14.4288 44.8542 14.4042 44.8971 14.1141 45.0483C13.8628 45.1789 10.1333 46.4911 6.17851 48.9103C6.08059 48.9694 5.98907 49.0219 5.89819 49.0724C6.13115 49.4362 6.36881 49.7965 6.61606 50.1483C7.50395 49.6994 9.62214 48.6257 9.95515 48.4597C10.218 48.3273 10.545 48.2758 10.8093 48.2694C10.9685 48.2665 11.105 48.2795 11.1918 48.301C11.3693 48.3445 11.6748 48.412 11.9586 48.4768C11.9848 48.4826 12.011 48.489 12.0381 48.4947C12.0556 48.4988 12.0729 48.5026 12.091 48.5077C12.2082 48.5365 12.3165 48.5624 12.404 48.5858C12.4089 48.5877 12.413 48.5877 12.4179 48.5899C12.4603 48.602 12.4989 48.6125 12.5286 48.6214C12.7805 48.7044 12.9145 49.177 12.7782 49.607C12.7541 49.6881 12.6756 49.961 12.5606 50.3644C12.5034 50.567 12.4379 50.8004 12.3662 51.0594C12.2941 51.3186 12.2154 51.6036 12.1324 51.9061C11.8408 52.9658 11.4984 54.2374 11.2038 55.3854C11.9931 56.105 12.8213 56.7823 13.6819 57.4187C13.7783 56.6735 13.8796 55.8974 13.9581 55.3329C14.1638 53.8601 15.3403 48.4041 15.6725 47.1635C15.9142 46.2609 16.0398 45.8496 16.3575 45.7073C16.4529 45.6659 16.5612 45.6026 16.624 45.5718C16.6867 45.5428 16.8241 45.5096 16.7816 45.7487C16.733 46.0324 16.4881 47.1902 16.1277 50.947C15.8775 53.5533 15.8715 55.8616 15.9616 57.2499C16.0004 57.8411 16.0104 58.6767 16.9149 58.3145C17.9718 57.8923 21.5746 56.6003 23.4993 56.0073C26.5984 55.0513 32.407 53.7745 38.0055 52.9483L39.5709 52.7258C39.5709 52.7258 40.4874 58.1107 40.6453 59.0441L40.8192 60.032L40.647 59.0441C40.4879 58.1107 39.5724 52.7258 39.5724 52.7258C39.7917 52.6957 40.0125 52.6675 40.2299 52.6398C40.7313 52.5764 41.2019 52.5173 41.6448 52.4597L43.28 52.2502C44.0452 52.1523 44.7016 52.0683 45.258 51.9955C45.258 51.9955 46.3148 56.8813 46.7123 58.6364C46.74 58.7518 46.7637 58.8559 46.7835 58.9429L46.9792 59.8398C46.9802 59.8398 46.9813 59.8398 46.9821 59.8398L46.7876 58.9429C46.465 57.5548 45.2612 51.9957 45.2612 51.9957L46.9352 51.7801C47.4304 51.7169 48.0612 51.6378 48.2491 51.6288C48.6425 51.6124 48.8142 51.3899 48.5139 51.2996C48.2971 51.2363 47.7962 51.1861 47.5428 51.18C47.4461 51.1789 47.2701 51.1768 47.165 51.175C46.7776 51.1682 46.6668 51.0918 46.5817 50.5208C46.3404 48.8457 45.4073 44.6938 44.7372 42.5048C44.0887 40.393 43.9285 39.785 43.7723 39.3199C43.6358 38.9195 43.9003 38.8949 44.0275 38.9007C44.5 38.9233 45.1545 39.1686 45.3423 39.5729C45.7576 40.4736 48.599 47.916 49.7399 50.6906C50.4597 52.4384 51.2981 54.5425 52.09 56.4169C52.5973 55.9998 53.0867 55.5605 53.566 55.1119C52.0921 51.8712 48.8106 44.5295 47.0805 40.8141C47.0182 40.6803 46.9341 40.4638 46.8917 40.3366C46.877 40.2942 46.8708 40.2564 46.8708 40.2229C46.8729 39.9859 47.1863 39.9529 47.3414 39.968C47.9522 40.0292 53.5008 40.3951 55.0156 40.5397C56.0153 40.6342 57.0126 40.7868 57.6789 40.9056C57.8333 40.9342 57.9692 40.96 58.084 40.9826C58.2263 41.011 58.3332 41.0336 58.4023 41.0526C58.8966 41.1814 59.7685 41.5264 60.5757 41.9593C60.9096 42.1372 61.2896 42.3964 61.6968 42.7089C61.8195 42.3605 61.9417 42.0115 62.0529 41.6589C61.7623 41.4573 61.4357 41.2514 61.1153 41.0793C60.1934 40.588 59.4154 40.2754 58.5721 40.0877ZM13.3922 21.6875C13.2413 21.7523 13.105 21.7696 13.0007 21.564C12.7477 21.0637 12.5555 20.1728 12.4821 19.594C12.4066 19.0157 12.2909 17.2894 12.3274 16.3462C12.3677 15.4025 12.1834 14.8751 11.8461 14.4237C11.508 13.9729 11.2906 13.66 11.2076 13.5081C11.1033 13.3186 11.1731 13.1891 11.3725 13.0445C11.4694 12.9766 11.6672 13.0174 11.8201 12.9856C12.1226 12.9248 13.1328 12.5585 13.8854 11.9682C14.6363 11.3779 15.8331 10.2362 16.6453 9.7967C17.4549 9.35723 17.8144 9.15691 18.762 9.04321C18.9301 9.02358 19.1822 9.1134 18.8977 9.32993C18.6133 9.54646 17.7013 9.86966 16.6378 11.4744C15.9848 12.4561 15.8784 13.0232 15.6716 13.4637C15.4638 13.904 15.2652 14.0286 14.9365 14.3851C14.7765 14.5551 14.4505 14.9124 14.333 15.4306C14.2188 15.9492 13.7467 17.7762 14.0241 20.5395C14.0567 20.8612 14.1892 21.2894 13.8875 21.4451C13.7013 21.5418 13.5415 21.6237 13.3922 21.6875ZM14.6944 25.4108C14.5337 25.2966 13.8771 24.4077 13.5573 23.4197C13.5221 23.3154 13.4837 23.05 13.6567 22.9743C13.7986 22.9135 13.9869 22.8043 14.0849 22.7578C14.1841 22.7078 14.4313 22.643 14.4654 22.9995C14.5 23.3568 14.5312 23.7779 14.9384 24.832C15.0122 25.0204 15.0274 25.0793 15.0466 25.1548C15.0993 25.3737 14.843 25.5166 14.6944 25.4108ZM16.032 22.0538C15.9884 22.0612 15.5379 22.1156 15.2949 22.1611C15.1441 22.1888 14.9888 22.2451 14.9715 22.0998C14.9512 21.9347 14.9028 21.7167 14.8885 21.6578C14.8755 21.5966 14.9049 21.5386 14.9779 21.5213C15.1569 21.4799 15.8485 21.3636 15.9153 21.3602C15.982 21.3594 16.0497 21.382 16.0787 21.5204C16.1049 21.6593 16.1382 21.8072 16.1461 21.8673C16.1542 21.9292 16.1715 22.0324 16.032 22.0538ZM16.2777 19.7971C16.2361 19.5866 16.1779 19.226 16.1966 19.0016C16.203 18.9122 16.2301 18.6887 16.3374 18.5681C16.4891 18.3962 16.6907 18.2398 16.8215 18.134C17.0594 17.9392 17.0099 17.4351 17.0272 17.1458C17.0796 16.3055 17.005 13.6518 18.727 11.113C18.7933 11.0165 18.861 10.9276 18.9275 10.8435C18.9478 10.8184 18.9681 10.7951 18.9883 10.7704C19.0378 10.7121 19.0871 10.656 19.1381 10.6042C19.1594 10.5809 19.1805 10.5587 19.2029 10.5374C19.2637 10.4774 19.3256 10.4203 19.3873 10.3684C19.3962 10.3614 19.4041 10.3535 19.4124 10.3462C19.4822 10.2899 19.5522 10.2389 19.6217 10.1905C19.6469 10.1741 19.6721 10.1579 19.6972 10.1432C19.7452 10.1116 19.7937 10.0832 19.8421 10.0557C19.8696 10.0408 19.8969 10.0254 19.9251 10.0111C19.978 9.98401 20.0324 9.95862 20.0861 9.93451C20.1066 9.92598 20.1267 9.91617 20.1469 9.90678C20.2167 9.87755 20.2884 9.85153 20.3594 9.82721C20.3899 9.81676 20.4194 9.80801 20.4494 9.79862C20.4972 9.78369 20.5448 9.76939 20.5924 9.75617C20.6086 9.75212 20.6235 9.74636 20.64 9.7423C20.64 9.74316 20.64 9.74315 20.64 9.74422C20.9905 9.65078 21.3499 9.5983 21.713 9.53665C22.7381 9.36257 23.933 9.52534 24.5476 9.72097C25.0361 9.87564 25.2836 9.99425 25.447 9.84001C25.611 9.68641 26.039 9.20129 26.2205 9.02934C26.2455 9.00502 26.2651 8.97836 26.2786 8.95212C26.2841 8.94316 26.2871 8.93398 26.2912 8.92502C26.2978 8.90774 26.3035 8.88939 26.3063 8.87126C26.3074 8.86145 26.3095 8.851 26.3095 8.84012C26.3095 8.82283 26.3074 8.80556 26.3046 8.78721C26.3027 8.77825 26.3027 8.76801 26.2982 8.75905C26.2916 8.73388 26.2805 8.70955 26.2653 8.6863C26.2254 8.61996 26.1621 8.56086 26.0836 8.51372C25.8843 8.3966 23.8837 6.92844 21.1867 6.86273C18.5514 6.79681 16.4125 7.72929 15.8453 7.92449C15.7305 7.9631 15.6716 7.98337 15.6042 7.98422C15.5374 7.98614 15.3075 7.90763 15.3926 7.74145C15.486 7.56395 15.7198 7.29068 15.9628 7.06924C16.2178 6.83948 17.4647 5.66572 18.6963 5.12214C18.9241 5.0223 18.9796 4.9807 19.1255 4.92396C19.312 4.85334 19.4222 4.43308 19.0103 4.43201C18.5881 4.42902 18.42 4.47638 18.1971 4.51116C17.9737 4.54828 17.851 4.44844 17.9921 4.25708C18.1314 4.06636 18.4068 3.85473 18.9038 3.58486C19.9831 2.9967 21.9573 2.37676 22.8906 2.1726C24.1077 1.90614 24.2564 1.88886 25.0641 1.83937C25.8195 1.79585 26.4236 1.84918 26.7095 1.8607C29.1293 1.95265 31.9161 2.7535 34.0736 4.17409C36.125 5.68342 39.0773 8.19798 39.6625 14.4053C39.7326 15.1503 39.6834 15.5725 39.6546 15.7589C39.629 15.9454 39.4173 16.2882 39.2315 15.8989C38.6195 14.6161 37.6733 12.9374 36.6056 11.3461C36.5422 11.2516 36.4778 11.2062 36.4256 11.1994C36.4036 11.1949 36.385 11.1985 36.3662 11.2064C36.3616 11.2094 36.3584 11.2143 36.3534 11.2177C36.3432 11.2256 36.3323 11.2354 36.3244 11.2489C36.3204 11.2582 36.3155 11.2681 36.3125 11.2781C36.3076 11.2915 36.3046 11.3067 36.3027 11.3216C36.3005 11.335 36.2984 11.3474 36.2984 11.3613C36.2984 11.3929 36.3005 11.4276 36.3095 11.4656C36.3362 11.5782 36.6762 13.2614 36.6888 13.4959C36.7035 13.7297 36.589 14.3036 37.4609 15.3626C37.8169 15.7971 38.1331 16.1683 38.2954 16.8094C38.4554 17.4481 38.5098 17.7214 38.5109 17.7892C38.5132 17.856 38.59 18.0463 38.2816 18.0482C37.975 18.0491 36.8044 17.9642 36.3035 17.9755C35.8022 17.9874 32.3421 18.3268 31.0549 18.6003C29.7674 18.8743 29.0747 19.1985 28.4136 19.8931C28.2545 20.0602 28.032 20.2159 27.9814 20.2302C27.9336 20.2436 27.7657 20.24 27.4376 20.2178C27.1108 20.1965 26.544 20.2767 26.2464 20.4111C25.9468 20.5451 25.7333 20.6697 25.3725 20.5227C24.8569 20.314 23.9724 19.3615 21.6759 19.4737C20.2935 19.5413 19.5852 19.5791 18.6259 19.721C18.57 19.7299 18.5122 19.7382 18.4548 19.7472C18.4183 19.7532 18.3805 19.7589 18.3432 19.7653C18.3229 19.7683 18.3018 19.7713 18.2805 19.7752C17.8899 19.8389 17.4487 19.9211 16.9041 20.0273C16.8285 20.0416 16.7543 20.057 16.6762 20.0717C16.464 20.1141 16.3172 20.019 16.2777 19.7971ZM37.4244 19.2049C37.4244 19.2781 37.3354 19.3538 37.2443 19.3692C37.1543 19.3835 36.5365 19.44 36.4377 19.4473C36.3409 19.4541 36.2459 19.4008 36.2378 19.3094C36.2299 19.2194 36.2099 19.0059 36.2043 18.95C36.1943 18.8975 36.1922 18.8243 36.318 18.8081C36.3912 18.7992 37.0355 18.7413 37.2731 18.7132C37.3621 18.7027 37.4203 18.7829 37.4225 18.8608C37.4225 18.9389 37.4225 19.1324 37.4244 19.2049ZM34.5346 19.8985C34.3434 19.7641 34.0074 19.5524 33.8039 19.4782C33.6635 19.4278 33.7126 19.2523 33.9127 19.2241C34.6088 19.1228 35.0553 19.1228 35.4016 19.3389C35.6548 19.4957 35.8229 19.8001 35.7454 20.0685C35.6544 20.3765 35.5338 20.3098 35.3826 20.3072C35.2313 20.3044 34.7234 20.0335 34.5346 19.8985ZM34.9369 21.2565C34.8145 21.3391 34.414 21.2655 34.2685 21.2085C33.9701 21.0914 33.7582 21.0104 33.3431 20.7469C33.072 20.5749 32.6007 20.4898 32.1883 20.6144C31.9165 20.6965 31.6981 20.7652 31.4587 20.8576C31.2189 20.9496 31.1699 20.7311 31.2326 20.6377C31.2945 20.5444 31.674 20.1001 32.1774 19.911C32.2833 19.8705 32.4987 19.8483 32.6045 19.8462C32.929 19.8368 33.3312 19.9951 33.6358 20.2174C33.943 20.4414 34.4307 20.8066 34.7511 20.9436C34.9013 21.0082 35.2275 21.0558 34.9369 21.2565ZM24.9286 32.0625C23.7143 32.4877 23.3738 32.0606 23.2657 31.9339C23.1579 31.8074 23.2908 31.6838 23.4195 31.6239C23.7083 31.4895 24.0949 31.1968 24.2901 31.0063C24.4864 30.816 24.8676 30.1536 25.1428 29.9209C25.2733 29.8097 25.9786 29.5699 26.5092 29.8229C27.14 30.1235 28.1222 30.1547 28.7253 30.0762C29.328 29.9951 29.5577 29.5546 29.6885 29.2945C29.8188 29.0321 30.1386 28.9361 30.3067 28.867C30.7694 28.6778 31.3819 28.0429 31.4446 27.9782C31.5074 27.9115 31.6983 27.8176 32.0019 27.9955C32.5544 28.3202 32.8354 28.7499 33.3484 29.3327C33.8615 29.916 34.4686 30.007 34.6466 30.0184C34.8247 30.0297 34.9354 30.236 34.9435 30.2927C34.9533 30.3494 34.8051 30.5468 34.6944 30.6298C34.5832 30.7128 34.522 30.8597 33.5396 30.883C28.6099 31.0046 26.3916 31.5505 24.9286 32.0625ZM31.6149 32.6558C31.3224 32.807 30.4524 33.1349 30.0194 33.2184C29.5848 33.3018 28.206 33.5812 27.9733 33.6C27.6836 33.6224 27.2776 33.5356 26.9252 33.2945C26.8544 33.2457 26.7581 33.0562 27.0152 33.0182C27.4922 32.9474 28.2624 32.5894 31.0638 32.4467C31.3649 32.4312 31.5063 32.425 31.5784 32.4233C31.6505 32.4218 31.9095 32.5045 31.6149 32.6558ZM25.1244 38.8755C24.1461 39.0368 21.5415 38.2726 19.8481 34.0934C19.4116 33.0185 19.8903 31.9488 20.3104 31.7325C20.5595 31.606 20.6944 31.5546 20.7793 31.5332C20.8714 31.51 21.3147 31.4522 21.3651 31.9509C21.405 32.3544 22.1881 35.6666 23.2411 36.7618C23.5008 37.0334 23.706 37.0168 23.773 36.7362C23.8306 36.4792 23.9441 36.141 23.9771 36.0122C24.0004 35.9192 24.2545 35.6384 24.3985 35.9964C24.7082 36.7561 25.082 37.7506 25.3275 38.1489C25.5677 38.5376 25.4905 38.8149 25.1244 38.8755ZM25.3175 27.9482C25.4094 28.0757 25.4664 28.3076 25.4594 28.41C25.45 28.5282 25.0459 28.7426 24.6259 28.2712C24.2056 27.7986 24.2877 27.1456 24.4616 26.8683C24.7389 26.4258 25.2838 26.6462 25.2311 26.8041C25.0491 27.3506 25.2241 27.8197 25.3175 27.9482ZM22.1954 21.8283C21.8811 21.818 21.543 21.7794 20.9693 21.9919C20.3272 22.2291 19.9144 22.5387 19.6157 22.7219C19.3088 22.9133 18.9838 22.9954 18.875 23.0033C18.7669 23.0127 18.3726 22.9609 18.6442 22.6754C18.7163 22.5973 18.8893 22.5385 19.152 22.3471C19.3397 22.2089 19.4788 22.1103 19.6923 21.9305C20.0729 21.6062 20.8486 21.1375 21.1867 21.0959C21.4348 21.0662 21.8734 21.1132 22.1344 21.3267C22.4059 21.5497 22.5102 21.8383 22.1954 21.8283ZM16.7923 22.3851C16.8253 22.1794 17.0502 21.6371 17.524 21.4799C17.5878 21.4607 17.824 21.3839 18.0213 21.3331C18.254 21.2745 18.5043 21.2228 18.6318 21.1998C18.9747 21.1401 19.047 21.401 18.8311 21.571C18.6897 21.6836 18.4637 21.8304 18.2641 21.9921C17.9605 22.2404 17.6689 22.5165 17.4434 22.704C17.1688 22.9327 16.724 22.8073 16.7923 22.3851ZM18.4019 28.2904C18.4008 28.2895 18.4 28.2884 18.4 28.2884C18.398 28.2854 18.3968 28.2835 18.395 28.281C18.3101 28.1617 18.2308 28.0363 18.1568 27.9087C18.1412 27.8805 18.1256 27.8517 18.1094 27.8236C18.0356 27.6866 17.9665 27.5482 17.9121 27.4025C17.8058 27.1202 17.9837 27.0786 18.1024 27.1401C18.2208 27.2034 18.5672 27.4054 18.9373 27.4835C19.1635 27.53 19.2977 27.4217 19.3508 27.2587C19.3587 27.2344 19.3689 27.2043 19.38 27.1716C19.3864 27.1573 19.3913 27.142 19.3962 27.1262C19.3992 27.1168 19.402 27.107 19.4056 27.0965C19.4103 27.0788 19.4146 27.0616 19.4184 27.0432C19.4216 27.0338 19.4227 27.024 19.4244 27.0146C19.4289 26.9958 19.4308 26.9775 19.4329 26.9583C19.4338 26.9489 19.4338 26.94 19.4348 26.9295C19.4348 26.9107 19.4329 26.8924 19.4308 26.8732C19.4297 26.8649 19.4286 26.8559 19.4265 26.848C19.422 26.8277 19.4141 26.8085 19.4052 26.7893C19.4013 26.7834 19.3996 26.777 19.3966 26.7721C19.3836 26.7499 19.3661 26.7294 19.3452 26.7102C19.3177 26.6861 19.2834 26.6637 19.239 26.6464C18.9166 26.5169 18.0027 26.2283 17.3164 24.9519C17.217 24.7714 17.3111 24.6178 17.3779 24.5638C17.4449 24.5105 17.6838 24.3582 17.7981 24.2876C17.9138 24.2168 18.0704 24.2249 18.2336 24.3375C18.3904 24.4497 18.731 24.6978 19.0043 24.6737C19.2582 24.649 19.2836 24.5449 19.3288 24.4789C19.5078 24.2178 19.9927 23.2693 21.2635 23.254C21.7879 23.2472 22.279 23.2956 22.4548 23.2847C22.6286 23.2734 23.2488 23.2175 23.614 22.969C23.9737 22.7217 24.1271 22.8996 23.9193 23.1701C23.8884 23.2107 23.8604 23.2463 23.8342 23.2819C23.824 23.2947 23.8161 23.306 23.8067 23.318C23.7785 23.3555 23.7542 23.3912 23.7329 23.4253C23.6537 23.5593 23.6439 23.6753 23.7915 23.8345C24.0234 24.0811 24.0838 24.1252 24.1591 24.1835C24.1926 24.2101 24.2327 24.2259 24.2794 24.227C24.2986 24.227 24.32 24.2229 24.3413 24.2172C24.3502 24.2142 24.359 24.2142 24.3694 24.2104C24.4014 24.1961 24.4354 24.1766 24.4727 24.1451C24.6052 24.028 24.6941 23.9582 24.8098 23.8089C24.8957 23.6986 24.9685 23.8097 24.9472 23.9823C24.9303 24.1167 24.9907 24.9794 24.0505 26.0401C24.0198 26.0757 23.9483 26.1346 23.8594 26.2101C23.838 26.2274 23.818 26.2447 23.7947 26.265C23.7832 26.2748 23.7715 26.2863 23.76 26.2961C23.7305 26.3217 23.7013 26.349 23.671 26.3772C23.6469 26.3994 23.6224 26.426 23.5978 26.4504C23.5726 26.4755 23.5483 26.4988 23.5229 26.5259C23.5076 26.5423 23.4922 26.5615 23.4764 26.5798C23.4449 26.6155 23.4126 26.6515 23.3811 26.691C23.3713 26.7044 23.3619 26.7181 23.3529 26.7307C23.3173 26.7772 23.2827 26.8241 23.2516 26.8734C23.2117 26.9372 23.1746 27.004 23.1421 27.0735C22.8806 27.6316 22.9145 27.8157 22.8861 28.0192C22.8605 28.2208 22.704 28.301 22.5277 28.3825C22.4215 28.4314 22.1399 28.5941 21.8278 28.8303L21.8295 28.8288C21.7361 28.899 21.6409 28.9771 21.5466 29.0577C21.5285 29.0741 21.511 29.0893 21.4941 29.1057C21.3998 29.1887 21.3068 29.2768 21.2209 29.3685C21.1639 29.4285 21.1052 29.4812 21.0464 29.5288C21.0261 29.5445 21.0073 29.5569 20.9873 29.5712C20.9459 29.6013 20.903 29.6294 20.8608 29.6542C20.8386 29.6672 20.8147 29.6794 20.7927 29.6894C20.75 29.7107 20.7076 29.728 20.6638 29.7432C20.6408 29.751 20.6184 29.7606 20.5954 29.7664C20.5838 29.7694 20.5732 29.7743 20.5627 29.7777C20.5356 29.7837 20.5083 29.7845 20.4812 29.7886C20.4475 29.7946 20.414 29.801 20.3797 29.8029C20.3421 29.8048 20.3037 29.8029 20.2651 29.801C20.2321 29.7973 20.1984 29.7973 20.1661 29.7935C20.1265 29.7875 20.0872 29.7752 20.0484 29.7643C20.0155 29.7557 19.9827 29.7489 19.9492 29.7372C19.9121 29.7229 19.8754 29.7024 19.838 29.6843C19.8024 29.667 19.7683 29.6531 19.7337 29.6318C19.7305 29.6292 19.7269 29.6284 19.7239 29.6265C19.6612 29.5868 19.5972 29.5405 19.5332 29.488C19.3683 29.3461 19.1876 29.181 19.0088 29.001C19.0041 28.9956 18.9994 28.9907 18.9947 28.9867C18.9898 28.9818 18.9849 28.9758 18.9804 28.9702C18.8885 28.8772 18.7965 28.778 18.7072 28.6746C18.6995 28.665 18.4908 28.4139 18.4019 28.2904ZM29.7013 48.1116C29.6435 48.412 29.3984 49.4242 28.4985 51.5074C28.4377 51.6478 28.3786 51.7833 28.321 51.914C28.3072 51.9448 28.2929 51.974 28.2794 52.0049C28.2572 52.055 28.234 52.1058 28.212 52.153C28.2099 52.157 28.2088 52.1609 28.2071 52.1649C28.1745 52.2374 28.1414 52.3053 28.1077 52.3729C28.1077 52.3729 28.1058 52.3748 28.1058 52.3772C28.1015 52.3851 28.0968 52.3938 28.0915 52.4026C28.0795 52.4262 28.0672 52.4493 28.0554 52.4717C28.0392 52.5018 28.0238 52.534 28.0066 52.563C28.0066 52.566 28.0055 52.567 28.0046 52.5685C28.0006 52.5745 27.9968 52.5805 27.9927 52.5884C27.9773 52.615 27.9552 52.6539 27.9541 52.6556C27.952 52.6596 27.9492 52.6633 27.947 52.6675C27.947 52.6675 27.947 52.6675 27.947 52.6697C27.9355 52.6863 27.9255 52.7032 27.9155 52.7189C27.9125 52.7245 27.9097 52.7309 27.9065 52.7356C27.9046 52.7377 27.9031 52.7403 27.9001 52.7433C27.8865 52.7659 27.872 52.787 27.8579 52.8105C27.8547 52.8137 27.8519 52.8162 27.85 52.8194C27.8338 52.8431 27.8173 52.8661 27.8013 52.8885C27.8005 52.8885 27.7979 52.8928 27.7952 52.8943C27.7815 52.9133 27.7668 52.9321 27.7527 52.9498C27.7484 52.954 27.7459 52.9577 27.7429 52.9598C27.7267 52.9816 27.7094 52.9986 27.6942 53.0174C27.6919 53.0174 27.6898 53.0204 27.6881 53.0229C27.6791 53.0319 27.6686 53.0409 27.6597 53.0507H27.6588C27.6541 53.0566 27.6484 53.0616 27.6424 53.0665C27.6394 53.0694 27.6347 53.0722 27.6315 53.0765C27.6142 53.0921 27.5978 53.1074 27.5805 53.1189C27.5786 53.1209 27.5776 53.1219 27.5748 53.1232C27.5594 53.136 27.5432 53.1465 27.527 53.1565C27.5225 53.1595 27.5189 53.1622 27.5146 53.1644C27.5116 53.1663 27.5086 53.1674 27.5067 53.1686C27.5033 53.1716 27.5003 53.1733 27.4973 53.1733C27.4854 53.1812 27.473 53.1881 27.4606 53.1953C27.4606 53.1953 27.4587 53.1953 27.4566 53.1962C27.4408 53.2049 27.4235 53.2109 27.4052 53.2171C27.4009 53.2192 27.3966 53.2213 27.3917 53.2228C27.3725 53.2286 27.3542 53.2339 27.3339 53.2386C27.147 53.2789 26.9472 53.3077 26.8302 53.3278C26.813 53.3295 26.6933 53.3496 26.6835 53.3532C26.6346 53.3602 26.5819 53.3681 26.5254 53.3779C26.5254 53.3779 26.5254 53.3779 26.5254 53.3769C25.1748 53.6043 21.501 54.2368 19.7969 54.5811C18.6664 54.8068 18.7776 54.2374 18.4938 53.2098C18.3746 52.7778 17.9547 48.9557 18.173 46.5568C18.2461 45.7602 18.2811 45.5268 18.4241 45.4389C18.5668 45.3508 18.7854 45.2085 18.8512 45.1898C18.9152 45.1729 19.1099 45.1215 19.2008 45.2856C19.2898 45.4477 20.9397 48.7951 22.0181 50.0075C22.9749 51.088 23.6475 51.8718 24.4541 52.3981C24.5075 52.4337 24.5533 52.4557 24.5949 52.4693C24.599 52.4713 24.6039 52.4738 24.6086 52.4751C24.6278 52.4809 24.6451 52.4838 24.6615 52.486C24.6777 52.4881 24.6926 52.487 24.7069 52.486C24.7112 52.4851 24.7148 52.4851 24.7191 52.4838C24.7458 52.4781 24.7671 52.4651 24.7833 52.4484C24.7852 52.4463 24.7874 52.4435 24.7904 52.4405C24.8055 52.4218 24.8166 52.3981 24.8221 52.3725C24.8232 52.3684 24.8232 52.3635 24.8232 52.3593C24.8454 52.2347 24.7861 52.0459 24.6677 51.9177C24.4898 51.7259 23.7527 50.9675 22.7818 49.5864C21.5259 47.8037 20.6749 45.1729 20.446 44.3302C20.2963 43.7786 20.2122 42.9086 20.2261 42.2144C20.2252 42.2144 20.2242 42.2144 20.2242 42.2144C20.2252 42.1837 20.2261 42.157 20.2278 42.1276C20.2286 42.1056 20.2297 42.0843 20.231 42.0612C20.2329 42.0145 20.235 41.9682 20.2376 41.9236C20.2425 41.8581 20.2474 41.7948 20.2551 41.7357C20.2583 41.7099 20.2619 41.687 20.2649 41.6623C20.2713 41.6211 20.2775 41.5812 20.2835 41.5445C20.2875 41.5226 20.2918 41.5021 20.2969 41.4822C20.3078 41.4289 20.3202 41.3796 20.3355 41.3368C20.5309 40.7785 20.6941 40.8384 20.8669 41.0255C21.0402 41.2143 22.5992 42.6291 25.1697 43.7809C25.7156 44.0252 26.0411 44.1376 26.1156 44.218C26.1892 44.2959 26.3067 44.4612 26.0731 44.5163C25.8423 44.5709 25.1566 44.5952 24.4388 44.8789C24.3972 44.8958 24.3588 44.9126 24.3236 44.9282C24.0725 45.0409 23.9547 45.1539 23.9014 45.2753C23.8909 45.2988 23.883 45.324 23.8773 45.3487C23.8728 45.3653 23.8688 45.3852 23.8668 45.4031C23.8636 45.4306 23.8626 45.4584 23.8636 45.4861C23.8636 45.5042 23.8626 45.523 23.8645 45.5418C23.8666 45.5772 23.8705 45.613 23.8743 45.6506C23.8828 45.7139 23.8916 45.7792 23.898 45.8509C23.936 46.2404 24.0034 46.5184 24.0529 47.0394C24.1013 47.5622 24.0712 48.0348 24.3261 48.2554C24.5802 48.473 24.9271 48.6022 25.8536 48.4224C26.7325 48.2511 27.0252 48.1762 27.1293 48.1732C27.2315 48.17 27.4784 48.1286 27.3275 48.4164C27.3132 48.4442 27.2945 48.4777 27.2723 48.5184C27.0696 48.8792 26.5787 49.6922 26.4115 50.2338C26.2261 50.8309 26.1885 50.9961 26.1723 51.098C26.1574 51.2006 26.2282 51.3984 26.4106 51.1772C26.5926 50.9555 26.9529 50.1301 27.8581 49.0793C27.9795 48.9389 28.0908 48.8154 28.1954 48.7014C28.1962 48.7014 28.1973 48.6993 28.1994 48.6972C28.2813 48.6093 28.3575 48.5293 28.4302 48.4559C28.4505 48.435 28.4697 48.4162 28.4891 48.3979C28.551 48.3377 28.6088 48.2822 28.6628 48.2298C28.6771 48.2176 28.6926 48.2031 28.7052 48.1909C28.8403 48.0687 28.9563 47.9744 29.0577 47.9006C29.0679 47.8948 29.0769 47.8884 29.0862 47.8818C29.1253 47.853 29.1639 47.8272 29.1995 47.8057C29.2093 47.7999 29.2198 47.7929 29.2296 47.7858C29.2652 47.7638 29.2989 47.7457 29.3301 47.7284C29.335 47.7242 29.3427 47.7205 29.3482 47.7176C29.3525 47.7163 29.3553 47.7133 29.358 47.7118C29.3947 47.6949 29.4252 47.677 29.4564 47.6629C29.7092 47.5384 29.7779 47.7112 29.7013 48.1116ZM31.1997 52.711C31.0547 52.7445 30.4281 52.8397 30.3313 52.8412C30.2359 52.8435 30.1548 52.7544 30.1954 52.6859C30.2357 52.6187 30.667 52.0574 30.9041 51.0803C30.944 50.9212 31.0436 50.8105 31.1082 51.0392C31.1581 51.2062 31.3516 52.0367 31.3962 52.3492C31.4028 52.4038 31.4363 52.6556 31.1997 52.711ZM31.4626 44.7441C31.0508 44.8986 30.593 44.4358 30.2225 44.1886C29.3896 43.6192 28.6233 43.0705 27.9946 42.3023C27.0316 41.1266 27.1217 40.307 27.4013 38.7883C27.5957 37.7094 27.2433 36.695 27.1665 36.5521C27.0903 36.4088 27.1763 36.2633 27.4041 36.3699C27.6317 36.477 27.8496 36.8092 28.0834 37.094C28.3153 37.3788 28.3667 37.1763 28.3859 36.9828C28.4302 36.5361 28.3296 36.1784 28.2739 35.9708H28.2726C28.2696 35.9608 28.267 35.9482 28.2649 35.9373C28.2323 35.8136 28.1171 35.5377 27.8747 35.4876C27.55 35.4193 27.2309 35.3905 27.0577 35.2659C26.977 35.2079 26.8853 35.0893 26.9762 35.0022C27.1415 34.842 27.3817 34.6296 27.61 34.5515C27.9204 34.4448 28.2188 34.2825 28.612 34.2846C31.2654 34.3014 31.981 33.6875 32.9954 33.2666C33.1942 33.1832 33.3134 33.146 33.4837 33.1994C33.6548 33.2508 34.1186 33.4251 34.2357 33.6312C34.3534 33.8381 34.3741 34.7002 34.6007 35.322C34.8241 35.9458 35.2046 35.2994 35.2881 35.0325C35.3681 34.7644 35.3994 34.1269 35.4037 33.9657C35.4077 33.8044 35.4549 33.1243 35.6684 32.8949C36.0925 32.442 36.1924 31.9061 36.2438 31.6966C36.2892 31.5087 36.3249 30.9833 36.2318 30.2368C36.2218 30.1449 36.2082 30.0484 36.192 29.9497C36.0486 29.0494 35.8675 28.9732 35.6234 28.8096C35.3785 28.6464 35.1221 28.7172 34.4987 28.2901C33.9411 27.9066 33.4348 27.2363 33.0126 26.8273C32.5922 26.419 31.9272 26.0083 31.2258 25.936C31.1814 25.932 31.1426 25.9311 31.1069 25.9311C31.104 25.9311 31.1022 25.9311 31.099 25.9311C31.0679 25.933 31.0385 25.9352 31.0133 25.9405C31.0084 25.9413 31.0054 25.9435 30.9998 25.9445C30.9777 25.9486 30.9574 25.9544 30.9401 25.9614C30.9354 25.9648 30.9312 25.9678 30.9254 25.9699C30.912 25.9778 30.8987 25.9853 30.8878 25.994C30.8829 25.9989 30.8789 26.0038 30.8736 26.0094C30.8657 26.0173 30.8578 26.0258 30.8522 26.0356C30.8473 26.0425 30.8443 26.051 30.8401 26.0589C30.8371 26.0674 30.8326 26.0742 30.8307 26.0821C30.8266 26.0945 30.8247 26.1065 30.8228 26.1197C30.8228 26.1246 30.8219 26.1286 30.8219 26.134C30.8209 26.1513 30.8209 26.1692 30.8228 26.1873H30.8219C30.8362 26.3608 30.9612 26.5724 30.993 26.6594C31.0374 26.7776 31.1496 27.139 30.9506 27.3496C30.75 27.5601 29.5776 28.6091 28.4795 28.5828C27.9833 28.5715 27.5692 28.4696 27.2217 28.3213C27.2236 28.3232 27.2249 28.3247 27.226 28.3266C27.2113 28.3202 27.1989 28.3123 27.1835 28.3053C27.1005 28.2688 27.0218 28.2291 26.9467 28.1875C26.9348 28.1807 26.9205 28.1747 26.907 28.1673C26.8228 28.1188 26.7456 28.0678 26.672 28.0156C26.6498 27.9992 26.6284 27.9829 26.6071 27.9672C26.5512 27.9247 26.4979 27.8812 26.448 27.8366C26.4332 27.8232 26.4162 27.8099 26.4014 27.7969C26.3417 27.74 26.2862 27.6843 26.2344 27.6288C26.2216 27.6134 26.2103 27.5992 26.1973 27.5853C26.1576 27.5394 26.1213 27.4938 26.0864 27.4494C26.0755 27.4351 26.065 27.4223 26.0552 27.4078C26.0157 27.3519 25.9793 27.2986 25.9481 27.2472C25.9438 27.2408 25.9417 27.2358 25.9377 27.2299C25.9106 27.1829 25.8873 27.1384 25.8668 27.0978C25.8619 27.0869 25.8566 27.0771 25.8515 27.0656C25.8312 27.0221 25.8139 26.9796 25.8022 26.944C25.642 26.4621 26.0398 25.3231 26.0258 24.5075C26.0209 24.1502 25.947 23.4645 25.8922 22.9888C25.8376 22.5129 26.0885 21.8722 26.2052 21.7169C26.2314 21.6828 26.2709 21.6501 26.3163 21.6181C26.3278 21.6096 26.3406 21.6028 26.3528 21.5949C26.3953 21.5672 26.4439 21.5409 26.4989 21.5168C26.5068 21.5128 26.5143 21.5089 26.5233 21.5044C26.577 21.4822 26.6344 21.459 26.6969 21.4387V21.4417C26.7993 21.4065 26.9096 21.3739 27.0304 21.3468C27.4214 21.2597 27.8786 21.4532 27.9961 21.776C28.4049 22.902 28.8578 23.1398 29.0094 23.2134C29.1635 23.2885 29.4054 23.0656 29.5003 22.9835C29.5957 22.9039 29.8254 22.6018 29.7235 22.4693C29.5662 22.2682 29.4801 22.1446 29.4346 22.019C29.3576 21.8065 29.6354 21.802 29.7011 21.8317C30.538 22.1862 30.9388 22.2607 31.7491 22.2336C32.5578 22.2084 33.8158 21.6755 33.9716 21.6725C34.0985 21.6696 34.3494 21.7476 34.4435 21.8782C34.459 21.9004 34.4802 21.932 34.5 21.9631C34.5811 22.0836 34.6899 22.2453 34.7867 22.279C34.791 22.2799 34.7936 22.282 34.7976 22.2831C34.9175 22.3128 35.2029 22.291 35.3542 22.2974C35.5588 22.3044 35.9138 22.2336 35.9037 22.6093C35.8811 23.6124 35.0882 24.2381 35.0161 24.2989C34.9883 24.3241 34.9725 24.3563 34.9583 24.3889C34.9542 24.3979 34.9465 24.4073 34.9448 24.4171C34.9405 24.4354 34.9369 24.4538 34.9369 24.471C34.9369 24.4892 34.939 24.5056 34.9429 24.5195C34.9617 24.5792 35.0474 24.7957 35.0841 24.8546C35.0971 24.876 35.1129 24.8962 35.1332 24.9154C35.1381 24.9203 35.1464 24.9244 35.1522 24.9297C35.168 24.9417 35.1835 24.953 35.2014 24.9609C35.2104 24.9658 35.2224 24.9668 35.2328 24.9702C35.2495 24.9743 35.2684 24.9781 35.2874 24.9771C35.2994 24.9771 35.3141 24.973 35.326 24.9702C35.3557 24.9638 35.3834 24.9579 35.415 24.9387C36.087 24.5368 36.3603 24.0617 36.6528 23.4645C36.9444 22.8702 37.0978 20.9073 37.1146 20.5854C37.1313 20.2611 37.2332 20.0619 37.3924 19.9315C37.5505 19.8005 38.3355 19.2977 38.4462 19.2721C38.5589 19.2459 38.6875 19.235 38.814 19.5277C38.9429 19.8223 39.2234 21.632 39.2768 21.9102C39.3371 22.2059 39.4903 22.1707 39.5675 22.1139C39.7354 21.9913 39.857 21.8404 40.0066 21.5836C40.161 21.3265 40.048 20.972 39.8978 20.8068C39.7497 20.6409 39.515 20.3757 39.6149 20.1124C39.8423 19.5142 40.3202 19.5443 40.4484 19.5657C40.574 19.587 41.0583 19.805 41.1458 21.1085C41.2723 23.0394 40.4849 25.036 40.2971 25.5422C39.882 26.6677 39.7949 27.434 39.7307 27.7988C39.6684 28.1621 39.3926 28.0964 39.3262 28.0376C39.259 27.9789 39.1729 27.6975 39.1304 27.6559C39.0869 27.6143 38.9781 27.6356 38.9068 27.9456C38.8358 28.2549 38.5986 28.6846 38.4597 28.9184C38.3667 29.0701 38.384 29.2877 38.4064 29.4566C38.448 29.785 38.6188 31.0411 38.5666 32.4691C38.4719 35.0099 37.6224 36.6104 36.9888 37.4481C35.498 39.4195 34.0998 40.2434 33.9319 40.3603C33.7162 40.5107 33.3555 40.4873 33.2347 40.4474C33.1121 40.4128 33.0043 40.2861 32.775 40.1225C32.7562 40.1077 32.7374 40.0998 32.7217 40.0915C32.5395 40.0073 32.5122 40.2637 32.5139 40.3307C32.516 40.4019 32.6263 40.6658 32.6886 40.9218C32.8076 41.4044 32.5395 41.9876 32.2636 42.448C31.87 43.0989 31.4308 43.8144 31.5225 44.6005C31.5214 44.6705 31.5214 44.7215 31.4626 44.7441ZM44.0957 45.4957C44.3204 46.7872 44.5732 48.361 44.8588 50.2901C44.8736 50.3919 44.8844 50.4789 44.8923 50.56C44.8945 50.57 44.8966 50.5811 44.8966 50.5907C44.9045 50.6669 44.9085 50.7364 44.9085 50.7934C44.9085 50.7994 44.9077 50.8045 44.9077 50.8092C44.9077 50.8348 44.9077 50.8625 44.9056 50.8845C44.9024 50.9065 44.8987 50.9248 44.8945 50.9438C44.8945 50.9515 44.8923 50.9594 44.8923 50.9664C44.8825 51.0059 44.8691 51.0396 44.8512 51.0682C44.849 51.0724 44.8454 51.0761 44.8411 51.0818C44.8256 51.1038 44.8055 51.1234 44.7846 51.1394C44.7778 51.1443 44.7716 51.1494 44.7637 51.1552C44.737 51.1721 44.7072 51.1868 44.6705 51.1987C44.6617 51.2028 44.6487 51.2043 44.637 51.2085C44.6092 51.2175 44.5789 51.2254 44.5459 51.2344C44.5252 51.2386 44.5047 51.2422 44.4836 51.248C44.4403 51.2568 44.3938 51.2659 44.3445 51.2755C44.2534 51.2943 44.1199 51.3133 44.0273 51.321C43.8671 51.3368 43.6802 51.3525 43.4766 51.3705C41.5091 51.5505 37.6584 51.9409 34.5736 52.3294C34.5156 52.3349 34.4561 52.3413 34.3927 52.3514C34.1525 52.3851 34.0132 52.3467 33.9942 52.1109C33.9795 51.8944 33.6185 49.753 32.5282 47.9288C32.4281 47.7606 32.3225 47.5947 32.2107 47.4338C32.0864 47.2546 32.2711 47.1183 32.4471 47.1804C32.9412 47.354 34.3095 47.9802 36.2613 49.3771C36.7596 49.7331 36.8891 49.8438 37.0009 49.9388C37.0156 49.9518 37.0387 49.9644 37.0592 49.9744C37.067 49.9785 37.076 49.9802 37.0858 49.9842C37.0993 49.9891 37.1165 49.9942 37.1334 49.9981C37.1424 50 37.1511 50.0021 37.1601 50.0028C37.1788 50.0049 37.1976 50.0058 37.2145 50.0049C37.2224 50.0049 37.2292 50.0049 37.2356 50.0049C37.258 50.0017 37.28 49.9949 37.2979 49.9838C37.3433 49.9552 37.3642 49.8997 37.3286 49.804C37.2072 49.4618 36.5544 48.7896 34.8846 47.2401C34.6464 47.0197 34.6423 46.9267 34.8893 46.9009C35.1355 46.8774 35.805 46.9077 36.1608 46.893C36.5177 46.8774 37.3145 46.8553 37.1584 45.8125C37.0387 45.0048 36.9448 44.1694 36.9301 43.9194C36.9166 43.6702 36.8727 43.2043 36.2894 43.1384C35.71 43.0718 34.7383 43.2064 33.8666 43.5119C33.6262 43.5953 33.5413 43.4844 33.7192 43.322C33.8963 43.161 35.4267 42.1651 36.7308 40.6675C38.1644 39.0187 38.795 37.8054 39.153 36.7021C39.2177 36.5062 39.3002 36.5728 39.3804 36.6176C39.4596 36.6643 39.9974 37.0993 40.1881 38.1688C40.375 39.2403 40.7458 40.7275 40.0923 44.6328C39.7333 46.7721 39.2945 48.0356 39.1925 48.3373C39.0899 48.6357 39.2657 48.8041 39.4634 48.5363C39.9242 47.9072 40.5335 46.1634 41.0476 44.1585C41.5539 42.1803 41.7373 40.4843 41.815 39.3971V39.3961C41.8229 39.2962 41.8297 39.2024 41.8346 39.1123L41.8378 39.0758C41.8421 38.988 41.8466 38.9035 41.8525 38.8277C41.8525 38.7812 41.8583 38.7445 41.8662 38.711C41.8683 38.701 41.872 38.6931 41.8752 38.6844C41.8798 38.6694 41.8841 38.6528 41.8897 38.6409C41.8897 38.6387 41.892 38.6387 41.892 38.6368C41.9018 38.618 41.9138 38.6022 41.9242 38.5901C41.9276 38.586 41.9302 38.5822 41.9332 38.5801C41.943 38.5713 41.952 38.5673 41.9609 38.5626C41.9677 38.5594 41.9746 38.5547 41.981 38.5523C41.9865 38.5515 41.9908 38.5515 41.9965 38.5504C42.0076 38.5483 42.0185 38.5461 42.0281 38.5461C42.0322 38.5461 42.036 38.5461 42.0409 38.5483C42.0458 38.5483 42.0522 38.5483 42.0558 38.5483C42.0595 38.5483 42.0616 38.5515 42.0635 38.5515C42.1032 38.5583 42.1395 38.5741 42.1674 38.586C42.2694 38.6259 42.7202 38.7561 42.9551 39.8377C42.9649 39.8812 42.9749 39.9285 42.9866 39.9757C42.9885 39.9915 42.9922 40.0092 42.9964 40.025C43.0075 40.0685 43.0173 40.112 43.0278 40.1596L43.0301 40.1675C43.2249 41.0178 43.5778 42.4892 44.0957 45.4957Z" fill="black"/>
<path d="M35.7773 47.3383H35.9967V47.8978H36.1291V47.3383H36.3478V47.2258H35.7773V47.3383Z" fill="black"/>
<path d="M36.8233 47.7063L36.6541 47.2258H36.4634V47.8978H36.586V47.357L36.7729 47.8978H36.8807L37.0645 47.357V47.8978H37.187V47.2258H36.9963L36.8233 47.7063Z" fill="black"/>
</svg>
