<svg width="70" height="70" viewBox="0 0 70 70" fill="none" xmlns="http://www.w3.org/2000/svg">
<path d="M24.4709 10.6401C24.2152 10.663 23.6361 11.0659 22.7223 11.8503C21.5685 12.8408 21.2443 13.395 21.2443 14.3756C21.2443 15.4327 21.6513 16.0078 23.8143 18.0031C26.5303 20.5084 26.9506 21.5654 25.8197 23.0503C25.5083 23.4591 25.2481 23.9274 25.2414 24.0908C25.219 24.6333 27.4617 23.2506 28.28 22.2175C29.7313 20.3852 29.4141 19.7828 24.9165 15.8148C23.54 14.6004 23.363 13.4629 24.2753 11.711C24.659 10.9741 24.7265 10.6172 24.4709 10.6401ZM29.7155 10.6401C29.4599 10.663 28.8808 11.0659 27.967 11.8503C26.8132 12.8408 26.489 13.395 26.489 14.3756C26.489 15.4327 26.896 16.0078 29.059 18.0031C31.7749 20.5084 32.1953 21.5654 31.0643 23.0503C30.7529 23.4591 30.4928 23.9274 30.486 24.0908C30.4637 24.6333 32.7064 23.2506 33.5247 22.2175C34.976 20.3852 34.6588 19.7828 30.1612 15.8148C28.7847 14.6004 28.6068 13.4629 29.5191 11.711C29.9028 10.9741 29.9711 10.6172 29.7155 10.6401ZM34.9602 10.6401C34.7046 10.663 34.1246 11.0659 33.2109 11.8503C32.0571 12.8408 31.7328 13.395 31.7328 14.3756C31.7328 15.4327 32.1407 16.0078 34.3037 18.0031C37.0196 20.5084 37.4399 21.5654 36.309 23.0503C35.9976 23.4591 35.7375 23.9274 35.7307 24.0908C35.7083 24.6333 37.9511 23.2506 38.7693 22.2175C40.2206 20.3852 39.9035 19.7828 35.4058 15.8148C34.0294 14.6004 33.8515 13.4629 34.7638 11.711C35.1475 10.9741 35.2158 10.6172 34.9602 10.6401ZM14.9399 28.1321C14.9399 28.1321 15.1777 37.4109 16.2462 41.8893C17.6996 47.9803 23.1025 59.361 23.1025 59.361H36.98C36.98 59.361 40.941 51.8384 43.2588 45.7254C46.2772 47.4419 50.1417 46.9915 52.6732 44.5506C55.3662 41.954 55.8379 37.793 53.7941 34.6665C52.0325 31.9716 48.8034 30.6642 45.7141 31.2409C45.8001 29.4125 45.8238 28.1321 45.8238 28.1321H14.9399ZM18.2771 29.985C18.306 29.9836 18.3349 29.9836 18.3638 29.985C18.5842 29.9948 18.7926 30.0873 18.9469 30.2437C19.1013 30.4002 19.1902 30.6089 19.1956 30.8279C19.1956 30.8279 19.4833 37.4764 20.1617 40.4772C21.0571 44.4383 24.4385 52.3933 24.4385 52.3933C24.4875 52.4984 24.5147 52.6123 24.5185 52.7281C24.5223 52.8439 24.5027 52.9592 24.4607 53.0674C24.4188 53.1755 24.3554 53.2741 24.2743 53.3574C24.1933 53.4407 24.0962 53.507 23.9888 53.5523C23.8815 53.5977 23.766 53.6211 23.6494 53.6213C23.5327 53.6215 23.4172 53.5984 23.3097 53.5533C23.2022 53.5083 23.1049 53.4423 23.0236 53.3593C22.9423 53.2762 22.8786 53.1778 22.8363 53.0698C22.8363 53.0698 19.4493 45.2258 18.4616 40.8564C17.691 37.4474 17.4547 30.8955 17.4547 30.8955C17.4422 30.6664 17.5218 30.4419 17.676 30.2711C17.8303 30.1004 18.0465 29.9975 18.2771 29.985ZM47.0705 35.4216C48.2781 35.3799 49.4478 35.9588 50.1423 37.0212C51.0683 38.4377 50.8598 40.272 49.6397 41.4484C48.4196 42.6249 46.5674 42.7768 45.1689 41.8158C44.9946 41.6926 44.8029 41.5955 44.6 41.5278C44.9686 39.9445 45.2276 37.864 45.4096 35.8042C45.5661 35.7778 45.7193 35.7344 45.8663 35.6749C46.261 35.518 46.668 35.4355 47.0705 35.4216Z" fill="#4A120F"/>
</svg>
