<svg width="66" height="61" viewBox="0 0 66 61" fill="none" xmlns="http://www.w3.org/2000/svg">
<path d="M32.9708 0.644917C32.1595 0.746483 31.1712 0.906082 30.7581 0.993137C30.0205 1.13823 28.7667 1.39939 26.7752 1.80565C25.4476 2.06682 22.6005 2.92286 21.4646 3.38716C20.9778 3.57578 20.4173 3.79342 20.2108 3.85145C19.0897 4.19967 15.6083 5.92627 14.2364 6.81133C12.0237 8.26225 11.6991 8.49439 10.7698 9.27789C6.55085 12.8326 3.65955 17.1564 2.25815 21.9879C1.60908 24.2369 1.46157 25.3831 1.47632 28.2994C1.47632 31.2738 1.62383 32.362 2.12539 33.0149C3.01048 34.1467 3.68905 33.7114 3.68905 32.0138C3.68905 28.8508 4.39712 24.9913 5.54774 21.9154C7.67196 16.2278 11.9204 11.5268 17.4375 8.74105C19.724 7.59482 20.4025 7.34817 23.0136 6.68074C23.8396 6.4631 24.3707 6.49212 24.3117 6.75329C24.2822 6.89838 23.1611 7.46424 21.4351 8.1897C16.6704 10.221 15.2248 11.106 12.7907 13.4565C9.39789 16.7211 7.45069 19.9131 6.18206 24.2949C5.57725 26.3697 5.40023 28.7492 5.50349 33.3051C5.6215 38.1222 5.78377 39.6311 6.35908 41.3577C6.86063 42.8522 8.12926 45.4783 8.88159 46.5665C9.76668 47.8143 12.9383 50.9193 14.2511 51.8043C14.4282 51.9204 15.092 52.3847 15.7263 52.82C18.1456 54.474 20.4615 55.6493 22.3497 56.1426C23.7364 56.5198 26.2884 57.0277 26.7752 57.0277C27.2473 57.0277 27.5423 57.3904 27.2915 57.6806C27.085 57.9272 25.7573 57.9708 24.6362 57.7676C21.3614 57.1727 18.9569 56.4038 16.3016 55.127C13.3661 53.705 10.165 50.9483 7.55395 47.5677C5.71001 45.1882 5.23796 44.7674 4.81017 45.1301C3.98408 45.7975 4.79541 48.3947 6.6246 50.9338C8.26202 53.1972 11.6106 56.1426 13.9414 57.3614C18.8094 59.915 24.828 60.9596 30.7581 60.2922C35.4786 59.7409 39.6238 58.5076 43.887 56.3457C44.8163 55.8814 45.1851 55.6493 46.6603 54.6772C46.8963 54.5176 47.3683 54.1984 47.7371 53.9517C48.755 53.2698 51.6463 50.484 52.6199 49.2362C56.3225 44.4627 58.314 40.197 59.0221 35.554C59.4204 32.9714 59.1696 26.7615 58.55 23.4389C57.8862 19.9712 57.2961 18.3897 55.7177 15.8651C54.6556 14.182 54.4491 13.9208 52.9444 12.4409C49.6253 9.17633 44.418 6.25998 41.1432 5.81019C38.2814 5.41844 37.9421 5.3459 37.6323 5.07022C36.939 4.43182 37.3963 4.01105 38.6797 4.11261C41.925 4.37378 44.5213 5.18629 47.8699 7.01445C51.543 9.00222 54.4048 11.1786 56.1455 13.3114C58.727 16.4599 60.7037 21.7993 61.2348 26.9936C61.5003 29.5617 61.3233 35.2494 60.9398 37.0775C60.1137 40.937 59.5679 42.591 58.255 45.1882C55.7915 50.0487 52.1478 53.676 45.7604 57.5935C44.9343 58.1158 44.6246 58.5076 44.7573 58.8703C44.8311 59.0589 45.0081 59.088 45.6277 59.0154C47.1176 58.8558 49.1517 57.7844 51.602 56.0265C53.2428 54.8494 53.2494 54.7906 54.2573 53.9517C55.06 53.2836 58.6975 49.8311 59.7744 48.4672C61.9429 45.696 63.123 43.5051 64.0081 40.6032C65.1292 36.8599 65.6012 32.7102 65.4537 27.7916C65.3947 26.1956 65.2915 24.6286 65.2177 24.3094C65.144 23.9902 64.9522 23.0761 64.7752 22.2781C63.7868 17.7077 61.4118 12.8326 58.491 9.36494C54.6114 4.76553 49.6696 2.15387 42.1906 0.775501C40.6269 0.499825 34.8443 0.412769 32.9708 0.644917ZM39.7713 12.4554C40.0663 12.644 40.2581 13.1373 40.4351 14.1675C40.5236 14.7188 40.7302 15.4878 40.8629 15.8941L41.1137 16.6195L44.1968 17.6497C47.3831 18.7089 47.8256 18.883 50.0974 19.9712C51.7496 20.7547 52.1478 21.1319 52.0003 21.7558C51.8823 22.2781 51.189 22.7134 50.7022 22.5828C50.5399 22.5393 47.7961 22.5683 44.6393 22.6554C39.2698 22.7859 33.0299 23.1632 30.6106 23.5114C30.05 23.5985 28.8109 23.7581 27.8816 23.8741C26.0966 24.0918 24.356 24.3239 20.8008 24.8172C19.6207 24.9768 18.1603 25.18 17.5555 25.2525C16.9507 25.3396 15.8296 25.4992 15.0772 25.6298C13.8234 25.8329 13.6611 25.8329 13.3366 25.6152C12.9383 25.3686 12.953 25.3686 13.071 25.0494C13.3513 24.3239 18.6766 21.3495 22.4235 19.8116C23.3528 19.4198 24.2084 19.0571 24.3117 18.97C24.415 18.8975 25.1378 17.8964 25.9049 16.7501C26.8637 15.3282 27.4243 14.6463 27.6308 14.6028C27.8078 14.5737 29.1502 14.2981 30.6106 14.0079C32.071 13.7177 33.4724 13.4565 33.7084 13.413C33.9592 13.3695 35.0213 13.1518 36.0687 12.9197C38.6649 12.3538 39.4763 12.2523 39.7713 12.4554ZM30.0648 25.0059C30.0943 25.151 29.9615 25.5137 29.7698 25.8039C29.5632 26.094 29.2092 26.6309 28.9732 26.9936C28.3536 27.9222 27.4833 28.7347 27.1145 28.7347C26.6867 28.7347 26.2589 28.3285 26.2589 27.9077C26.2589 26.9936 27.2768 25.8184 28.6929 25.1219C29.6518 24.6286 29.991 24.6141 30.0648 25.0059ZM48.5042 27.1677C48.755 27.4144 48.7255 27.9802 48.3862 28.9379C48.0912 29.7359 48.0912 29.7939 48.3272 30.0551C48.46 30.2147 48.7255 30.3307 48.9025 30.3307C49.3451 30.3307 49.9351 30.8095 49.7876 31.0417C49.5958 31.3464 48.5042 31.7817 47.8994 31.7817C47.5749 31.7817 47.1028 31.6801 46.8225 31.5495C46.3652 31.3319 46.3062 31.3319 45.8932 31.6221C44.9343 32.304 43.6067 32.8118 42.8986 32.7683C42.5298 32.7538 42.1316 32.8118 42.0135 32.8989C41.0842 33.6388 39.7861 33.958 37.5586 33.9725C36.7325 33.9725 35.7589 34.0306 35.3754 34.0886C34.1805 34.2772 33.9149 33.8129 34.6083 32.7393C34.9328 32.2459 36.821 30.5339 38.2076 29.4747C38.4142 29.3151 38.5469 29.17 38.5027 29.1265C38.4584 29.0829 37.9716 29.1265 37.3963 29.199C36.8358 29.2716 36.1572 29.3006 35.8769 29.2425C35.3016 29.141 34.8148 28.7057 34.8148 28.314C34.8148 27.7916 35.2131 27.574 36.1867 27.574C36.6882 27.574 37.5586 27.4724 38.1339 27.3563C38.6944 27.2403 39.5648 27.1387 40.0368 27.1387C41.0989 27.1387 41.453 27.3854 41.453 28.1108C41.453 28.5606 41.2465 28.8218 39.668 30.4033C38.6944 31.3899 37.9421 32.2169 38.0159 32.2605C38.2667 32.391 40.5089 32.4926 40.9957 32.391L41.512 32.275L41.4677 31.477C41.4382 30.7805 41.4972 30.5919 41.9398 29.968C42.5889 29.0249 43.946 27.9512 44.9934 27.545C45.4359 27.3709 46.3062 27.1822 46.9111 27.1387C47.5159 27.0807 48.0912 27.0371 48.1797 27.0226C48.2534 27.0081 48.401 27.0662 48.5042 27.1677ZM21.8629 27.4434C22.7628 27.7916 23.5446 28.459 23.8396 29.1265C23.9577 29.3876 24.0462 29.9825 24.0462 30.4468C24.0462 32.1299 22.7333 33.7114 20.6681 34.5094C19.1044 35.1188 18.5291 35.2058 18.057 34.9011C17.8505 34.7705 17.6588 34.6835 17.644 34.7125C17.6145 34.7415 17.467 35.1188 17.29 35.554C15.1657 40.9079 14.5757 41.9091 13.8381 41.2562C13.5726 41.024 13.5431 40.8789 13.6168 39.9068C13.7791 37.7449 15.2838 33.5373 16.8327 30.9401C17.231 30.2872 17.5555 29.7213 17.5555 29.7068C17.5555 29.6778 17.3342 29.6923 17.0539 29.7213C16.6556 29.7649 16.5081 29.7213 16.3754 29.4747C16.1541 29.0684 16.2721 28.7347 16.8327 28.2124C17.8653 27.2403 20.3435 26.8485 21.8629 27.4434ZM34.387 29.1845C34.7705 29.5617 34.682 30.0115 34.033 30.8966C33.5167 31.593 33.3101 31.8252 31.7612 33.3922L30.6991 34.4659L32.3513 34.4804C33.2659 34.4804 34.8738 34.5239 35.9212 34.5529C37.2783 34.5964 38.0454 34.5529 38.5469 34.4078C39.8451 34.0451 39.8303 34.8286 38.5322 35.4525C37.5143 35.9603 36.408 36.1199 33.2659 36.1924C31.4219 36.2505 30.1091 36.3521 29.4305 36.5117C27.262 37.0195 26.849 36.9469 26.849 36.0619C26.849 35.4525 27.4538 34.727 29.7108 32.6522C31.776 30.766 31.9235 30.5774 31.2302 30.7805C30.5663 30.9691 29.1502 30.9401 28.6929 30.737C28.4864 30.6499 28.2799 30.4033 28.2209 30.2147C28.0586 29.5763 28.5306 29.3731 30.4188 29.2425C31.3334 29.1845 32.3808 29.0829 32.7496 29.0249C33.8412 28.8508 34.0625 28.8653 34.387 29.1845ZM27.2915 29.8374C27.6308 30.708 27.3358 31.9413 26.1999 34.2917C25.7426 35.2348 25.3738 36.1054 25.3738 36.2505C25.3738 36.9179 24.5772 37.063 24.0314 36.4826C23.7216 36.1634 23.6774 35.9748 23.6774 35.0752C23.6774 34.1321 23.7364 33.929 24.2527 33.0149C24.8723 31.9122 26.3622 29.7504 26.6277 29.5763C26.908 29.3731 27.1587 29.4602 27.2915 29.8374ZM44.2558 35.554C44.2558 35.7862 44.1378 36.207 44.005 36.4971C43.8722 36.7728 43.7985 37.0485 43.8575 37.092C43.9017 37.1501 44.5065 37.0485 45.1851 36.8889C46.793 36.4826 48.0174 36.3375 48.1502 36.5407C48.3419 36.8454 47.2208 37.3677 43.4444 38.7751C42.9134 38.9782 42.8396 39.0798 42.5593 39.9213C42.3823 40.4291 42.1316 41.1111 41.984 41.4303C41.8365 41.7495 41.5562 42.5185 41.3645 43.1424C40.5826 45.5509 40.2139 46.0297 39.8303 45.1301C39.5648 44.5062 39.7271 42.6345 40.1696 40.9224C40.5531 39.4715 40.5236 39.3264 39.8598 39.3264C39.4025 39.3264 38.7682 38.688 38.901 38.3543C39.0927 37.803 39.2698 37.7304 40.3319 37.7304H41.4087L42.1021 36.6567C42.9576 35.3074 43.5625 34.7705 43.9755 34.9737C44.1525 35.0752 44.2558 35.2784 44.2558 35.554ZM31.0827 37.3822C31.1269 37.5128 30.9941 38.3108 30.7729 39.1668C30.3008 41.0095 30.2861 41.2852 30.6549 41.1401C30.7876 41.082 31.0679 40.995 31.2449 40.9515C31.7907 40.8354 31.6137 41.4883 30.9794 41.8946C30.0795 42.4894 29.9763 42.6345 29.873 43.3455C29.814 43.7227 29.6813 44.4047 29.578 44.8399C29.4747 45.2752 29.342 45.812 29.2977 46.0297C29.1354 46.7116 28.5159 47.3065 27.9406 47.3065C27.0997 47.3065 26.8047 46.3634 27.144 44.6948C27.203 44.3321 27.2473 44.0274 27.2177 43.9984C27.203 43.9839 26.5244 44.1725 25.7278 44.4482L24.2674 44.927L23.8101 46.7406C23.2938 48.7719 23.0431 49.3233 22.4825 49.7585C21.981 50.1503 21.5089 50.1503 21.1549 49.7585C20.8008 49.3668 20.8008 47.7128 21.1549 46.6826C21.5532 45.5364 21.4942 45.3332 20.7713 45.2317C19.9747 45.1301 19.3847 44.5497 19.6207 44.1145C19.8272 43.7227 20.4173 43.447 21.5089 43.2294C22.3055 43.0698 22.453 42.9828 22.5268 42.6635C22.6448 42.1702 24.0757 39.4715 24.6362 38.6735C25.4771 37.4693 26.1261 37.1065 26.3327 37.7159C26.4507 38.0786 25.9491 40.1099 25.4623 41.3432C25.241 41.8655 25.0788 42.3443 25.0788 42.4169C25.0788 42.562 25.7868 42.4604 27.026 42.1267C27.8521 41.9091 27.8521 41.9091 28.1914 41.0095C28.7372 39.5731 29.578 37.9771 30.0205 37.5418C30.4778 37.1065 30.9351 37.034 31.0827 37.3822ZM38.5322 38.9347C38.5764 39.1233 38.5027 39.9939 38.3994 40.8644C38.2814 41.735 38.2224 42.8522 38.2667 43.3455C38.3257 44.0709 38.2962 44.2451 38.1044 44.3176C37.7208 44.4627 36.998 43.9404 36.6292 43.2584C36.4375 42.8957 36.2604 42.591 36.2309 42.562C36.2014 42.5185 35.8474 42.8377 35.4639 43.2439C34.21 44.5643 32.7938 45.0285 32.012 44.3901C31.7022 44.129 31.6432 43.9694 31.658 43.2584C31.658 42.7796 31.8055 42.0687 32.012 41.5173L32.366 40.5887L32.0268 40.3276C31.6137 39.9939 31.776 39.7037 32.4693 39.5586C33.1479 39.428 33.6199 39.6021 33.8559 40.0664C34.1067 40.5307 34.151 41.6044 33.9297 42.1412C33.7379 42.6635 33.9002 42.62 34.859 41.8801C35.7589 41.1981 36.5407 40.3421 37.1455 39.399C37.5733 38.7316 37.7208 38.601 38.1486 38.601C38.3699 38.601 38.4879 38.7025 38.5322 38.9347Z" fill="#EE3A43"/>
<path d="M45.5099 29.0104C44.9346 29.257 43.8135 30.3307 43.8135 30.6209C43.8135 30.8531 44.079 30.795 45.0821 30.3307C45.8197 29.997 46.041 29.8229 46.1147 29.5037C46.1737 29.2861 46.277 29.0104 46.3655 28.9088C46.572 28.6477 46.218 28.6912 45.5099 29.0104Z" fill="#EE3A43"/>
<path d="M19.2521 29.4312C19.2078 29.4747 19.1783 29.7068 19.1783 29.939C19.1783 30.1711 18.8833 31.2303 18.5145 32.304C17.7622 34.4804 17.7474 34.5964 18.1162 34.4078C18.249 34.3353 18.7948 34.1031 19.3111 33.871C20.4764 33.3486 21.5976 32.3185 21.8188 31.564C21.9368 31.1142 21.9221 30.9256 21.6861 30.4903C21.5386 30.1856 21.2288 29.8664 20.9927 29.7504C20.5207 29.5327 19.3701 29.3296 19.2521 29.4312Z" fill="#EE3A43"/>
<path d="M1.06341 36.5407C0.561857 37.063 0.414342 37.919 0.59136 39.1668C0.871639 41.1111 1.32894 41.9671 2.36154 42.4749C3.15813 42.8812 3.70393 42.8957 4.05797 42.5184C4.294 42.2718 4.294 42.1122 4.14648 40.7483C4.05797 39.9213 3.93996 38.8911 3.8957 38.4559C3.73344 36.9324 3.24664 36.294 2.15502 36.1779C1.55021 36.1054 1.44695 36.1344 1.06341 36.5407Z" fill="#EE3A43"/>
<path d="M56.3349 55.2155V54.0269H55.8718V53.8679H56.9859V54.0269H56.5209V55.2155H56.3349Z" fill="#EE3A43"/>
<path d="M57.1719 55.2155V53.8679H57.4518L57.7845 54.8221C57.8152 54.911 57.8376 54.9774 57.8516 55.0216C57.8676 54.9725 57.8925 54.9005 57.9264 54.8055L58.2629 53.8679H58.5131V55.2155H58.3338V54.0876L57.9254 55.2155H57.7577L57.3512 54.0683V55.2155H57.1719Z" fill="#EE3A43"/>
</svg>
