<svg width="51" height="51" viewBox="0 0 51 51" fill="none" xmlns="http://www.w3.org/2000/svg">
<path fill-rule="evenodd" clip-rule="evenodd" d="M42.1465 46.664L27.3529 24.7651L30.3981 19.1077H34.3134C34.6 19.1077 34.8917 18.8164 35.1829 18.5247L42.4382 5.91141C43.0125 4.60479 41.4192 4.02288 40.8404 5.03778L34.3129 15.6295C33.4433 16.9361 31.413 15.9207 32.5697 14.1739L38.8101 3.44046C39.3884 2.42556 37.9364 1.41066 37.071 2.71626L30.8306 13.1585C29.8157 14.9058 28.0771 13.3079 28.8008 12.293L34.8912 1.56009C35.6154 0.253467 34.167 -0.619653 33.5846 0.545187L25.9009 12.7255C25.6097 13.3079 25.6097 13.5991 25.7556 13.7404L27.7854 17.368L25.1732 21.2869L22.5645 17.5098C22.5645 17.5098 26.3375 13.0167 21.1126 7.06758C16.037 0.977666 11.6857 -0.903213 9.65592 0.544677C8.0586 1.70136 7.48026 7.35879 10.8167 13.7404C14.1526 20.272 18.7915 19.3984 19.9564 19.2571L23.0016 24.6233L8.93223 46.5227C7.62561 48.5525 8.93223 50.0004 9.80127 50.4334C10.6708 50.874 12.5593 51.4483 13.8619 48.9855L25.1737 28.534L37.6493 49.7097C38.373 50.874 39.9667 51.4483 41.1311 50.5828C41.7094 50.1498 43.4526 48.6943 42.1465 46.664Z" fill="#FFFFFE"/>
</svg>
