<svg width="36" height="36" viewBox="0 0 36 36" fill="none" xmlns="http://www.w3.org/2000/svg">
<path fill-rule="evenodd" clip-rule="evenodd" d="M17.5605 29.5602C17.2792 29.8414 16.8977 29.9994 16.5 29.9994C16.1023 29.9994 15.7208 29.8414 15.4395 29.5602L4.9395 19.0597C4.65829 18.7784 4.50032 18.3969 4.50032 17.9991C4.50032 17.6013 4.65829 17.2199 4.9395 16.9386L15.4395 6.43804C15.7224 6.16479 16.1013 6.01359 16.4946 6.01701C16.8879 6.02042 17.2641 6.17819 17.5422 6.45631C17.8203 6.73444 17.9781 7.11068 17.9815 7.50399C17.9849 7.89731 17.8337 8.27623 17.5605 8.55915L9.621 16.499L30 16.499C30.3978 16.499 30.7794 16.6571 31.0607 16.9384C31.342 17.2197 31.5 17.6013 31.5 17.9991C31.5 18.397 31.342 18.7785 31.0607 19.0598C30.7794 19.3411 30.3978 19.4992 30 19.4992L9.621 19.4992L17.5605 27.4391C17.8417 27.7204 17.9997 28.1019 17.9997 28.4996C17.9997 28.8974 17.8417 29.2789 17.5605 29.5602Z" fill="#393E46"/>
</svg>
