<svg width="375" height="263" viewBox="0 0 375 263" fill="none" xmlns="http://www.w3.org/2000/svg">
<g clip-path="url(#clip0)">
<path d="M156.629 197.094C156.258 197.094 155.91 197.004 155.586 196.824C155.242 196.637 154.969 196.375 154.766 196.039C154.566 195.703 154.465 195.34 154.461 194.949V154.062C154.461 153.777 154.516 153.504 154.625 153.238C154.73 152.977 154.887 152.746 155.086 152.543C155.285 152.344 155.516 152.188 155.777 152.078C156.039 151.969 156.312 151.914 156.594 151.914C156.879 151.914 157.148 151.969 157.41 152.078C157.672 152.188 157.902 152.344 158.105 152.543C158.305 152.746 158.457 152.977 158.566 153.238C158.676 153.504 158.73 153.777 158.73 154.062V191.109L180.867 177.445C181.105 177.297 181.367 177.199 181.648 177.152C181.926 177.109 182.207 177.117 182.48 177.184C182.758 177.25 183.012 177.367 183.238 177.531C183.469 177.699 183.66 177.902 183.809 178.145C183.957 178.391 184.055 178.652 184.098 178.934C184.145 179.215 184.137 179.492 184.07 179.77C184.004 180.047 183.887 180.301 183.723 180.531C183.559 180.766 183.352 180.953 183.113 181.105L157.742 196.777C157.398 196.98 157.027 197.086 156.629 197.094Z" fill="#EEEEEE"/>
<path d="M205.496 202.445C204.934 202.445 204.449 202.254 204.035 201.871L123.633 125.785C123.348 125.512 123.152 125.187 123.047 124.805C122.941 124.426 122.941 124.043 123.043 123.66C123.145 123.281 123.34 122.953 123.621 122.676C123.902 122.402 124.238 122.219 124.621 122.129L271.434 88.1289C271.848 88.0468 272.246 88.0859 272.637 88.2421C273.027 88.4023 273.344 88.6523 273.586 88.9961C273.828 89.3398 273.957 89.7226 273.973 90.1445C273.992 90.5664 273.895 90.9609 273.68 91.3242L207.305 201.418C206.949 202 206.438 202.34 205.766 202.434L205.496 202.445ZM129.461 125.414L205.047 196.926L267.438 93.4453L129.461 125.414Z" fill="#EEEEEE"/>
<path d="M156.629 156.207C156.391 156.207 156.16 156.172 155.934 156.094C155.707 156.02 155.5 155.906 155.313 155.762C155.125 155.617 154.965 155.441 154.832 155.242C154.703 155.043 154.606 154.828 154.547 154.598C154.488 154.363 154.469 154.129 154.484 153.891C154.504 153.652 154.563 153.422 154.656 153.203C154.75 152.984 154.879 152.785 155.039 152.609C155.203 152.434 155.387 152.289 155.594 152.176L270.852 88.3437C271.098 88.1836 271.367 88.0781 271.66 88.0273C271.953 87.9805 272.242 87.9922 272.527 88.0664C272.816 88.1367 273.074 88.2656 273.309 88.4492C273.543 88.6289 273.734 88.8515 273.875 89.1094C274.02 89.3711 274.106 89.6484 274.133 89.9453C274.16 90.2422 274.125 90.5312 274.035 90.8125C273.941 91.0937 273.801 91.3476 273.602 91.5703C273.406 91.793 273.172 91.9648 272.906 92.0937L157.652 155.934C157.332 156.113 156.992 156.203 156.629 156.207Z" fill="#EEEEEE"/>
<path d="M102.856 185.656C102.367 185.652 101.93 185.5 101.547 185.199C101.16 184.898 100.91 184.508 100.793 184.035C100.672 183.559 100.711 183.098 100.906 182.648C101.102 182.199 101.414 181.859 101.844 181.625L141.824 159.863C142.074 159.75 142.332 159.684 142.606 159.664C142.875 159.648 143.141 159.684 143.402 159.77C143.66 159.855 143.895 159.988 144.102 160.164C144.313 160.34 144.481 160.547 144.609 160.789C144.742 161.031 144.82 161.289 144.852 161.559C144.883 161.832 144.863 162.102 144.793 162.367C144.723 162.629 144.606 162.871 144.441 163.094C144.277 163.313 144.078 163.492 143.848 163.637L103.863 185.395C103.551 185.566 103.211 185.652 102.856 185.656Z" fill="#00ADB5"/>
<path d="M121.387 192.125C120.902 192.121 120.469 191.973 120.09 191.676C119.707 191.375 119.457 190.992 119.336 190.523C119.211 190.055 119.246 189.598 119.43 189.148C119.617 188.703 119.922 188.355 120.34 188.117L140.781 176.566C141.027 176.41 141.297 176.312 141.582 176.269C141.871 176.227 142.156 176.242 142.438 176.312C142.719 176.387 142.973 176.512 143.203 176.691C143.434 176.867 143.621 177.086 143.762 177.34C143.906 177.594 143.992 177.867 144.023 178.156C144.055 178.449 144.027 178.734 143.945 179.012C143.859 179.293 143.727 179.543 143.539 179.769C143.352 179.992 143.129 180.172 142.871 180.305L122.43 191.855C122.105 192.031 121.754 192.121 121.387 192.125Z" fill="#00ADB5"/>
<path d="M138.039 197.094C137.555 197.094 137.117 196.941 136.734 196.637C136.348 196.336 136.098 195.949 135.981 195.473C135.859 194.996 135.898 194.535 136.094 194.086C136.289 193.637 136.602 193.297 137.031 193.063L141.824 190.465C142.07 190.367 142.32 190.313 142.586 190.309C142.848 190.305 143.102 190.344 143.348 190.434C143.598 190.523 143.82 190.652 144.02 190.824C144.219 190.996 144.379 191.199 144.504 191.43C144.629 191.664 144.711 191.91 144.742 192.172C144.777 192.434 144.766 192.691 144.703 192.949C144.645 193.207 144.539 193.441 144.391 193.66C144.246 193.879 144.063 194.063 143.848 194.215L139.051 196.801C138.742 196.988 138.402 197.086 138.039 197.094Z" fill="#00ADB5"/>
</g>
<defs>
<clipPath id="clip0">
<rect width="375" height="263" fill="white"/>
</clipPath>
</defs>
</svg>
