<svg width="64" height="64" viewBox="0 0 64 64" fill="none" xmlns="http://www.w3.org/2000/svg">
<path d="M63.9998 32C63.9998 49.6732 49.6729 64 32 64C14.3269 64 0 49.6734 0 32C0 14.327 14.3269 0 32 0C49.6731 0 63.9998 14.327 63.9998 32Z" fill="white"/>
<path d="M31.7327 11.3766C32.8592 12.0226 34.0541 12.8539 34.9638 13.735L34.6064 14.0922C32.8114 13.9023 30.921 14.1393 29.2194 14.1654C29.0296 13.9749 28.6473 13.6885 29.0034 13.4492L31.7327 11.3766ZM63.4711 33.5598C63.495 34.3659 63.5711 35.0581 63.2551 35.883C59.9758 36.8109 57.8218 33.3566 54.64 33.8776L54.9998 35.6681C57.9434 35.7644 59.782 38.5727 62.8231 38.452C62.3911 39.3106 63.0158 41.5724 61.1017 40.6683C59.1148 40.1933 57.6783 38.452 55.5011 38.452C55.2384 38.9319 55.4047 39.5963 55.3586 40.164C57.6555 40.5225 59.3074 42.4538 61.6036 42.8104C61.3876 43.5956 61.1736 44.4747 60.5268 44.9535C58.6587 44.5012 57.1996 42.8321 55.2108 42.8798L54.8567 44.5239C56.7467 44.5723 57.9679 46.2358 59.6665 46.7352C59.7132 47.4287 59.0901 48.0484 58.7312 48.6674C57.2233 48.2168 56.0733 46.9281 54.3505 47.0231C54.3266 46.3773 54.7119 45.644 54.5665 44.9535C52.6314 45.5261 51.3339 43.7373 49.8998 42.6642C49.8584 39.1528 46.1429 36.8492 45.9467 33.5598C45.909 32.9039 46.0095 32.2038 46.3098 31.4514C47.531 28.6423 47.1474 24.9951 45.8083 22.376C45.4015 21.6868 44.6806 21.1427 44.0087 20.7375C44.9917 22.8101 46.1896 25.259 45.5917 27.8066C45.5224 29.7739 44.3557 31.6633 44.3423 33.5598C44.3378 34.2359 44.4828 34.9121 44.8738 35.5949C46.4305 38.3844 49.2313 41.0249 48.1782 44.5232C47.8886 45.5978 47.0263 46.4287 46.8111 47.5223C48.6323 49.0229 50.3544 50.7139 52.7709 50.8092C53.6319 50.2621 53.1536 47.8358 54.9249 48.9549L57.5111 50.2419C57.3227 50.9307 56.7431 51.548 56.2181 52.0224C55.2368 51.5472 54.2797 50.9776 53.0561 51.0241C52.6953 51.4049 52.3849 51.8323 52.4124 52.3788C53.2734 52.5198 54.0632 52.8813 54.7825 53.3822C54.4486 54.0978 53.7977 54.5462 53.1994 55.0942L51.1932 54.3805C50.8582 54.8574 50.1624 55.3585 50.4066 55.8819C50.8593 56.0747 51.3615 56.3354 51.6947 56.6695C50.8092 57.6218 49.6868 58.2344 48.6067 58.8809C47.6764 55.8557 44.6113 53.7347 44.8744 50.2364L44.732 50.0949C44.0115 50.9008 44.2522 52.1895 44.2987 53.2354C45.161 55.4266 47.2178 57.119 47.5297 59.5219C47.1696 60.1403 46.3576 60.2636 45.7348 60.5254C45.8071 56.1931 39.2019 52.9072 43.4377 48.5251C44.8503 46.3792 47.2171 44.3315 46.3785 41.3772C45.5175 38.5248 42.4721 36.7574 42.499 33.5598L42.5037 33.3104C43.1973 29.9758 45.3045 26.4275 43.5807 22.8801C43.1003 21.4533 42.027 19.8319 40.567 19.2355C42.7436 21.7142 43.6066 25.7584 42.3613 29.0937C41.7337 30.4203 40.8697 32.0009 40.783 33.5604H40.7778C40.7316 34.3749 40.8987 35.1848 41.4269 35.9528C43.0797 38.6207 45.9501 41.5512 44.2989 45.028C42.4323 47.8127 39.1774 50.6454 40.9951 54.3133C42.3114 56.5039 44.3475 58.6897 43.7982 61.3826L41.6442 62.0963C43.0803 57.0734 36.0429 54.1222 38.9889 49.0976C40.8077 46.4071 44.0607 43.8826 42.2193 40.3117C41.1184 38.0991 38.8437 36.7895 38.9155 34.0245L38.9938 33.5602C39.735 29.6386 42.7313 25.9266 40.6363 21.736C40.0857 20.4986 38.9855 19.237 37.7643 18.5221L37.6905 18.5955C40.133 20.9528 40.8761 24.8314 39.5592 27.9492C38.9448 29.7784 37.5963 31.6006 37.3222 33.5608C37.1918 34.4851 37.3017 35.4429 37.8385 36.452C39.394 38.9026 42.1218 41.5022 40.4196 44.6705C38.627 47.2874 35.6344 49.8337 36.8297 53.2369C38.1464 56.2143 40.8957 59.0506 39.4112 62.7425L37.1886 63.2419C38.959 59.6439 36.3043 56.0739 34.7493 52.9535C32.8575 48.4767 38.8138 46.333 38.9093 42.24C38.8867 39.5982 36.0638 38.0982 35.4672 35.6696C34.2454 34.6441 32.979 36.0774 31.5184 35.8113C30.4401 36.0269 28.7839 34.3346 28.1402 36.169C27.3737 38.8583 23.8814 40.8354 25.4163 44.0252C26.8767 46.8598 30.3913 48.9326 29.2172 52.6009C28.166 56.0274 24.6936 59.2899 26.8472 63.2419C25.9625 62.9567 24.3104 63.5026 24.3343 62.0965C22.9707 57.3106 28.7857 54.5224 26.9896 49.7391C26.1538 46.8093 22.3455 45.1906 23.1839 41.6668C23.8038 38.766 27.0755 36.7381 26.6166 33.5606C26.5793 33.2946 26.5135 33.0223 26.4195 32.7385C25.1983 29.3096 22.7069 25.88 24.1919 21.8782C24.5996 20.7351 25.4139 19.7591 26.1295 18.7374C23.7599 19.999 22.5645 22.6667 22.6136 25.3806C22.5103 28.3319 24.7016 30.86 25.0133 33.5606C25.1359 34.6505 24.9565 35.7666 24.1919 36.9505C22.6375 39.049 20.6046 41.2616 21.5366 44.0247C22.4227 46.8118 25.9167 48.5002 25.7013 51.7398C25.6777 55.5719 21.202 57.9579 22.4705 62.2435L20.2429 61.5246C19.3584 57.7162 23.4264 55.7678 23.4731 52.2441C24.0488 48.192 18.8541 46.6885 19.1659 42.7385C19.1435 39.7374 21.7988 37.8366 22.9716 35.3122C23.1727 34.6978 23.2396 34.1174 23.2128 33.5608C23.069 30.7697 20.5411 28.5875 20.9606 25.4493C21.1018 23.1397 21.8916 21.1153 23.3999 19.3783C21.3188 20.2101 20.4591 22.5935 19.8842 24.594C18.8866 27.8017 21.2681 30.687 21.5069 33.561C21.6127 34.8301 21.301 36.0919 20.1007 37.382C18.3765 39.4035 16.628 41.954 17.8729 44.6709C19.1911 47.6687 23.3324 50.002 21.5361 53.741C20.5561 56.0987 18.2096 57.8834 18.3059 60.6684C17.6842 60.4064 17.0392 60.1452 16.5108 59.6703C16.5108 56.1231 21.5826 53.9075 19.1661 50.1692C18.952 50.9068 18.906 51.9091 18.7384 52.7424C17.8998 54.9103 16.1054 56.6456 15.434 58.8866C14.3111 58.4556 13.1371 57.5497 12.2031 56.5974L13.4968 55.8097C13.3531 55.3326 12.9708 54.9283 12.6364 54.5235C11.7963 54.406 11.2447 54.9544 10.5521 55.1693C9.95381 54.6444 9.37636 54.168 8.89938 53.5252C9.32881 52.3083 12.6842 53.3146 10.9844 51.3139C9.83677 50.6 8.68488 51.6198 7.67994 52.0958L6.31764 50.3838C7.4904 49.6702 8.66014 48.6678 10.1188 48.9553C10.4783 49.5994 10.5033 50.5465 11.1958 50.8828C13.6614 50.8351 15.4084 48.9797 17.2984 47.5267C15.9811 45.5766 14.9088 42.8843 16.079 40.5259C17.0166 38.1626 19.4596 36.1722 19.5704 33.5595C19.5953 32.9649 19.5022 32.3393 19.2407 31.6659C17.949 28.3556 17.4931 23.8818 19.9587 20.952C18.6181 21.3103 17.8277 22.9726 17.3722 24.2348C15.8901 27.4671 17.7646 30.4616 17.8294 33.5593C17.8382 34.1165 17.7928 34.6749 17.6571 35.2375C16.3881 37.785 14.3322 40.0203 13.9983 42.9519C12.5379 43.8787 11.3389 45.4995 9.25803 44.9526C9.18488 45.4997 9.35248 46.3337 9.54331 46.9533C7.89315 46.8844 6.76794 48.0944 5.37854 48.6659C4.63844 48.4296 4.44588 47.4777 4.15931 46.8116C5.78559 46.2652 6.95878 44.6431 8.82602 44.6688C9.04245 44.0705 8.70468 43.5224 8.60937 42.9515C6.28666 41.9258 2.60489 48.0218 2.2953 42.7366C4.61628 42.5936 6.09949 40.4501 8.3981 40.2365L8.46673 38.5246C5.85809 38.2624 4.17996 40.9305 1.57241 40.6674L0.997327 38.3829C4.01366 38.5704 5.81076 35.8811 8.68338 35.7364C9.06504 35.237 9.11108 34.4988 9.18466 33.8089C6.04914 33.4024 3.89748 36.8595 0.569619 35.8096C0.569619 35.8096 0.454947 34.3708 0.39277 33.5595H0.397288C0.374698 33.2423 0.353183 33.0212 0.353183 33.0212C3.32068 34.1668 5.92802 32.0462 8.46673 30.9516C9.11238 30.7594 10.1193 31.0927 10.4088 30.379C10.3837 29.8313 11.3877 29.1909 10.5519 28.8086C6.84045 28.3075 4.37489 32.7612 0.569189 30.7361L0.283691 30.1635C1.07542 19.4023 7.17564 8.99831 17.2984 3.87853C21.3982 1.54756 26.4916 0.359383 31.6281 0.317216C37.8271 0.266059 44.0908 1.88382 48.7504 5.16538C53.2754 7.9268 57.6037 12.4776 59.9526 17.0974C62.1992 21.145 63.2331 25.6869 63.5419 30.5222C59.6159 33.4735 56.9821 27.7418 52.9843 29.0245C53.1996 29.6448 53.3188 30.2866 53.7758 30.8103C57.319 30.7855 59.759 34.4765 63.4679 33.0219L63.4711 33.5598ZM18.3741 20.3064C15.8847 18.6867 12.7285 20.2118 10.4084 21.0939C10.193 18.926 9.30816 16.951 7.46308 15.5225C7.28407 15.4338 7.03666 15.2474 6.81377 15.2337C6.68038 15.2254 6.55344 15.2789 6.45491 15.4486C7.29117 20.5671 3.94675 24.1387 1.57671 28.0215C2.36586 28.6632 3.63371 28.5673 4.59089 28.3788C7.10335 27.3792 9.49662 25.6394 12.4882 26.2357C13.3729 24.7357 14.8593 23.2827 16.0781 22.0922C16.8227 21.4511 17.8458 21.044 18.3741 20.3064ZM25.9864 23.521C25.9386 23.8292 26.0103 24.3787 26.4879 24.1663C27.231 23.1425 28.5466 23.9525 29.3599 24.0246V23.7365C28.9137 23.0394 27.9956 22.6892 27.0634 22.7241C26.8483 22.7316 26.6297 22.7628 26.4193 22.8114C26.1073 22.8803 25.8902 23.1644 25.9864 23.521ZM37.6894 20.4535C37.0212 18.9767 35.4893 18.3791 34.0993 18.0221C33.4179 17.9386 32.7108 17.8821 32.0094 17.8755C31.8779 17.8742 31.7467 17.8725 31.6159 17.8755C29.654 17.9149 27.7794 18.4159 26.6342 20.0226C26.4698 20.4761 25.7472 21.1132 26.4182 21.5196C27.9261 21.4237 29.6469 21.2356 30.652 22.5231C30.652 23.6672 31.3945 25.1892 30.1505 25.737C29.1198 24.7875 27.899 26.1411 26.7775 25.3791C26.2502 25.0692 25.9165 25.4309 25.7005 25.8832C25.3887 28.8351 26.9423 32.0929 29.7181 33.7353C30.8431 34.139 32.3553 34.523 33.5294 33.9502C36.3534 32.6419 37.5231 29.6436 38.0489 26.8811C37.9784 26.3554 38.0035 25.3309 37.2621 25.3061C36.425 25.8329 35.2041 25.5217 34.3168 25.3061C33.7923 25.4746 33.7682 26.2381 33.1712 26.3828L32.8074 26.094C32.4958 24.7864 32.3037 22.9285 33.5255 22.0237C34.8908 21.476 36.4943 21.2367 37.9063 21.6665C38.1698 21.2144 37.763 20.8584 37.6894 20.4535ZM36.2486 22.8013C36.1537 22.8037 36.0614 22.8084 35.968 22.8114C35.4665 23.1442 34.0051 22.9049 34.5326 24.0246C35.4427 23.3084 36.7112 23.8104 37.6206 24.1663C37.9568 24.0002 37.8839 23.6667 37.9061 23.3793C37.6141 22.8388 36.9164 22.7881 36.2486 22.8013ZM46.6689 12.7339C44.8974 12.6403 43.414 13.6408 41.7862 14.0935C41.6444 12.7155 42.6967 11.2601 42.9368 9.87676C40.3049 10.0452 38.2204 11.6212 36.0431 12.8803C35.5393 11.669 35.0339 10.4515 34.5335 9.23569L37.4054 6.52051L37.479 6.16284L33.5997 5.94793C32.9315 4.78309 32.6682 3.38001 31.8784 2.30849C31.2321 3.52278 30.7979 4.80792 30.1523 6.02114L26.2775 6.23668V6.52051L29.2183 9.16227C28.8588 10.5202 28.5247 11.9956 27.64 13.022C25.9169 11.9952 24.2183 10.8776 22.3292 10.1647C21.8746 10.0187 21.2265 9.7813 20.8197 10.0915C21.4172 11.4014 22.2539 12.8105 22.1131 14.2403C21.3229 14.0956 20.7018 13.5915 19.9593 13.3796C19.0714 13.1386 18.0179 12.6677 17.1564 12.9541C18.5927 14.9531 19.7651 17.0452 20.1706 19.4509C24.9354 17.1629 30.4922 15.9045 36.2602 16.8823C38.9639 17.3104 41.4502 18.4061 43.8677 19.3087C43.9622 16.7862 45.5657 14.7592 46.6689 12.7339ZM54.8513 26.4508C57.2906 27.0932 59.7377 29.7373 62.3207 28.0217C60.0712 24.3078 56.7229 20.8781 57.654 16.0214C57.7515 15.6898 57.5361 15.3542 57.2263 15.3071C55.767 15.9005 54.6368 17.3309 54.0594 18.737C53.8218 19.5686 53.6811 20.4526 53.3466 21.2364C51.5983 20.3312 49.7328 19.4543 47.6029 19.6662C46.8348 19.7614 45.7337 19.8115 45.5919 20.596C48.0091 21.8812 49.9968 24.0259 51.4781 26.3098C52.5095 26.1424 53.7743 26.2854 54.8513 26.4508ZM29.2908 29.8073L29.3597 30.2378C30.2949 30.8576 30.5825 31.9082 31.8773 31.8127C33.0255 31.8806 33.887 30.8103 34.459 29.9537C32.9052 29.7403 31.0146 30.0706 29.2908 29.8073ZM30.5838 27.8798C30.6305 28.0705 30.4653 28.3563 30.7263 28.4526C31.4922 28.2871 32.8796 28.858 33.3074 27.9532C33.0087 27.6204 32.5212 27.4693 32.0096 27.4693C31.4982 27.4693 30.9674 27.6176 30.5838 27.8798Z" fill="#007042"/>
<path opacity="0.99" d="M29.2925 27.0536H34.5403V29.1985H29.2925V27.0536Z" fill="white"/>
<path d="M30.2618 28.2005C30.94 28.3602 31.1078 28.5995 31.6437 28.6662C32.2134 28.6562 32.1312 28.541 33.125 28.1998C33.1902 28.1769 33.2799 28.0337 33.1687 27.9239C32.5516 27.3145 32.1252 27.7499 31.7384 27.7615C31.2253 27.767 30.744 27.3244 30.2427 27.8997C30.1573 28.0166 30.1127 28.1313 30.2618 28.2005Z" fill="#007042"/>
<path d="M55.0546 63.3955V60.3404H53.9578V59.7184H56.8949V60.3404H55.8007V63.3955H55.0546Z" fill="#007042"/>
<path d="M57.3691 63.3947V59.7174H58.486L59.1566 62.2258L59.8196 59.7174H60.939V63.3947H60.2456V60.5002L59.512 63.3947H58.7934L58.0623 60.5002V63.3947H57.3691Z" fill="#007042"/>
</svg>
