<svg width="59" height="52" viewBox="0 0 59 52" fill="none" xmlns="http://www.w3.org/2000/svg">
<path d="M47.7727 6.80353L44.4476 4.98041L46.1085 4.06635L47.7727 6.80353ZM48.7566 2.61637V6.25613L47.1006 3.52874L48.7566 2.61637ZM47.6169 7.49752L49.4727 6.48092V0.612427L42.2671 4.56493" fill="#8D7249"/>
<path d="M43.165 11.8217V9.9986H46.4886L43.165 11.8217ZM43.165 7.0937L46.4837 8.9152H43.165V7.0937ZM47.047 8.43946L41.6973 5.50525V13.4086L47.047 10.476" fill="#8D7249"/>
<path d="M53.9767 14.8422L52.319 12.1132L55.6345 13.9363L53.9767 14.8422ZM51.3238 16.302V12.6525L52.9864 15.388L51.3238 16.302ZM50.6143 12.4326V18.2994L57.8214 14.3452L52.47 11.4159" fill="#8D7249"/>
<path d="M56.9219 8.91506H53.6033L56.9219 7.09356V8.91506ZM56.9219 11.8216L53.5952 9.99853H56.9219V11.8216ZM53.0415 8.44094V10.4758L58.3913 13.4085V5.50342" fill="#8D7249"/>
<path d="M53.9767 4.06651L55.6393 4.98219L52.3142 6.80369L53.9767 4.06651ZM51.3254 2.61329L52.9864 3.5289L51.3254 6.26269V2.61329ZM57.8231 4.56508L50.6143 0.610962V6.48108L52.47 7.49767" fill="#8D7249"/>
<path d="M46.1069 14.8438L44.4492 13.9363L47.7711 12.1148L46.1069 14.8438ZM48.7566 16.2987L47.0989 15.388L48.7566 12.659V16.2987ZM42.2671 14.3486L49.471 18.301V12.4326L47.6169 11.4159" fill="#8D7249"/>
<path d="M9.86644 34.4062C9.86644 37.2313 9.86645 39.6555 9.70408 40.9507C9.60503 41.8387 9.41022 42.5148 8.75265 42.6386C8.4604 42.7005 8.06912 42.761 7.57717 42.761C7.18426 42.761 7.05437 42.8539 7.05437 43.0086C7.05437 43.2187 7.28328 43.318 7.70705 43.318C9.01567 43.318 11.0776 43.2252 11.8294 43.2252C12.7451 43.2252 14.8071 43.318 16.9665 43.318C17.3253 43.318 17.5851 43.2187 17.5851 43.0086C17.5851 42.8539 17.4227 42.761 17.0639 42.761C16.5719 42.761 15.8527 42.701 15.3948 42.6386C14.4126 42.5149 14.2193 41.8387 14.1203 40.9768C13.9547 39.6555 13.9547 37.2313 13.9547 34.4062V21.8122L18.0787 21.9037C20.9898 21.9674 21.8731 22.8258 21.9364 23.6241L21.969 23.9612C22.0031 24.4221 22.0697 24.5739 22.3295 24.5739C22.5276 24.5739 22.5925 24.3928 22.625 24.0867C22.625 23.2868 22.7241 21.1655 22.7241 20.5236C22.7241 20.0627 22.6914 19.8752 22.461 19.8752C22.2013 19.8752 21.4154 20.1846 19.3226 20.1846H6.36622C5.28814 20.1846 4.04446 20.1209 3.09465 20.0313C2.28122 19.9675 1.94999 19.66 1.68858 19.66C1.49376 19.66 1.39309 19.8424 1.2957 20.2449C1.23076 20.491 0.608887 23.2866 0.608887 23.777C0.608887 24.1142 0.675439 24.2674 0.902749 24.2674C1.09922 24.2674 1.19824 24.145 1.26322 23.8994C1.32816 23.655 1.49374 23.2867 1.82173 22.8257C2.31206 22.1479 3.09465 21.9947 4.99428 21.9345L9.86672 21.8121" fill="#8D7249"/>
<path d="M28.1517 33.769C28.0218 33.769 27.9925 33.6775 28.0218 33.5524L30.9589 25.9976C30.9897 25.8752 31.0579 25.7205 31.1505 25.7205C31.2463 25.7205 31.2804 25.8752 31.3112 25.9976L34.1818 33.5817C34.214 33.6778 34.1818 33.7692 34.0244 33.7692L28.1517 33.769ZM34.6299 35.3053C34.7891 35.3053 34.8848 35.364 34.9465 35.5174L37.5004 42.0326C37.6611 42.3993 37.4374 42.6778 37.2146 42.7397C36.8948 42.7674 36.7664 42.8312 36.7664 43.015C36.7664 43.2302 37.1511 43.2301 37.7243 43.2675C40.2782 43.3262 42.6081 43.3262 43.7576 43.3262C44.9396 43.3262 45.2269 43.2676 45.2269 43.015C45.2269 42.7984 45.0677 42.7674 44.8113 42.7674C44.4266 42.7674 43.9492 42.7397 43.4719 42.645C42.7997 42.4917 41.8759 42.0618 40.6614 39.2953C38.6206 34.6292 33.5127 22.0956 32.7447 20.4044C32.4281 19.6989 32.2365 19.4236 31.9475 19.4236C31.6277 19.4236 31.4393 19.7607 31.0578 20.6521L23.0453 39.9405C22.4023 41.4802 21.7984 42.5196 20.3241 42.7053C20.0692 42.7377 19.6227 42.7672 19.3353 42.7672C19.0804 42.7672 18.9521 42.831 18.9521 43.0148C18.9521 43.2674 19.1453 43.326 19.5577 43.326C21.2252 43.326 22.9803 43.2365 23.3327 43.2365C24.3214 43.2365 25.6934 43.326 26.7146 43.326C27.0669 43.326 27.2569 43.2674 27.2569 43.0148C27.2569 42.8305 27.1579 42.7672 26.7763 42.7672H26.299C25.3102 42.7672 25.0228 42.3664 25.0228 41.8158C25.0228 41.4477 25.1819 40.7112 25.5018 39.9405L27.2228 35.5498C27.2877 35.3641 27.3527 35.3055 27.5118 35.3055" fill="#8D7249"/>
<path d="M48.4758 37.961C48.4758 43.9892 48.508 47.057 46.1313 49.4242C45.503 50.0401 45.0353 50.3741 44.6262 50.5892C44.0969 50.8676 43.9395 50.9914 43.9395 51.1447C43.9395 51.2995 44.066 51.3891 44.1912 51.3891C44.3472 51.3891 44.5939 51.329 44.8179 51.2066C45.4722 50.9004 45.9739 50.6511 46.3815 50.4067C49.3835 48.5966 51.0396 46.4754 51.6939 44.6017C52.3255 42.878 52.4489 40.9082 52.4489 39.1584C52.4489 37.6237 52.3532 36.1509 52.3532 34.8247V29.1452C52.3532 24.4774 52.3532 23.6172 52.4148 22.6348C52.4797 21.5562 52.7264 21.0349 53.574 20.885C53.951 20.8213 54.1375 20.7903 54.4833 20.7903C54.8584 20.7903 55.0451 20.7284 55.0451 20.5151C55.0451 20.3017 54.826 20.238 54.3859 20.238C53.1665 20.238 51.1955 20.3294 50.4454 20.3294C49.6336 20.3294 47.6625 20.238 46.0048 20.238C45.5372 20.238 45.3148 20.3017 45.3148 20.5151C45.3148 20.7284 45.503 20.7903 45.849 20.7903C46.2876 20.7903 46.815 20.8227 47.0667 20.885C48.1009 21.097 48.3493 21.5888 48.4126 22.6348C48.4761 23.6172 48.4761 24.4774 48.4761 29.1452" fill="#8D7249"/>
</svg>
