<svg width="375" height="375" viewBox="0 0 375 375" fill="none" xmlns="http://www.w3.org/2000/svg">
<path d="M278.258 75.2617C253.965 50.9102 221.672 37.5 187.32 37.5C152.965 37.5 120.672 50.9102 96.3789 75.2617C72.0898 99.6133 58.7109 131.984 58.7109 166.422C58.7109 222.836 137.613 301.062 171.539 332.078C176.035 336.195 181.676 338.25 187.32 338.25C192.961 338.25 198.602 336.195 203.102 332.078C237.023 301.062 315.926 222.836 315.926 166.422C315.926 131.984 302.547 99.6133 278.258 75.2617ZM197.184 325.582C191.562 330.723 183.078 330.723 177.453 325.582C162.703 312.094 134.367 284.953 110.328 254.66C81.9023 218.844 67.4883 189.152 67.4883 166.422C67.4883 100.184 121.242 46.2969 187.32 46.2969C253.395 46.2969 307.152 100.184 307.152 166.422C307.152 189.152 292.738 218.844 264.309 254.66C240.27 284.953 211.934 312.094 197.184 325.582Z" fill="white"/>
<path d="M208.484 251.551C201.586 253.27 194.465 254.141 187.32 254.141C153.129 254.141 123.461 234.379 109.07 205.648L138.668 181.082C140.535 179.531 140.793 176.758 139.25 174.887C137.703 173.02 134.938 172.754 133.07 174.305L105.41 197.27C101.801 187.672 99.8164 177.273 99.8164 166.422C99.8164 118.059 139.07 78.7031 187.32 78.7031C210.91 78.7031 233.031 87.9805 249.609 104.824C251.309 106.551 254.086 106.57 255.812 104.863C257.535 103.16 257.555 100.375 255.855 98.6445C237.613 80.1133 213.273 69.9062 187.32 69.9062C134.23 69.9062 91.043 113.203 91.043 166.422C91.043 219.641 134.23 262.938 187.32 262.938C195.176 262.938 203.008 261.977 210.598 260.086C212.953 259.5 214.383 257.113 213.801 254.758C213.215 252.402 210.836 250.961 208.484 251.551Z" fill="white"/>
<path d="M268.129 113.949C266.812 111.91 264.09 111.332 262.059 112.652C260.027 113.977 259.449 116.703 260.77 118.738C269.961 132.934 274.82 149.426 274.82 166.422C274.82 169.551 274.656 172.66 274.328 175.742L250.691 156.805C246.57 153.504 240.629 153.555 236.566 156.93L214.715 175.07L179.809 147.102C175.687 143.805 169.75 143.855 165.687 147.227L147.469 162.352C145.602 163.898 145.344 166.672 146.891 168.543C148.434 170.414 151.199 170.676 153.066 169.125L171.281 154C172.16 153.273 173.441 153.266 174.328 153.973L212 184.156C212.012 184.164 212.027 184.176 212.039 184.184L256.648 219.926C248.324 230.758 237.609 239.516 225.277 245.48C223.098 246.535 222.18 249.164 223.234 251.352C223.988 252.922 225.555 253.84 227.187 253.84C227.828 253.84 228.477 253.699 229.09 253.402C245.172 245.629 258.777 233.535 268.434 218.434C278.352 202.918 283.594 184.934 283.594 166.422C283.598 147.719 278.246 129.578 268.129 113.949ZM261.664 212.684L221.715 180.68L242.164 163.703C243.039 162.977 244.324 162.961 245.211 163.676L272.687 185.691C270.559 195.211 266.848 204.328 261.664 212.684Z" fill="white"/>
<path d="M197.168 127.184C197.168 136.91 205.062 144.82 214.766 144.82C224.465 144.82 232.359 136.91 232.359 127.184C232.359 117.457 224.465 109.543 214.766 109.543C205.062 109.543 197.168 117.457 197.168 127.184ZM223.586 127.184C223.586 132.055 219.629 136.023 214.766 136.023C209.898 136.023 205.945 132.055 205.945 127.184C205.945 122.305 209.898 118.34 214.766 118.34C219.629 118.34 223.586 122.305 223.586 127.184Z" fill="white"/>
</svg>
