<svg width="22" height="22" viewBox="0 0 22 22" fill="none" xmlns="http://www.w3.org/2000/svg">
<path fill-rule="evenodd" clip-rule="evenodd" d="M2 10.9995C2 9.81763 2.23279 8.64736 2.68508 7.55548C3.13738 6.46361 3.80031 5.4715 4.63604 4.63581C5.47177 3.80013 6.46392 3.13722 7.55585 2.68495C8.64778 2.23268 9.8181 1.9999 11 1.9999C12.1819 1.9999 13.3522 2.23268 14.4442 2.68495C15.5361 3.13722 16.5282 3.80013 17.364 4.63581C18.1997 5.4715 18.8626 6.46361 19.3149 7.55548C19.7672 8.64736 20 9.81763 20 10.9995C20 13.3863 19.0518 15.6754 17.364 17.3631C15.6761 19.0509 13.3869 19.999 11 19.999C8.61305 19.999 6.32387 19.0509 4.63604 17.3631C2.94821 15.6754 2 13.3863 2 10.9995ZM11 0C4.925 0 0 4.92476 0 10.9995C0 17.0742 4.925 21.9989 11 21.9989C17.075 21.9989 22 17.0742 22 10.9995C22 4.92476 17.075 0 11 0ZM15.8 7.59963C15.8788 7.49458 15.9361 7.37504 15.9687 7.24783C16.0013 7.12062 16.0085 6.98824 15.99 6.85825C15.9714 6.72825 15.9274 6.60319 15.8605 6.49019C15.7936 6.3772 15.7051 6.27849 15.6 6.1997C15.4949 6.12091 15.3754 6.06358 15.2482 6.03099C15.121 5.9984 14.9886 5.99119 14.8586 6.00976C14.7286 6.02833 14.6035 6.07232 14.4905 6.13923C14.3775 6.20613 14.2788 6.29464 14.2 6.39969L8.892 13.4773L6.707 11.2925C6.5184 11.1103 6.2658 11.0095 6.0036 11.0118C5.7414 11.0141 5.49059 11.1192 5.30518 11.3046C5.11977 11.49 5.0146 11.7408 5.01233 12.003C5.01005 12.2652 5.11084 12.5178 5.293 12.7064L8.293 15.7062C8.3943 15.8075 8.51618 15.8859 8.6504 15.936C8.78461 15.9861 8.92802 16.0067 9.07092 15.9966C9.21381 15.9864 9.35286 15.9457 9.47865 15.8772C9.60444 15.8086 9.71403 15.7138 9.8 15.5992L15.8 7.59963Z" fill="#EEEEEE"/>
</svg>
