<svg width="70" height="59" viewBox="0 0 70 59" fill="none" xmlns="http://www.w3.org/2000/svg">
<path d="M18.9095 55.6064C16.5012 55.6064 15.8056 53.2039 15.8056 51.4592C15.8056 49.6614 16.5382 47.2866 18.9557 47.2866C21.3524 47.2866 22.0504 49.7052 22.0388 51.4061C22.0388 52.1631 21.8354 55.6064 18.9095 55.6064ZM18.9557 46.5089C16.143 46.5089 14.8649 48.8444 14.8649 51.4523C14.8649 53.1139 15.3803 54.3532 16.0459 55.1287C16.8248 56.0472 17.7839 56.4072 18.9557 56.4072C19.73 56.4072 20.8717 56.2665 21.7938 55.1818C22.5588 54.2794 22.991 52.8278 23.0049 51.3946C23.0118 49.2667 22.092 46.5089 18.9557 46.5089ZM9.31807 50.9492H3.48234V46.7443H2.59253V56.1765H3.48234V51.7338H9.31807V56.1765H10.2102V46.7443H9.31807V50.9492ZM65.2302 51.0969C64.9367 50.9907 63.587 50.6422 63.3189 50.5638C62.7873 50.3999 61.7311 50.0653 61.7311 48.916C61.7311 47.6651 62.9329 47.2358 63.9475 47.2358C64.7657 47.2358 65.5237 47.5266 65.9929 48.1797C66.2009 48.4659 66.3095 48.7844 66.3904 49.0267L67.2201 48.5698C67.0121 48.0482 66.3904 46.5043 63.9752 46.5043C62.5053 46.5043 60.869 47.102 60.869 48.9575C60.869 50.7091 62.3759 51.1984 63.7071 51.5492C64.9436 51.8677 65.496 52.0039 65.9282 52.3639C66.1824 52.5554 66.5014 52.9501 66.5014 53.6309C66.5014 54.6256 65.6994 55.6295 63.8828 55.6295C62.9098 55.6295 61.9322 55.2925 61.5069 54.4179C61.3312 54.0855 61.2943 53.6932 61.2804 53.3216L60.3837 53.7924C60.5454 54.6579 60.9499 55.3479 61.6641 55.8303C62.1587 56.1511 62.882 56.4072 63.8828 56.4072C66.291 56.4072 67.4073 54.9094 67.4073 53.587C67.4073 51.8008 65.741 51.2538 65.2302 51.0969ZM39.7194 51.7569H44.4989V50.9284H39.7194V47.5774H44.9981V46.7443H38.8273V56.1765H45.3355V55.3433H39.7194V51.7569ZM55.7821 3.73977L49.914 3.75363L42.4836 21.0579L33.7265 2.59277L25.0526 21.0579L17.7747 3.73977H11.8904L24.9648 33.9495L33.7542 14.9375L42.4142 34.0119L55.7821 3.73977ZM26.7398 47.5266H29.7189V56.1765H30.6087V47.5266H33.5971V46.7443H26.7398V47.5266ZM51.9016 46.7443H50.9841V56.1765H57.118V55.3433H51.9016V46.7443Z" fill="#979082"/>
</svg>
